<!-- Generator: Adobe Illustrator 23.0.3, SVG Export Plug-In  -->
<svg version="1.1" xmlns="http://www.w3.org/2000/svg" xmlns:xlink="http://www.w3.org/1999/xlink" x="0px" y="0px"
	 width="236.369px" height="11px" viewBox="0 0 236.369 11" style="enable-background:new 0 0 236.369 11;" xml:space="preserve">
<style type="text/css">
	.st0{fill:none;stroke:#3DDC97;stroke-width:3;stroke-linecap:round;stroke-miterlimit:10;}
</style>
<defs>
</defs>
<g>
	<path class="st0" d="M1.5,1.5c6.14,0,6.14,8,12.281,8c6.138,0,6.138-8,12.277-8c6.14,0,6.14,8,12.28,8c6.138,0,6.138-8,12.277-8
		c6.14,0,6.14,8,12.28,8c6.141,0,6.141-8,12.282-8c6.14,0,6.14,8,12.28,8c6.14,0,6.14-8,12.281-8c6.141,0,6.141,8,12.282,8
		c6.142,0,6.142-8,12.284-8c6.141,0,6.141,8,12.282,8c6.142,0,6.142-8,12.283-8c6.142,0,6.142,8,12.284,8c6.14,0,6.14-8,12.28-8
		c6.141,0,6.141,8,12.283,8c6.144,0,6.144-8,12.287-8c6.142,0,6.142,8,12.283,8c6.146,0,6.146-8,12.292-8s6.146,8,12.292,8"/>
</g>
</svg>