<!-- Generator: Adobe Illustrator 23.0.3, SVG Export Plug-In  -->
<svg version="1.1" xmlns="http://www.w3.org/2000/svg" xmlns:xlink="http://www.w3.org/1999/xlink" x="0px" y="0px"
	 width="41.251px" height="34px" viewBox="0 0 41.251 34" style="enable-background:new 0 0 41.251 34;" xml:space="preserve">
<style type="text/css">
	.st0{fill:#3DDC97;}
</style>
<defs>
</defs>
<g>
	<path class="st0" d="M23.257,27.971c4.6,0,8.342-3.738,8.342-8.333c0-0.959-0.162-1.9-0.48-2.796
		c-0.112-0.315-0.458-0.479-0.773-0.367c-0.315,0.112-0.479,0.458-0.367,0.772c0.272,0.766,0.41,1.571,0.41,2.391
		c0,3.928-3.199,7.124-7.132,7.124s-7.132-3.196-7.132-7.124s3.199-7.124,7.132-7.124c2.268,0,4.28,0.914,5.383,2.445
		c0.195,0.271,0.573,0.332,0.844,0.137s0.333-0.573,0.137-0.844c-1.33-1.846-3.709-2.948-6.365-2.948
		c-4.6,0-8.342,3.739-8.342,8.334S18.657,27.971,23.257,27.971z"/>
	<path class="st0" d="M37.867,6.549h-4.458l-2.316-5.362C30.913,0.772,30.577,0,29.711,0h-11.56c-0.872,0-1.203,0.775-1.38,1.188
		l-2.318,5.361h-3.307V5.047c0-0.788-0.641-1.429-1.429-1.429H4.864c-0.788,0-1.429,0.641-1.429,1.429v1.503H3.382
		C1.517,6.549,0,8.065,0,9.928v20.688c0,1.864,1.517,3.381,3.382,3.381L23.757,34c0.334,0,0.605-0.271,0.605-0.605
		s-0.271-0.605-0.605-0.605L3.382,32.788c-1.159,0-2.11-0.913-2.169-2.057h11.786c1.569,0,2.997-0.893,3.712-2.248
		c1.792,1.377,4.048,2.189,6.547,2.189c3.087,0,5.881-1.271,7.888-3.316l1.248,0.773c0.357,0.221,0.753,0.327,1.145,0.327
		c0.729,0,1.441-0.365,1.853-1.028c0.307-0.493,0.402-1.077,0.268-1.645c-0.133-0.567-0.478-1.047-0.971-1.351l-1.163-0.72
		c0.503-1.261,0.781-2.636,0.781-4.074c0-6.086-4.957-11.037-11.049-11.037c-2.739,0-5.187,1.028-7.052,2.712
		c-0.794-0.945-1.955-1.496-3.207-1.496H1.213c0.059-1.144,1.009-2.057,2.169-2.057h11.469c0.241,0,0.459-0.144,0.555-0.365
		l2.477-5.729c0.043-0.102,0.176-0.413,0.252-0.455c0,0,0.005-0.001,0.016-0.001h11.56c0.009,0,0.013,0.001,0.014,0
		c0.078,0.043,0.209,0.345,0.258,0.458l2.473,5.726c0.096,0.222,0.314,0.365,0.555,0.365h4.855c1.199,0,2.174,0.973,2.174,2.169
		v20.688c0,1.197-0.975,2.172-2.174,2.172h-11.38c-0.334,0-0.605,0.271-0.605,0.605c0,0.334,0.271,0.605,0.605,0.605h11.38
		c1.866,0,3.384-1.517,3.384-3.381V9.928C41.251,8.065,39.733,6.549,37.867,6.549z M34.053,25.46
		c0.217,0.134,0.37,0.347,0.429,0.599c0.059,0.252,0.017,0.511-0.119,0.73c-0.281,0.453-0.879,0.593-1.333,0.311l-1.071-0.663
		c0.4-0.509,0.752-1.05,1.055-1.619L34.053,25.46z M23.257,9.81c5.425,0,9.839,4.408,9.839,9.827c0,5.417-4.414,9.825-9.839,9.825
		c-5.424,0-9.837-4.408-9.837-9.825C13.421,14.218,17.834,9.81,23.257,9.81z M7.894,11.026h5.104c0.869,0,1.677,0.374,2.242,1.018
		c-1.958,2.059-3.029,4.735-3.029,7.593c0,3.073,1.279,5.995,3.525,8.083c-0.467,1.076-1.545,1.801-2.737,1.801H7.894V11.026z
		 M6.685,11.026v18.495H1.21V11.026H6.685z M9.937,6.549H4.645V5.047c0-0.119,0.1-0.219,0.219-0.219h4.853
		c0.119,0,0.22,0.1,0.22,0.219V6.549z"/>
	<path class="st0" d="M38.915,11.263c0-1.214-0.989-2.202-2.204-2.202s-2.203,0.988-2.203,2.202c0,1.214,0.988,2.202,2.203,2.202
		C37.926,13.465,38.915,12.477,38.915,11.263z M35.717,11.263c0-0.547,0.446-0.992,0.994-0.992s0.994,0.445,0.994,0.992
		s-0.446,0.992-0.994,0.992S35.717,11.81,35.717,11.263z"/>
	<path class="st0" d="M27.807,2.494h-8.073c-0.742,0-1.011,0.703-1.141,1.041l-0.611,1.598c-0.143,0.362-0.12,0.712,0.066,0.987
		c0.181,0.268,0.485,0.415,0.854,0.415h9.736c0.369,0,0.673-0.148,0.854-0.415c0.186-0.275,0.209-0.625,0.066-0.986l-0.611-1.598
		C28.818,3.197,28.549,2.494,27.807,2.494z M19.204,5.324l0.519-1.358c0.024-0.062,0.071-0.187,0.112-0.263h7.87
		c0.04,0.076,0.088,0.202,0.112,0.263l0.519,1.358H19.204z"/>
	<path class="st0" d="M35.644,15.965h2.133c0.334,0,0.605-0.271,0.605-0.605c0-0.334-0.271-0.605-0.605-0.605h-2.133
		c-0.334,0-0.605,0.271-0.605,0.605C35.04,15.694,35.31,15.965,35.644,15.965z"/>
</g>
</svg>