<!-- Generator: Adobe Illustrator 23.0.3, SVG Export Plug-In  -->
<svg version="1.1" xmlns="http://www.w3.org/2000/svg" xmlns:xlink="http://www.w3.org/1999/xlink" x="0px" y="0px" width="31px"
	 height="31px" viewBox="0 0 31 31" style="enable-background:new 0 0 31 31;" xml:space="preserve">
<style type="text/css">
	.st0{fill:#FFFFFF;stroke:#5B36B7;stroke-miterlimit:10;}
	.st1{fill:none;stroke:#5B36B7;stroke-width:0.5;stroke-linecap:round;stroke-miterlimit:10;}
</style>
<defs>
</defs>
<g>
	<circle class="st0" cx="15.5" cy="15.5" r="15"/>
	<path class="st1" d="M21.054,8.778H9.946C7.767,8.778,6,10.544,6,12.724v5.553c0,2.179,1.767,3.946,3.946,3.946h11.108
		c2.179,0,3.946-1.767,3.946-3.946v-5.553C25,10.544,23.233,8.778,21.054,8.778z"/>
	<path class="st1" d="M18.188,15.766l-5.196,2.478c-0.138,0.066-0.298-0.035-0.298-0.188v-5.111c0-0.156,0.164-0.256,0.303-0.186
		l5.196,2.633C18.347,15.47,18.344,15.691,18.188,15.766z"/>
</g>
</svg>