<!-- Generator: Adobe Illustrator 23.0.3, SVG Export Plug-In  -->
<svg version="1.1" xmlns="http://www.w3.org/2000/svg" xmlns:xlink="http://www.w3.org/1999/xlink" x="0px" y="0px" width="131px"
	 height="50px" viewBox="0 0 131 50" style="enable-background:new 0 0 131 50;" xml:space="preserve">
<style type="text/css">
	.st0{fill:#46237A;}
	.st1{fill:#3DDC97;}
	.st2{fill:#FFFFFF;}
</style>
<defs>
</defs>
<g>
	<g>
		<path class="st0" d="M13.712,10.588c-0.653-0.531-1.306-0.924-1.959-1.18C11.1,9.152,10.468,9.024,9.856,9.024
			c-0.776,0-1.408,0.184-1.898,0.552c-0.49,0.368-0.735,0.848-0.735,1.441c0,0.409,0.123,0.746,0.367,1.012
			c0.245,0.266,0.566,0.496,0.964,0.69c0.398,0.195,0.847,0.363,1.347,0.506c0.5,0.143,0.995,0.296,1.485,0.46
			c1.959,0.654,3.392,1.528,4.3,2.621c0.908,1.094,1.362,2.519,1.362,4.277c0,1.186-0.199,2.259-0.597,3.219
			c-0.398,0.961-0.979,1.783-1.745,2.468c-0.765,0.685-1.704,1.216-2.816,1.594c-1.113,0.378-2.372,0.567-3.78,0.567
			c-2.918,0-5.622-0.868-8.111-2.606l2.571-4.844c0.898,0.797,1.785,1.39,2.663,1.778c0.877,0.388,1.745,0.583,2.602,0.583
			c0.979,0,1.709-0.225,2.188-0.675c0.479-0.449,0.719-0.96,0.719-1.533c0-0.347-0.061-0.649-0.184-0.904
			c-0.122-0.256-0.327-0.491-0.612-0.705c-0.286-0.214-0.658-0.414-1.117-0.598c-0.459-0.184-1.015-0.388-1.668-0.613
			c-0.776-0.245-1.536-0.516-2.28-0.812c-0.745-0.296-1.408-0.69-1.989-1.18c-0.582-0.491-1.051-1.108-1.408-1.855
			c-0.357-0.746-0.536-1.691-0.536-2.836c0-1.144,0.188-2.181,0.566-3.112c0.377-0.93,0.908-1.727,1.592-2.391
			c0.683-0.664,1.52-1.18,2.51-1.548c0.99-0.368,2.097-0.552,3.321-0.552c1.143,0,2.336,0.159,3.581,0.475
			c1.244,0.317,2.438,0.782,3.581,1.395L13.712,10.588z"/>
		<path class="st0" d="M25.894,27.787l3.918-23.116h5.938l4.622,12.324l4.591-12.324H50.9l3.918,23.116H48.85L46.86,14.481
			l-5.448,13.305h-2.387l-5.173-13.305l-1.989,13.305H25.894z"/>
		<path class="st0" d="M78.876,23.771h-8.57l-1.377,4.016h-6.397l8.784-23.116h6.55l8.784,23.116h-6.397L78.876,23.771z
			 M77.284,19.203l-2.693-7.695l-2.694,7.695H77.284z"/>
		<path class="st0" d="M101.402,4.671v18.027h7.193v5.089H95.403V4.671H101.402z"/>
		<path class="st0" d="M123.807,4.671v18.027H131v5.089h-13.192V4.671H123.807z"/>
	</g>
	<path class="st0" d="M40.412,32.019c-2.448,0-4.44-1.995-4.44-4.447h0.323c0,2.274,1.847,4.124,4.117,4.124s4.117-1.85,4.117-4.124
		h0.323C44.852,30.024,42.86,32.019,40.412,32.019z"/>
	<path class="st1" d="M36.134,27.815c-0.134,0-0.242-0.109-0.242-0.243l0.001-0.085c0.002-0.132,0.11-0.238,0.242-0.238
		c0.002,0,0.003,0,0.004,0c0.134,0.002,0.24,0.113,0.238,0.247l-0.001,0.077C36.376,27.706,36.267,27.815,36.134,27.815z
		 M44.622,27.046c-0.115,0-0.217-0.083-0.238-0.2c-0.004-0.025-0.009-0.049-0.014-0.074c-0.027-0.131,0.058-0.259,0.189-0.286
		c0.13-0.027,0.259,0.058,0.286,0.189c0.006,0.028,0.011,0.057,0.016,0.085c0.023,0.132-0.064,0.258-0.196,0.281
		C44.65,27.044,44.636,27.046,44.622,27.046z M36.261,26.775c-0.019,0-0.039-0.002-0.058-0.007c-0.13-0.032-0.209-0.164-0.177-0.294
		c0.007-0.028,0.014-0.056,0.022-0.084c0.035-0.129,0.169-0.205,0.298-0.17c0.129,0.035,0.205,0.169,0.17,0.298
		c-0.007,0.024-0.013,0.048-0.019,0.072C36.469,26.701,36.37,26.775,36.261,26.775z M44.31,26.045c-0.092,0-0.18-0.053-0.22-0.142
		l-0.033-0.07c-0.057-0.121-0.006-0.266,0.115-0.323c0.121-0.058,0.265-0.006,0.323,0.115l0.035,0.076
		c0.056,0.122,0.002,0.266-0.119,0.322C44.378,26.038,44.344,26.045,44.31,26.045z M36.637,25.796c-0.039,0-0.078-0.009-0.114-0.029
		c-0.118-0.063-0.162-0.21-0.099-0.328l0.041-0.074c0.065-0.117,0.213-0.159,0.329-0.094c0.117,0.065,0.159,0.213,0.094,0.33
		l-0.037,0.068C36.807,25.75,36.723,25.796,36.637,25.796z M43.764,25.151c-0.071,0-0.142-0.031-0.19-0.092L43.526,25
		c-0.085-0.104-0.07-0.256,0.033-0.341c0.104-0.085,0.256-0.07,0.341,0.033l0.053,0.066c0.083,0.105,0.066,0.257-0.039,0.341
		C43.87,25.134,43.817,25.151,43.764,25.151z M37.24,24.939c-0.058,0-0.117-0.021-0.163-0.063c-0.099-0.09-0.106-0.244-0.016-0.343
		l0.058-0.063c0.092-0.098,0.245-0.102,0.342-0.01c0.097,0.092,0.102,0.245,0.01,0.343l-0.052,0.056
		C37.371,24.912,37.306,24.939,37.24,24.939z M43.018,24.416c-0.051,0-0.103-0.016-0.147-0.05L42.81,24.32
		c-0.108-0.08-0.13-0.232-0.05-0.339c0.079-0.108,0.231-0.13,0.339-0.05l0.067,0.051c0.106,0.081,0.126,0.234,0.045,0.34
		C43.163,24.383,43.091,24.416,43.018,24.416z M38.032,24.253c-0.078,0-0.154-0.038-0.201-0.107
		c-0.075-0.111-0.045-0.262,0.066-0.337c0.024-0.016,0.048-0.032,0.072-0.048c0.112-0.072,0.262-0.039,0.334,0.074
		c0.072,0.113,0.039,0.263-0.074,0.335c-0.021,0.013-0.042,0.027-0.062,0.041C38.125,24.24,38.078,24.253,38.032,24.253z
		 M42.117,23.883c-0.032,0-0.065-0.006-0.096-0.02l-0.071-0.03c-0.124-0.051-0.182-0.193-0.131-0.317
		c0.051-0.124,0.193-0.182,0.316-0.131l0.078,0.033c0.123,0.053,0.179,0.196,0.126,0.319C42.299,23.829,42.21,23.883,42.117,23.883z
		 M38.966,23.781c-0.099,0-0.192-0.062-0.228-0.161c-0.045-0.126,0.02-0.265,0.146-0.31l0.08-0.028
		c0.127-0.043,0.264,0.025,0.307,0.152c0.043,0.127-0.025,0.265-0.151,0.308l-0.072,0.025C39.02,23.776,38.993,23.781,38.966,23.781
		z M41.113,23.587c-0.013,0-0.026-0.001-0.04-0.003l-0.075-0.012c-0.132-0.019-0.224-0.142-0.205-0.275
		c0.019-0.132,0.142-0.225,0.274-0.205c0.028,0.004,0.056,0.008,0.084,0.013c0.132,0.022,0.221,0.147,0.2,0.279
		C41.332,23.502,41.229,23.587,41.113,23.587z M39.986,23.55c-0.123,0-0.229-0.094-0.241-0.219
		c-0.013-0.133,0.085-0.252,0.218-0.265l0.084-0.008c0.13-0.011,0.25,0.088,0.261,0.222c0.011,0.134-0.088,0.251-0.222,0.262
		l-0.077,0.007C40.002,23.55,39.994,23.55,39.986,23.55z"/>
	<path class="st0" d="M106.111,22.752l-0.304-0.108c0.156-0.441,0.236-0.905,0.236-1.378c0-2.274-1.847-4.124-4.117-4.124
		c-0.168,0-0.338,0.01-0.503,0.03l-0.039-0.321c0.179-0.022,0.361-0.033,0.543-0.033c2.448,0,4.44,1.995,4.44,4.447
		C106.365,21.776,106.279,22.276,106.111,22.752z"/>
	<path class="st2" d="M101.925,25.874c-2.537,0-4.601-2.068-4.601-4.609c0-2.327,1.737-4.294,4.039-4.575
		c0.176-0.021,0.338,0.104,0.36,0.282c0.022,0.177-0.104,0.339-0.281,0.36c-1.979,0.242-3.472,1.932-3.472,3.933
		c0,2.185,1.774,3.962,3.956,3.962c1.672,0,3.171-1.06,3.729-2.638c0.059-0.168,0.244-0.256,0.412-0.197
		c0.168,0.06,0.256,0.245,0.196,0.413C105.613,24.641,103.87,25.874,101.925,25.874z"/>
	<path class="st0" d="M123.882,9.218V8.894c2.27,0,4.117-1.85,4.117-4.124s-1.847-4.124-4.117-4.124c-2.27,0-4.117,1.85-4.117,4.124
		h-0.323c0-2.452,1.992-4.447,4.44-4.447c2.448,0,4.44,1.995,4.44,4.447S126.33,9.218,123.882,9.218z"/>
	<g>
		<path class="st1" d="M14.58,8.975c-0.134,0-0.242-0.109-0.242-0.243c0-0.134,0.108-0.243,0.242-0.243l0.036,0
			c0.001,0,0.001,0,0.002,0c0.133,0,0.241,0.108,0.242,0.241c0.001,0.134-0.107,0.243-0.241,0.244L14.58,8.975z M15.577,8.858
			c-0.109,0-0.209-0.075-0.235-0.186C15.31,8.542,15.39,8.411,15.52,8.38l0.075-0.019c0.128-0.033,0.262,0.045,0.295,0.174
			c0.033,0.13-0.044,0.262-0.174,0.295l-0.082,0.02C15.615,8.856,15.596,8.858,15.577,8.858z M16.557,8.491
			c-0.088,0-0.172-0.048-0.215-0.131c-0.062-0.119-0.015-0.265,0.103-0.327l0.067-0.036c0.117-0.064,0.264-0.021,0.329,0.096
			c0.064,0.117,0.021,0.265-0.096,0.329c-0.025,0.014-0.05,0.027-0.076,0.04C16.633,8.482,16.595,8.491,16.557,8.491z M17.419,7.896
			c-0.067,0-0.133-0.027-0.181-0.081c-0.089-0.1-0.08-0.253,0.02-0.342l0.056-0.051c0.098-0.091,0.251-0.085,0.342,0.014
			c0.091,0.098,0.085,0.252-0.014,0.343L17.58,7.835C17.533,7.876,17.476,7.896,17.419,7.896z M18.111,7.11
			c-0.047,0-0.095-0.014-0.137-0.043c-0.11-0.076-0.138-0.227-0.062-0.337c0.014-0.021,0.028-0.042,0.042-0.063
			c0.074-0.112,0.224-0.143,0.336-0.069c0.112,0.074,0.143,0.224,0.069,0.336c-0.016,0.024-0.032,0.048-0.048,0.072
			C18.263,7.074,18.188,7.11,18.111,7.11z M18.593,6.179c-0.028,0-0.056-0.005-0.084-0.015c-0.126-0.046-0.19-0.186-0.144-0.311
			l0.026-0.073c0.044-0.126,0.183-0.193,0.309-0.148c0.126,0.044,0.192,0.183,0.148,0.309L18.82,6.02
			C18.784,6.119,18.691,6.179,18.593,6.179z M18.833,5.159c-0.009,0-0.018,0-0.027-0.002c-0.133-0.015-0.228-0.135-0.213-0.268
			c0.003-0.025,0.005-0.05,0.007-0.075c0.012-0.133,0.13-0.231,0.263-0.22c0.133,0.012,0.232,0.129,0.22,0.263
			c-0.003,0.029-0.005,0.058-0.009,0.086C19.06,5.067,18.955,5.159,18.833,5.159z M18.819,4.11c-0.119,0-0.223-0.088-0.24-0.21
			l-0.011-0.076c-0.02-0.132,0.07-0.256,0.202-0.277c0.131-0.021,0.256,0.07,0.276,0.203l0.012,0.084
			c0.018,0.133-0.075,0.255-0.207,0.273C18.841,4.109,18.83,4.11,18.819,4.11z M18.553,3.096c-0.096,0-0.187-0.057-0.225-0.152
			l-0.029-0.072c-0.052-0.123,0.006-0.266,0.129-0.318c0.123-0.052,0.265,0.006,0.317,0.13l0.032,0.078
			c0.05,0.124-0.01,0.266-0.134,0.316C18.614,3.091,18.583,3.096,18.553,3.096z"/>
		<path class="st0" d="M10.482,4.045l-0.321-0.031C10.382,1.725,12.282,0,14.58,0c1.788,0,3.394,1.066,4.091,2.716l-0.297,0.126
			c-0.646-1.53-2.135-2.519-3.794-2.519C12.449,0.323,10.687,1.923,10.482,4.045z"/>
		<path class="st2" d="M14.58,9.137c-2.582,0-4.682-2.104-4.682-4.69c0-0.153,0.007-0.307,0.022-0.457
			c0.022-0.222,0.219-0.384,0.441-0.363c0.222,0.022,0.384,0.219,0.362,0.442c-0.012,0.124-0.018,0.252-0.018,0.379
			c0,2.14,1.738,3.881,3.875,3.881c0.223,0,0.404,0.181,0.404,0.404C14.984,8.956,14.803,9.137,14.58,9.137z"/>
	</g>
	<path class="st1" d="M65.072,21.262c-0.01,0-0.021-0.001-0.032-0.003c-0.028-0.005-0.055-0.011-0.082-0.017
		c-0.087-0.019-0.142-0.105-0.123-0.193c0.019-0.087,0.105-0.143,0.192-0.123l0.076,0.016c0.088,0.017,0.144,0.103,0.127,0.19
		C65.215,21.209,65.148,21.262,65.072,21.262z M64.079,20.93c-0.023,0-0.047-0.005-0.07-0.016l-0.075-0.037
		c-0.08-0.04-0.112-0.137-0.072-0.217c0.04-0.08,0.137-0.112,0.217-0.072l0.07,0.035c0.08,0.039,0.114,0.135,0.076,0.216
		C64.197,20.896,64.139,20.93,64.079,20.93z M63.197,20.365c-0.036,0-0.073-0.012-0.103-0.037c-0.022-0.018-0.043-0.036-0.064-0.054
		c-0.068-0.058-0.075-0.16-0.017-0.228c0.058-0.068,0.16-0.075,0.228-0.017l0.059,0.05c0.069,0.057,0.079,0.159,0.022,0.228
		C63.289,20.345,63.243,20.365,63.197,20.365z M62.477,19.604c-0.05,0-0.098-0.023-0.13-0.066l-0.049-0.068
		c-0.052-0.073-0.035-0.174,0.038-0.226c0.073-0.052,0.174-0.035,0.225,0.038l0.046,0.063c0.053,0.072,0.038,0.173-0.034,0.226
		C62.544,19.594,62.511,19.604,62.477,19.604z M61.963,18.691c-0.063,0-0.123-0.038-0.149-0.1c-0.011-0.026-0.021-0.052-0.031-0.078
		c-0.032-0.083,0.009-0.177,0.092-0.209c0.083-0.033,0.177,0.009,0.209,0.092l0.029,0.072c0.034,0.083-0.005,0.177-0.087,0.211
		C62.005,18.687,61.984,18.691,61.963,18.691z M61.687,17.68c-0.079,0-0.148-0.058-0.16-0.139l-0.011-0.083
		c-0.011-0.089,0.052-0.169,0.14-0.18c0.089-0.011,0.169,0.052,0.18,0.141l0.01,0.077c0.013,0.088-0.049,0.17-0.137,0.183
		C61.702,17.68,61.695,17.68,61.687,17.68z M61.664,16.632c-0.005,0-0.011,0-0.016-0.001c-0.089-0.009-0.153-0.088-0.145-0.177
		c0.003-0.028,0.006-0.056,0.009-0.084c0.011-0.089,0.091-0.151,0.18-0.141c0.088,0.011,0.151,0.092,0.14,0.18
		c-0.003,0.026-0.006,0.051-0.008,0.077C61.816,16.57,61.746,16.632,61.664,16.632z M61.895,15.61c-0.018,0-0.037-0.003-0.055-0.01
		c-0.084-0.03-0.128-0.123-0.097-0.207l0.029-0.078c0.031-0.084,0.124-0.126,0.208-0.095c0.083,0.031,0.126,0.125,0.094,0.208
		l-0.027,0.074C62.023,15.568,61.961,15.61,61.895,15.61z M62.367,14.674c-0.031,0-0.062-0.009-0.09-0.027
		c-0.074-0.05-0.094-0.15-0.044-0.224c0.016-0.023,0.032-0.047,0.048-0.07c0.051-0.073,0.152-0.091,0.225-0.039
		c0.073,0.051,0.09,0.152,0.039,0.225c-0.015,0.021-0.029,0.042-0.044,0.064C62.471,14.649,62.419,14.674,62.367,14.674z
		 M63.053,13.881c-0.044,0-0.088-0.018-0.12-0.053c-0.06-0.066-0.055-0.168,0.011-0.228l0.063-0.056
		c0.067-0.059,0.169-0.052,0.228,0.015c0.059,0.067,0.052,0.169-0.015,0.228l-0.058,0.052
		C63.131,13.867,63.092,13.881,63.053,13.881z M68.01,13.32c-0.027,0-0.054-0.007-0.079-0.021c-0.022-0.013-0.045-0.025-0.067-0.037
		c-0.079-0.042-0.108-0.14-0.067-0.219c0.042-0.079,0.139-0.109,0.219-0.067c0.025,0.013,0.05,0.027,0.074,0.041
		c0.078,0.044,0.105,0.143,0.061,0.22C68.121,13.29,68.067,13.32,68.01,13.32z M63.909,13.278c-0.058,0-0.114-0.031-0.143-0.086
		c-0.042-0.079-0.012-0.177,0.067-0.219l0.074-0.039c0.079-0.041,0.176-0.009,0.217,0.071c0.041,0.08,0.009,0.177-0.07,0.218
		l-0.069,0.036C63.96,13.272,63.934,13.278,63.909,13.278z M67.041,12.924c-0.014,0-0.028-0.002-0.042-0.006l-0.075-0.02
		c-0.087-0.022-0.139-0.109-0.117-0.196c0.022-0.087,0.109-0.14,0.196-0.118l0.081,0.021c0.086,0.023,0.137,0.112,0.114,0.198
		C67.178,12.876,67.112,12.924,67.041,12.924z M64.885,12.902c-0.072,0-0.138-0.049-0.157-0.123
		c-0.021-0.087,0.031-0.174,0.118-0.196l0.081-0.019c0.086-0.02,0.174,0.034,0.194,0.121c0.02,0.087-0.034,0.174-0.121,0.194
		l-0.076,0.018C64.911,12.9,64.898,12.902,64.885,12.902z M66.005,12.776c-0.001,0-0.003,0-0.004,0
		c-0.026-0.001-0.051-0.001-0.077-0.001c-0.089,0-0.161-0.072-0.161-0.162c0-0.089,0.072-0.162,0.161-0.162
		c0.028,0,0.056,0,0.085,0.001c0.089,0.002,0.16,0.076,0.158,0.165C66.164,12.706,66.092,12.776,66.005,12.776z"/>
	<path class="st2" d="M65.921,21.67c-0.318,0-0.636-0.032-0.945-0.094c-0.262-0.053-0.432-0.309-0.379-0.571
		c0.053-0.263,0.308-0.433,0.57-0.38c0.246,0.05,0.5,0.075,0.754,0.075c2.092,0,3.794-1.705,3.794-3.8
		c0-1.346-0.722-2.604-1.884-3.284c-0.231-0.135-0.309-0.432-0.174-0.664c0.135-0.231,0.432-0.309,0.663-0.174
		c1.458,0.853,2.364,2.433,2.364,4.122C70.684,19.53,68.548,21.67,65.921,21.67z"/>
	<path class="st2" d="M123.882,9.379c-2.537,0-4.601-2.068-4.601-4.609c0-0.179,0.145-0.323,0.323-0.323s0.323,0.145,0.323,0.323
		c0,2.185,1.774,3.962,3.956,3.962c0.178,0,0.323,0.145,0.323,0.323C124.205,9.235,124.061,9.379,123.882,9.379z"/>
	<g>
		<path class="st0" d="M122.833,4.69c0-0.536,0.434-0.97,0.969-0.97s0.969,0.434,0.969,0.97s-0.434,0.97-0.969,0.97"/>
		<path class="st2" d="M122.833,4.69c0,0.536,0.434,0.97,0.969,0.97V4.69H122.833z"/>
	</g>
	<path class="st0" d="M102.329,22.64c0-0.536-0.434-0.97-0.969-0.97"/>
	<path class="st2" d="M102.329,22.64c0,0.536-0.434,0.97-0.969,0.97s-0.969-0.434-0.969-0.97s0.434-0.97,0.969-0.97v0.97H102.329z"
		/>
	<polyline class="st0" points="102.329,22.64 101.36,22.64 101.36,21.67 	"/>
	<g>
		<g>
			<path class="st1" d="M39.703,34.911h3.53c0.625,0,1.211,0.126,1.759,0.378c0.548,0.252,1.027,0.587,1.437,1.006
				c0.41,0.419,0.732,0.906,0.968,1.463c0.235,0.557,0.353,1.14,0.353,1.75c0,0.602-0.116,1.181-0.347,1.738
				c-0.231,0.557-0.552,1.047-0.962,1.469c-0.41,0.423-0.889,0.76-1.437,1.012c-0.548,0.252-1.138,0.378-1.771,0.378h-3.53V34.911z
				 M42.089,42.081h0.548c0.414,0,0.783-0.065,1.108-0.195c0.324-0.13,0.598-0.309,0.822-0.536c0.223-0.228,0.394-0.498,0.511-0.811
				c0.118-0.313,0.177-0.656,0.177-1.03c0-0.366-0.061-0.707-0.183-1.024c-0.122-0.317-0.294-0.589-0.517-0.817
				c-0.223-0.228-0.497-0.406-0.822-0.537c-0.325-0.13-0.69-0.195-1.096-0.195h-0.548V42.081z"/>
			<path class="st1" d="M60.594,42.507h-3.409l-0.548,1.597h-2.544l3.494-9.194h2.605l3.494,9.194h-2.544L60.594,42.507z
				 M59.961,40.69l-1.071-3.061l-1.071,3.061H59.961z"/>
			<path class="st1" d="M73.9,36.935v7.17h-2.386v-7.17h-1.96v-2.024h6.306v2.024H73.9z"/>
			<path class="st1" d="M88.204,42.507h-3.409l-0.548,1.597h-2.544l3.494-9.194h2.605l3.494,9.194h-2.544L88.204,42.507z
				 M87.571,40.69L86.5,37.63l-1.071,3.061H87.571z"/>
		</g>
	</g>
	<path class="st1" d="M86.345,48.433h-0.081c-0.089,0-0.161-0.072-0.161-0.162s0.072-0.162,0.161-0.162h0.081
		c0.089,0,0.161,0.072,0.161,0.162S86.434,48.433,86.345,48.433z M85.296,48.433h-0.081c-0.089,0-0.161-0.072-0.161-0.162
		s0.072-0.162,0.161-0.162h0.081c0.089,0,0.161,0.072,0.161,0.162S85.385,48.433,85.296,48.433z M84.246,48.433h-0.081
		c-0.089,0-0.161-0.072-0.161-0.162s0.072-0.162,0.161-0.162h0.081c0.089,0,0.161,0.072,0.161,0.162S84.335,48.433,84.246,48.433z
		 M83.197,48.433h-0.081c-0.089,0-0.161-0.072-0.161-0.162s0.072-0.162,0.161-0.162h0.081c0.089,0,0.161,0.072,0.161,0.162
		S83.286,48.433,83.197,48.433z M82.147,48.433h-0.081c-0.089,0-0.161-0.072-0.161-0.162s0.072-0.162,0.161-0.162h0.081
		c0.089,0,0.161,0.072,0.161,0.162S82.236,48.433,82.147,48.433z M81.098,48.433h-0.081c-0.089,0-0.161-0.072-0.161-0.162
		s0.072-0.162,0.161-0.162h0.081c0.089,0,0.161,0.072,0.161,0.162S81.187,48.433,81.098,48.433z M80.048,48.433h-0.081
		c-0.089,0-0.161-0.072-0.161-0.162s0.072-0.162,0.161-0.162h0.081c0.089,0,0.161,0.072,0.161,0.162S80.138,48.433,80.048,48.433z
		 M78.999,48.433h-0.081c-0.089,0-0.161-0.072-0.161-0.162s0.072-0.162,0.161-0.162h0.081c0.089,0,0.161,0.072,0.161,0.162
		S79.088,48.433,78.999,48.433z M77.95,48.433h-0.081c-0.089,0-0.161-0.072-0.161-0.162s0.072-0.162,0.161-0.162h0.081
		c0.089,0,0.161,0.072,0.161,0.162S78.039,48.433,77.95,48.433z M76.9,48.433h-0.081c-0.089,0-0.161-0.072-0.161-0.162
		s0.072-0.162,0.161-0.162H76.9c0.089,0,0.161,0.072,0.161,0.162S76.989,48.433,76.9,48.433z M75.851,48.433H75.77
		c-0.089,0-0.161-0.072-0.161-0.162s0.072-0.162,0.161-0.162h0.081c0.089,0,0.161,0.072,0.161,0.162S75.94,48.433,75.851,48.433z
		 M74.801,48.433H74.72c-0.089,0-0.161-0.072-0.161-0.162s0.072-0.162,0.161-0.162h0.081c0.089,0,0.161,0.072,0.161,0.162
		S74.89,48.433,74.801,48.433z M73.752,48.433h-0.081c-0.089,0-0.161-0.072-0.161-0.162s0.072-0.162,0.161-0.162h0.081
		c0.089,0,0.161,0.072,0.161,0.162S73.841,48.433,73.752,48.433z M72.702,48.433h-0.081c-0.089,0-0.161-0.072-0.161-0.162
		s0.072-0.162,0.161-0.162h0.081c0.089,0,0.161,0.072,0.161,0.162S72.792,48.433,72.702,48.433z M71.653,48.433h-0.081
		c-0.089,0-0.161-0.072-0.161-0.162s0.072-0.162,0.161-0.162h0.081c0.089,0,0.161,0.072,0.161,0.162S71.742,48.433,71.653,48.433z
		 M70.603,48.433h-0.081c-0.089,0-0.161-0.072-0.161-0.162s0.072-0.162,0.161-0.162h0.081c0.089,0,0.161,0.072,0.161,0.162
		S70.693,48.433,70.603,48.433z M69.554,48.433h-0.081c-0.089,0-0.161-0.072-0.161-0.162s0.072-0.162,0.161-0.162h0.081
		c0.089,0,0.161,0.072,0.161,0.162S69.643,48.433,69.554,48.433z M68.505,48.433h-0.081c-0.089,0-0.161-0.072-0.161-0.162
		s0.072-0.162,0.161-0.162h0.081c0.089,0,0.161,0.072,0.161,0.162S68.594,48.433,68.505,48.433z M67.455,48.433h-0.081
		c-0.089,0-0.161-0.072-0.161-0.162s0.072-0.162,0.161-0.162h0.081c0.089,0,0.161,0.072,0.161,0.162S67.544,48.433,67.455,48.433z
		 M66.406,48.433h-0.081c-0.089,0-0.161-0.072-0.161-0.162s0.072-0.162,0.161-0.162h0.081c0.089,0,0.161,0.072,0.161,0.162
		S66.495,48.433,66.406,48.433z M65.356,48.433h-0.081c-0.089,0-0.161-0.072-0.161-0.162s0.072-0.162,0.161-0.162h0.081
		c0.089,0,0.161,0.072,0.161,0.162S65.446,48.433,65.356,48.433z M64.307,48.433h-0.081c-0.089,0-0.161-0.072-0.161-0.162
		s0.072-0.162,0.161-0.162h0.081c0.089,0,0.161,0.072,0.161,0.162S64.396,48.433,64.307,48.433z M63.257,48.433h-0.081
		c-0.089,0-0.161-0.072-0.161-0.162s0.072-0.162,0.161-0.162h0.081c0.089,0,0.161,0.072,0.161,0.162S63.347,48.433,63.257,48.433z
		 M62.208,48.433h-0.081c-0.089,0-0.161-0.072-0.161-0.162s0.072-0.162,0.161-0.162h0.081c0.089,0,0.161,0.072,0.161,0.162
		S62.297,48.433,62.208,48.433z M61.159,48.433h-0.081c-0.089,0-0.161-0.072-0.161-0.162s0.072-0.162,0.161-0.162h0.081
		c0.089,0,0.161,0.072,0.161,0.162S61.248,48.433,61.159,48.433z M60.109,48.433h-0.081c-0.089,0-0.161-0.072-0.161-0.162
		s0.072-0.162,0.161-0.162h0.081c0.089,0,0.161,0.072,0.161,0.162S60.198,48.433,60.109,48.433z M59.06,48.433h-0.081
		c-0.089,0-0.161-0.072-0.161-0.162s0.072-0.162,0.161-0.162h0.081c0.089,0,0.161,0.072,0.161,0.162S59.149,48.433,59.06,48.433z
		 M58.01,48.433H57.93c-0.089,0-0.161-0.072-0.161-0.162s0.072-0.162,0.161-0.162h0.081c0.089,0,0.161,0.072,0.161,0.162
		S58.1,48.433,58.01,48.433z M56.961,48.433H56.88c-0.089,0-0.161-0.072-0.161-0.162s0.072-0.162,0.161-0.162h0.081
		c0.089,0,0.161,0.072,0.161,0.162S57.05,48.433,56.961,48.433z M55.911,48.433h-0.081c-0.089,0-0.161-0.072-0.161-0.162
		s0.072-0.162,0.161-0.162h0.081c0.089,0,0.161,0.072,0.161,0.162S56.001,48.433,55.911,48.433z M54.862,48.433h-0.081
		c-0.089,0-0.161-0.072-0.161-0.162s0.072-0.162,0.161-0.162h0.081c0.089,0,0.161,0.072,0.161,0.162S54.951,48.433,54.862,48.433z
		 M53.813,48.433h-0.081c-0.089,0-0.161-0.072-0.161-0.162s0.072-0.162,0.161-0.162h0.081c0.089,0,0.161,0.072,0.161,0.162
		S53.902,48.433,53.813,48.433z M52.763,48.433h-0.081c-0.089,0-0.161-0.072-0.161-0.162s0.072-0.162,0.161-0.162h0.081
		c0.089,0,0.161,0.072,0.161,0.162S52.852,48.433,52.763,48.433z M51.714,48.433h-0.081c-0.089,0-0.161-0.072-0.161-0.162
		s0.072-0.162,0.161-0.162h0.081c0.089,0,0.161,0.072,0.161,0.162S51.803,48.433,51.714,48.433z M50.664,48.433h-0.081
		c-0.089,0-0.161-0.072-0.161-0.162s0.072-0.162,0.161-0.162h0.081c0.089,0,0.161,0.072,0.161,0.162S50.754,48.433,50.664,48.433z
		 M49.615,48.433h-0.081c-0.089,0-0.161-0.072-0.161-0.162s0.072-0.162,0.161-0.162h0.081c0.089,0,0.161,0.072,0.161,0.162
		S49.704,48.433,49.615,48.433z M48.565,48.433h-0.081c-0.089,0-0.161-0.072-0.161-0.162s0.072-0.162,0.161-0.162h0.081
		c0.089,0,0.161,0.072,0.161,0.162S48.655,48.433,48.565,48.433z M47.516,48.433h-0.081c-0.089,0-0.161-0.072-0.161-0.162
		s0.072-0.162,0.161-0.162h0.081c0.089,0,0.161,0.072,0.161,0.162S47.605,48.433,47.516,48.433z M46.467,48.433h-0.081
		c-0.089,0-0.161-0.072-0.161-0.162s0.072-0.162,0.161-0.162h0.081c0.089,0,0.161,0.072,0.161,0.162S46.556,48.433,46.467,48.433z
		 M45.417,48.433h-0.081c-0.089,0-0.161-0.072-0.161-0.162s0.072-0.162,0.161-0.162h0.081c0.089,0,0.161,0.072,0.161,0.162
		S45.506,48.433,45.417,48.433z M44.368,48.433h-0.081c-0.089,0-0.161-0.072-0.161-0.162s0.072-0.162,0.161-0.162h0.081
		c0.089,0,0.161,0.072,0.161,0.162S44.457,48.433,44.368,48.433z M43.318,48.433h-0.081c-0.089,0-0.161-0.072-0.161-0.162
		s0.072-0.162,0.161-0.162h0.081c0.089,0,0.161,0.072,0.161,0.162S43.407,48.433,43.318,48.433z"/>
	<g>
		<ellipse class="st0" cx="43.157" cy="48.302" rx="1.695" ry="1.698"/>
		<ellipse class="st0" cx="58.925" cy="48.302" rx="1.695" ry="1.698"/>
		<ellipse class="st0" cx="72.864" cy="48.302" rx="1.695" ry="1.698"/>
		<ellipse class="st0" cx="86.587" cy="48.302" rx="1.695" ry="1.698"/>
	</g>
	<g>
		<path class="st1" d="M101.397,22.603c-0.042,0-0.084-0.016-0.111-0.049c-0.05-0.063-0.051-0.145,0.011-0.195l0.023-0.018
			c0.062-0.05,0.153-0.04,0.204,0.023c0.05,0.063,0.04,0.154-0.023,0.204C101.473,22.591,101.435,22.603,101.397,22.603z"/>
		<path class="st1" d="M102.026,22.111c-0.043,0-0.085-0.019-0.114-0.055c-0.05-0.063-0.039-0.154,0.024-0.204l0.046-0.037
			c0.062-0.05,0.154-0.039,0.204,0.024c0.05,0.063,0.039,0.154-0.024,0.204l-0.046,0.037
			C102.089,22.101,102.057,22.111,102.026,22.111z M102.686,21.586c-0.043,0-0.085-0.019-0.114-0.055
			c-0.05-0.063-0.039-0.154,0.024-0.204l0.046-0.037c0.062-0.05,0.154-0.039,0.204,0.024c0.05,0.063,0.039,0.154-0.024,0.204
			l-0.046,0.037C102.75,21.576,102.718,21.586,102.686,21.586z M103.346,21.062c-0.043,0-0.085-0.019-0.114-0.055
			c-0.05-0.063-0.039-0.154,0.024-0.204l0.046-0.037c0.062-0.05,0.154-0.039,0.204,0.024c0.05,0.063,0.039,0.154-0.024,0.204
			l-0.046,0.037C103.41,21.052,103.378,21.062,103.346,21.062z M104.007,20.537c-0.043,0-0.085-0.019-0.113-0.055
			c-0.05-0.063-0.04-0.154,0.023-0.204l0.046-0.037c0.062-0.05,0.154-0.04,0.204,0.023c0.05,0.063,0.04,0.154-0.023,0.204
			l-0.046,0.037C104.071,20.527,104.039,20.537,104.007,20.537z M104.667,20.013c-0.043,0-0.085-0.019-0.114-0.055
			c-0.05-0.063-0.039-0.154,0.024-0.204l0.046-0.037c0.062-0.05,0.154-0.039,0.204,0.024c0.05,0.063,0.039,0.154-0.024,0.204
			l-0.046,0.037C104.73,20.002,104.699,20.013,104.667,20.013z M105.327,19.488c-0.043,0-0.085-0.019-0.114-0.055
			c-0.05-0.063-0.039-0.154,0.024-0.204l0.046-0.037c0.062-0.05,0.154-0.039,0.204,0.024c0.05,0.063,0.039,0.154-0.024,0.204
			l-0.046,0.037C105.391,19.478,105.359,19.488,105.327,19.488z M105.988,18.964c-0.043,0-0.085-0.019-0.114-0.055
			c-0.05-0.063-0.039-0.154,0.023-0.204l0.046-0.037c0.063-0.049,0.154-0.04,0.204,0.023c0.05,0.063,0.039,0.154-0.023,0.204
			l-0.046,0.037C106.051,18.953,106.019,18.964,105.988,18.964z M106.648,18.439c-0.043,0-0.085-0.019-0.114-0.055
			c-0.05-0.063-0.039-0.154,0.023-0.204l0.046-0.037c0.063-0.049,0.154-0.04,0.204,0.023c0.05,0.063,0.039,0.154-0.023,0.204
			l-0.046,0.037C106.712,18.429,106.68,18.439,106.648,18.439z M107.308,17.914c-0.043,0-0.085-0.019-0.114-0.055
			c-0.05-0.063-0.039-0.154,0.023-0.204l0.046-0.037c0.063-0.05,0.154-0.04,0.204,0.023c0.05,0.063,0.039,0.154-0.023,0.204
			l-0.046,0.037C107.372,17.904,107.34,17.914,107.308,17.914z M107.969,17.39c-0.043,0-0.085-0.019-0.114-0.055
			c-0.05-0.063-0.039-0.154,0.024-0.204l0.046-0.037c0.062-0.05,0.154-0.039,0.204,0.024c0.05,0.063,0.039,0.154-0.024,0.204
			l-0.046,0.037C108.032,17.38,108.001,17.39,107.969,17.39z M108.629,16.865c-0.043,0-0.085-0.019-0.114-0.055
			c-0.05-0.063-0.039-0.154,0.024-0.204l0.046-0.037c0.062-0.05,0.154-0.039,0.204,0.024c0.05,0.063,0.039,0.154-0.024,0.204
			l-0.046,0.037C108.693,16.855,108.661,16.865,108.629,16.865z M109.29,16.341c-0.043,0-0.085-0.019-0.113-0.055
			c-0.05-0.063-0.04-0.154,0.023-0.204l0.046-0.037c0.062-0.05,0.154-0.04,0.204,0.023c0.05,0.063,0.04,0.154-0.023,0.204
			l-0.046,0.037C109.354,16.33,109.321,16.341,109.29,16.341z M109.95,15.816c-0.043,0-0.085-0.019-0.114-0.055
			c-0.05-0.063-0.039-0.154,0.024-0.204l0.046-0.037c0.062-0.05,0.154-0.039,0.204,0.024c0.05,0.063,0.039,0.154-0.024,0.204
			l-0.046,0.037C110.013,15.806,109.981,15.816,109.95,15.816z M110.61,15.291c-0.043,0-0.085-0.019-0.114-0.055
			c-0.05-0.063-0.039-0.154,0.024-0.204l0.046-0.037c0.062-0.05,0.154-0.039,0.204,0.024c0.05,0.063,0.039,0.154-0.024,0.204
			L110.7,15.26C110.674,15.281,110.642,15.291,110.61,15.291z M111.271,14.767c-0.043,0-0.085-0.019-0.114-0.055
			c-0.05-0.063-0.039-0.154,0.024-0.204l0.046-0.037c0.062-0.05,0.154-0.039,0.204,0.024c0.05,0.063,0.039,0.154-0.024,0.204
			l-0.046,0.037C111.334,14.757,111.302,14.767,111.271,14.767z M111.931,14.242c-0.043,0-0.085-0.019-0.114-0.055
			c-0.05-0.063-0.039-0.154,0.024-0.204l0.046-0.037c0.062-0.05,0.154-0.039,0.204,0.024c0.05,0.063,0.039,0.154-0.024,0.204
			l-0.046,0.037C111.994,14.232,111.963,14.242,111.931,14.242z M112.591,13.718c-0.043,0-0.085-0.019-0.114-0.055
			c-0.05-0.063-0.039-0.154,0.023-0.204l0.046-0.037c0.063-0.049,0.154-0.04,0.204,0.023c0.05,0.063,0.039,0.154-0.023,0.204
			l-0.046,0.037C112.655,13.707,112.623,13.718,112.591,13.718z M113.252,13.193c-0.043,0-0.085-0.019-0.114-0.055
			c-0.05-0.063-0.039-0.154,0.023-0.204l0.046-0.037c0.064-0.049,0.154-0.04,0.204,0.023c0.05,0.063,0.039,0.154-0.023,0.204
			l-0.046,0.037C113.315,13.183,113.283,13.193,113.252,13.193z M113.912,12.669c-0.042,0-0.085-0.019-0.113-0.055
			c-0.05-0.063-0.04-0.154,0.023-0.204l0.046-0.037c0.062-0.051,0.153-0.041,0.204,0.023c0.05,0.063,0.04,0.154-0.023,0.204
			l-0.046,0.037C113.976,12.658,113.944,12.669,113.912,12.669z M114.572,12.144c-0.043,0-0.085-0.019-0.114-0.055
			c-0.05-0.063-0.039-0.154,0.023-0.204l0.046-0.037c0.063-0.05,0.154-0.04,0.204,0.023c0.05,0.063,0.039,0.154-0.023,0.204
			l-0.046,0.037C114.636,12.134,114.604,12.144,114.572,12.144z M115.233,11.619c-0.043,0-0.085-0.019-0.114-0.055
			c-0.05-0.063-0.039-0.154,0.024-0.204l0.046-0.037c0.062-0.05,0.154-0.039,0.204,0.024c0.05,0.063,0.039,0.154-0.024,0.204
			l-0.046,0.037C115.296,11.609,115.264,11.619,115.233,11.619z M115.893,11.095c-0.043,0-0.085-0.019-0.114-0.055
			c-0.05-0.063-0.039-0.154,0.024-0.204l0.046-0.037c0.062-0.05,0.154-0.039,0.204,0.024c0.05,0.063,0.039,0.154-0.024,0.204
			l-0.046,0.037C115.956,11.085,115.925,11.095,115.893,11.095z M116.553,10.57c-0.043,0-0.085-0.019-0.114-0.055
			c-0.05-0.063-0.039-0.154,0.024-0.204l0.046-0.037c0.062-0.05,0.154-0.039,0.204,0.024c0.05,0.063,0.039,0.154-0.024,0.204
			l-0.046,0.037C116.617,10.56,116.585,10.57,116.553,10.57z M117.214,10.046c-0.043,0-0.085-0.019-0.114-0.055
			c-0.05-0.063-0.039-0.154,0.024-0.204l0.046-0.037c0.062-0.05,0.154-0.039,0.204,0.024c0.05,0.063,0.039,0.154-0.024,0.204
			l-0.046,0.037C117.277,10.035,117.245,10.046,117.214,10.046z M117.874,9.521c-0.043,0-0.085-0.019-0.114-0.055
			c-0.05-0.063-0.039-0.154,0.024-0.204l0.046-0.037c0.062-0.05,0.154-0.039,0.204,0.024c0.05,0.063,0.039,0.154-0.024,0.204
			l-0.046,0.037C117.938,9.511,117.906,9.521,117.874,9.521z M118.535,8.996c-0.043,0-0.085-0.019-0.113-0.055
			c-0.05-0.063-0.04-0.154,0.023-0.204l0.046-0.037c0.062-0.05,0.154-0.04,0.204,0.023c0.05,0.063,0.04,0.154-0.023,0.204
			l-0.046,0.037C118.598,8.986,118.566,8.996,118.535,8.996z M119.195,8.472c-0.043,0-0.085-0.019-0.114-0.055
			c-0.05-0.063-0.039-0.154,0.024-0.204l0.046-0.037c0.062-0.05,0.154-0.04,0.204,0.024c0.05,0.063,0.039,0.154-0.024,0.204
			l-0.046,0.037C119.258,8.462,119.226,8.472,119.195,8.472z M119.855,7.947c-0.043,0-0.085-0.019-0.114-0.055
			c-0.05-0.063-0.039-0.154,0.023-0.204l0.046-0.037c0.063-0.049,0.154-0.04,0.204,0.023c0.05,0.063,0.039,0.154-0.023,0.204
			l-0.046,0.037C119.918,7.937,119.887,7.947,119.855,7.947z M120.515,7.423c-0.043,0-0.085-0.019-0.114-0.055
			c-0.05-0.063-0.039-0.154,0.023-0.204l0.046-0.037c0.063-0.05,0.154-0.04,0.204,0.023c0.05,0.063,0.039,0.154-0.023,0.204
			l-0.046,0.037C120.579,7.412,120.547,7.423,120.515,7.423z M121.176,6.898c-0.043,0-0.085-0.019-0.114-0.055
			c-0.05-0.063-0.039-0.154,0.023-0.204l0.046-0.037c0.063-0.05,0.154-0.04,0.204,0.023c0.05,0.063,0.039,0.154-0.023,0.204
			l-0.046,0.037C121.239,6.888,121.208,6.898,121.176,6.898z M121.836,6.374c-0.043,0-0.085-0.019-0.114-0.055
			c-0.05-0.063-0.039-0.154,0.024-0.204l0.046-0.037c0.062-0.05,0.154-0.039,0.204,0.024c0.05,0.063,0.039,0.154-0.024,0.204
			l-0.046,0.037C121.9,6.363,121.868,6.374,121.836,6.374z M122.497,5.849c-0.043,0-0.085-0.019-0.114-0.055
			c-0.05-0.063-0.039-0.154,0.024-0.204l0.046-0.037c0.062-0.05,0.154-0.039,0.204,0.024c0.05,0.063,0.039,0.154-0.024,0.204
			l-0.046,0.037C122.56,5.839,122.528,5.849,122.497,5.849z M123.157,5.324c-0.043,0-0.085-0.019-0.114-0.055
			c-0.05-0.063-0.039-0.154,0.024-0.204l0.046-0.037c0.062-0.05,0.154-0.039,0.204,0.024c0.05,0.063,0.039,0.154-0.024,0.204
			l-0.046,0.037C123.22,5.314,123.189,5.324,123.157,5.324z"/>
		<path class="st1" d="M123.826,4.786c-0.042,0-0.084-0.016-0.111-0.049c-0.05-0.063-0.051-0.145,0.011-0.195l0.023-0.018
			c0.062-0.05,0.153-0.04,0.204,0.023c0.05,0.063,0.04,0.154-0.023,0.204C123.901,4.774,123.863,4.786,123.826,4.786z"/>
	</g>
</g>
</svg>