<!-- Generator: Adobe Illustrator 23.0.3, SVG Export Plug-In  -->
<svg version="1.1" xmlns="http://www.w3.org/2000/svg" xmlns:xlink="http://www.w3.org/1999/xlink" x="0px" y="0px"
	 width="118.804px" height="28.373px" viewBox="0 0 118.804 28.373" style="enable-background:new 0 0 118.804 28.373;"
	 xml:space="preserve">
<style type="text/css">
	.st0{fill-rule:evenodd;clip-rule:evenodd;fill:#FFFFFF;}
</style>
<defs>
</defs>
<g>
	<path class="st0" d="M36.962,19.254c-1.081-1.972-2.926-2.756-5.068-2.756c-3.117,0-5.598,2.205-5.598,5.937
		c0,3.795,2.333,5.937,5.704,5.937c2.163,0,4.008-1.187,5.026-2.991l-2.375-1.209c-0.531,1.274-1.336,1.655-2.353,1.655
		c-1.761,0-2.566-1.464-2.566-3.393s0.679-3.393,2.566-3.393c0.508,0,1.527,0.276,2.12,1.548L36.962,19.254z"/>
	<path class="st0" d="M43.025,19.043c1.887,0,2.693,1.464,2.693,3.265c0,2.057-0.806,3.521-2.693,3.521
		c-1.888,0-2.693-1.464-2.693-3.393S41.137,19.043,43.025,19.043z M43.025,16.498c-3.52,0-6.002,2.142-6.002,5.937
		s2.482,5.937,6.002,5.937c3.52,0,6.001-2.142,6.001-5.937S46.544,16.498,43.025,16.498z"/>
	<path class="st0" d="M49.703,28.076h3.308v-7.018c0-1.018,0.424-1.888,1.76-1.888c1.273,0,1.612,0.742,1.612,1.845v7.062h3.308
		v-6.933c0-1.146,0.573-1.973,1.676-1.973c1.25,0,1.696,0.72,1.696,2.311v6.595h3.308v-8.609c0-2.587-2.377-2.969-3.479-2.969
		c-1.314,0-2.544,0.404-3.626,1.506c-0.742-0.997-1.696-1.506-2.989-1.506c-1.018,0-2.418,0.297-3.266,1.293v-0.996h-3.308V28.076z"
		/>
	<path class="st0" d="M67.428,28.076h3.308v-7.018c0-1.018,0.423-1.888,1.76-1.888c1.272,0,1.611,0.742,1.611,1.845v7.062h3.308
		v-6.933c0-1.146,0.573-1.973,1.675-1.973c1.25,0,1.697,0.72,1.697,2.311v6.595h3.307v-8.609c0-2.587-2.377-2.969-3.479-2.969
		c-1.314,0-2.543,0.404-3.625,1.506c-0.742-0.997-1.696-1.506-2.989-1.506c-1.018,0-2.418,0.297-3.266,1.293v-0.996h-3.308V28.076z"
		/>
	<path class="st0" d="M90.773,19.043c1.888,0,2.693,1.464,2.693,3.265c0,2.057-0.805,3.521-2.693,3.521
		c-1.888,0-2.693-1.464-2.693-3.393S88.885,19.043,90.773,19.043z M90.773,16.498c-3.52,0-6,2.142-6,5.937s2.48,5.937,6,5.937
		c3.52,0,6.003-2.142,6.003-5.937S94.293,16.498,90.773,16.498z"/>
	<path class="st0" d="M97.665,28.076h3.307v-7.018c0-1.018,0.423-1.888,1.76-1.888c1.272,0,1.613,0.742,1.613,1.845v7.062h3.307
		v-8.333c0-1.697-0.742-3.244-3.414-3.244c-1.018,0-2.417,0.297-3.266,1.293v-0.996h-3.307V28.076z"/>
	<path class="st0" d="M118.697,18.13c-1.525-1.018-3.244-1.632-4.982-1.632c-2.292,0-4.772,1.102-4.772,3.944
		c0,4.007,6.68,2.609,6.68,4.369c0,1.018-1.25,1.145-1.801,1.145c-1.506,0-2.546-0.614-3.564-1.591l-2.057,1.782
		c1.654,1.527,3.053,2.226,5.515,2.226c2.458,0,5.089-1.061,5.089-4.03c0-4.218-6.68-2.628-6.68-4.558
		c0-0.572,0.595-0.869,1.422-0.869c1.04,0,2.458,0.423,3.116,1.209L118.697,18.13z"/>
	<path class="st0" d="M36.962,6.276C35.88,4.304,34.035,3.52,31.893,3.52c-3.117,0-5.598,2.205-5.598,5.937
		c0,3.795,2.333,5.937,5.704,5.937c2.163,0,4.008-1.188,5.026-2.99l-2.375-1.209c-0.531,1.272-1.336,1.654-2.353,1.654
		c-1.761,0-2.566-1.463-2.566-3.393c0-1.93,0.679-3.393,2.566-3.393c0.508,0,1.527,0.276,2.12,1.548L36.962,6.276z"/>
	<path class="st0" d="M37.769,15.098h3.307V8.567c0-1.251,0.785-1.591,2.757-1.824l0.36-0.042l-0.021-2.926
		c-1.166,0.085-2.375,0.509-3.096,1.188V3.817h-3.307V15.098z"/>
	<path class="st0" d="M55.429,10.136c-0.022-3.478-1.422-6.616-5.535-6.616c-3.435,0-5.535,2.29-5.535,6.276
		c0,3.181,2.036,5.599,5.535,5.599c2.523,0,4.326-0.997,5.471-3.117l-2.481-1.294c-0.954,1.358-1.527,1.993-2.757,1.993
		c-1.06,0-2.439-0.679-2.46-2.841H55.429z M47.625,8.101c0.148-1.484,1.293-2.163,2.248-2.163s2.141,0.509,2.248,2.163H47.625z"/>
	<path class="st0" d="M63.016,10.39c0,1.718-0.975,2.587-2.269,2.587c-0.806,0-1.548-0.381-1.548-1.272
		c0-0.911,0.763-1.23,1.59-1.463l2.226-0.636V10.39z M66.196,6.785c-0.021-2.544-1.951-3.265-5.025-3.265
		c-1.527,0-4.538,0.297-4.644,3.541h3.181c0.169-1.124,0.678-1.505,1.739-1.505c0.891,0,1.569,0.36,1.569,1.208v0.933l-1.209,0.17
		c-3.605,0.509-5.789,1.463-5.789,4.177c0,2.162,1.612,3.35,3.774,3.35c1.188,0,2.843-0.572,3.394-1.463h0.041
		c0.022,0.382,0.085,0.784,0.213,1.167h3.053c-0.276-0.7-0.297-1.569-0.297-2.353V6.785z"/>
	<path class="st0" d="M73.976,4.029h-1.973V0.763h-3.307v3.265h-1.613v2.036h1.613v5.938c0,1.632,0.404,3.392,3.223,3.392
		c0.722,0,1.697-0.085,2.121-0.128v-2.608c-0.17,0.021-0.637,0.063-0.997,0.063c-0.593,0-1.04-0.233-1.04-1.124V6.064h1.973V4.029z"
		/>
	<path class="st0" d="M75.223,3.817v11.281h3.307V3.817H75.223z M78.53,2.544V0h-3.307v2.544H78.53z"/>
	<polygon class="st0" points="82.983,15.098 86.312,15.098 90.17,3.817 86.65,3.817 84.699,11.79 84.658,11.79 82.706,3.817 
		79.165,3.817 	"/>
	<path class="st0" d="M100.852,10.136c-0.019-3.478-1.419-6.616-5.534-6.616c-3.435,0-5.534,2.29-5.534,6.276
		c0,3.181,2.036,5.599,5.534,5.599c2.524,0,4.325-0.997,5.471-3.117l-2.48-1.294c-0.955,1.358-1.528,1.993-2.756,1.993
		c-1.061,0-2.439-0.679-2.461-2.841H100.852z M93.049,8.101c0.15-1.484,1.293-2.163,2.248-2.163s2.142,0.509,2.248,2.163H93.049z"/>
	<g>
		<path class="st0" d="M12.389,3.33c-3.404,0-6.398,1.26-8.714,3.608C1.293,9.355,0,12.486,0,15.754
			c0,3.302,1.259,6.366,3.642,8.748s5.48,3.675,8.747,3.675c3.268,0,6.433-1.293,8.884-3.71c2.315-2.28,3.54-5.31,3.54-8.714
			c0-3.369-1.225-6.433-3.574-8.781C18.856,4.59,15.793,3.33,12.389,3.33z M12.423,5.577c2.791,0,5.276,1.055,7.216,2.995
			c1.906,1.907,2.927,4.425,2.927,7.182c0,2.791-0.987,5.242-2.893,7.113c-2.008,1.976-4.595,3.029-7.25,3.029
			c-2.689,0-5.208-1.053-7.148-2.993c-1.94-1.94-3.029-4.494-3.029-7.149c0-2.688,1.089-5.241,3.029-7.216
			C7.182,6.599,9.632,5.577,12.423,5.577z"/>
		<path class="st0" d="M12.263,13.689c-0.702-1.28-1.898-1.789-3.289-1.789c-2.023,0-3.633,1.431-3.633,3.853
			c0,2.464,1.514,3.853,3.702,3.853c1.403,0,2.601-0.769,3.261-1.94l-1.542-0.783c-0.344,0.824-0.866,1.072-1.527,1.072
			c-1.142,0-1.665-0.95-1.665-2.202c0-1.252,0.441-2.202,1.665-2.202c0.33,0,0.991,0.179,1.376,1.005L12.263,13.689z"/>
		<path class="st0" d="M19.43,13.689c-0.703-1.28-1.899-1.789-3.289-1.789c-2.023,0-3.633,1.431-3.633,3.853
			c0,2.464,1.514,3.853,3.702,3.853c1.403,0,2.601-0.769,3.261-1.94l-1.542-0.783c-0.344,0.824-0.866,1.072-1.527,1.072
			c-1.142,0-1.665-0.95-1.665-2.202c0-1.252,0.441-2.202,1.665-2.202c0.33,0,0.991,0.179,1.377,1.005L19.43,13.689z"/>
	</g>
</g>
</svg>