<!-- Generator: Adobe Illustrator 23.0.3, SVG Export Plug-In  -->
<svg version="1.1" xmlns="http://www.w3.org/2000/svg" xmlns:xlink="http://www.w3.org/1999/xlink" x="0px" y="0px" width="31px"
	 height="31px" viewBox="0 0 31 31" style="enable-background:new 0 0 31 31;" xml:space="preserve">
<style type="text/css">
	.st0{fill:#FFFFFF;stroke:#5B36B7;stroke-miterlimit:10;}
	.st1{fill:none;stroke:#5B36B7;stroke-width:0.5;stroke-linecap:round;stroke-miterlimit:10;}
</style>
<defs>
</defs>
<g>
	<circle class="st0" cx="15.5" cy="15.5" r="15"/>
	<path class="st1" d="M24.584,10.512c-0.417,0.185-0.85,0.331-1.294,0.436c0.489-0.465,0.857-1.047,1.065-1.696l0,0
		c0.059-0.185-0.142-0.346-0.309-0.246l0,0c-0.618,0.366-1.283,0.641-1.978,0.817c-0.04,0.01-0.082,0.015-0.124,0.015
		c-0.127,0-0.25-0.047-0.346-0.132c-0.739-0.651-1.69-1.01-2.677-1.01c-0.427,0-0.858,0.067-1.282,0.198
		c-1.312,0.407-2.324,1.489-2.641,2.824c-0.119,0.501-0.151,1.002-0.096,1.49c0.006,0.056-0.02,0.095-0.036,0.114
		c-0.029,0.032-0.069,0.051-0.112,0.051c-0.005,0-0.01,0-0.014-0.001c-2.871-0.267-5.46-1.65-7.291-3.895l0,0
		c-0.093-0.115-0.272-0.1-0.347,0.027l0,0c-0.358,0.615-0.548,1.318-0.548,2.034c0,1.097,0.441,2.13,1.206,2.884
		c-0.322-0.076-0.633-0.196-0.923-0.357l0,0c-0.14-0.078-0.312,0.022-0.314,0.182l0,0c-0.02,1.629,0.934,3.079,2.363,3.732
		c-0.029,0.001-0.058,0.001-0.086,0.001c-0.226,0-0.456-0.022-0.682-0.065l0,0c-0.158-0.03-0.29,0.119-0.241,0.272l0,0
		c0.464,1.448,1.711,2.515,3.202,2.758c-1.238,0.831-2.68,1.27-4.181,1.27l-0.468,0c-0.144,0-0.266,0.094-0.303,0.234
		c-0.036,0.138,0.03,0.283,0.153,0.354c1.691,0.984,3.62,1.504,5.579,1.504c1.715,0,3.319-0.34,4.768-1.011
		c1.328-0.615,2.502-1.495,3.489-2.614c0.919-1.043,1.638-2.246,2.136-3.578c0.475-1.269,0.726-2.623,0.726-3.916v-0.062
		c0-0.208,0.094-0.403,0.258-0.536c0.621-0.505,1.163-1.099,1.609-1.765l0,0C24.963,10.646,24.777,10.426,24.584,10.512
		L24.584,10.512z"/>
</g>
</svg>