<!-- Generator: Adobe Illustrator 23.0.3, SVG Export Plug-In  -->
<svg version="1.1" xmlns="http://www.w3.org/2000/svg" xmlns:xlink="http://www.w3.org/1999/xlink" x="0px" y="0px" width="31px"
	 height="31px" viewBox="0 0 31 31" style="enable-background:new 0 0 31 31;" xml:space="preserve">
<style type="text/css">
	.st0{fill:#FFFFFF;stroke:#5B36B7;stroke-miterlimit:10;}
	.st1{fill:#5B36B7;}
</style>
<defs>
</defs>
<g>
	<circle class="st0" cx="15.5" cy="15.5" r="15"/>
	<g>
		<g>
			<path class="st1" d="M20.717,18.762c-0.067,0-0.134-0.024-0.186-0.074l-3.126-2.933c-0.109-0.102-0.115-0.274-0.012-0.384
				c0.103-0.11,0.274-0.115,0.384-0.012l3.126,2.933c0.109,0.102,0.115,0.274,0.012,0.384C20.862,18.734,20.79,18.762,20.717,18.762
				z"/>
			<path class="st1" d="M10.282,18.762c-0.072,0-0.145-0.029-0.198-0.086c-0.103-0.109-0.097-0.281,0.012-0.384l3.127-2.933
				c0.11-0.102,0.282-0.098,0.384,0.012c0.103,0.109,0.097,0.281-0.012,0.384l-3.127,2.933
				C10.416,18.738,10.349,18.762,10.282,18.762z"/>
		</g>
		<path class="st1" d="M22.566,21.489H8.434c-0.749,0-1.358-0.609-1.358-1.358v-9.262c0-0.749,0.61-1.358,1.358-1.358h14.133
			c0.749,0,1.358,0.609,1.358,1.358v9.262C23.925,20.88,23.315,21.489,22.566,21.489z M8.434,10.054
			c-0.449,0-0.815,0.366-0.815,0.815v9.262c0,0.449,0.366,0.815,0.815,0.815h14.133c0.449,0,0.815-0.366,0.815-0.815v-9.262
			c0-0.449-0.366-0.815-0.815-0.815H8.434z"/>
		<path class="st1" d="M15.5,16.865c-0.361,0-0.723-0.12-0.998-0.36L7.526,10.42c-0.113-0.098-0.125-0.27-0.027-0.384
			C7.599,9.923,7.77,9.913,7.883,10.01l6.976,6.085c0.347,0.303,0.934,0.303,1.281,0l6.967-6.075
			c0.112-0.098,0.284-0.087,0.384,0.026c0.098,0.114,0.087,0.285-0.026,0.384l-6.967,6.075C16.222,16.745,15.861,16.865,15.5,16.865
			z"/>
	</g>
</g>
</svg>