<!-- Generator: Adobe Illustrator 23.0.3, SVG Export Plug-In  -->
<svg version="1.1" xmlns="http://www.w3.org/2000/svg" xmlns:xlink="http://www.w3.org/1999/xlink" x="0px" y="0px"
	 width="132.261px" height="132.261px" viewBox="0 0 132.261 132.261" style="enable-background:new 0 0 132.261 132.261;"
	 xml:space="preserve">
<style type="text/css">
	.st0{fill:#3DDC97;}
	.st1{fill:#5941A9;}
	.st2{fill:#FFFFFF;}
</style>
<defs>
</defs>
<g>
	<path class="st0" d="M32.425,78.517c0.864,0,1.567,0.703,1.567,1.567c0,0.864-0.703,1.567-1.567,1.567
		c-0.864,0-1.567-0.703-1.567-1.567C30.857,79.22,31.561,78.517,32.425,78.517 M32.425,76.166c-2.164,0-3.919,1.754-3.919,3.919
		c0,2.164,1.754,3.919,3.919,3.919c2.164,0,3.919-1.754,3.919-3.919C36.344,77.92,34.589,76.166,32.425,76.166L32.425,76.166z"/>
	<path class="st0" d="M50.504,59.751c0.864,0,1.567,0.703,1.567,1.567c0,0.864-0.703,1.567-1.567,1.567s-1.567-0.703-1.567-1.567
		C48.937,60.454,49.64,59.751,50.504,59.751 M50.504,57.4c-2.164,0-3.919,1.754-3.919,3.919c0,2.164,1.754,3.919,3.919,3.919
		c2.164,0,3.919-1.754,3.919-3.919C54.423,59.154,52.669,57.4,50.504,57.4L50.504,57.4z"/>
	<path class="st0" d="M66.295,64.557c0.864,0,1.567,0.703,1.567,1.567c0,0.864-0.703,1.567-1.567,1.567s-1.567-0.703-1.567-1.567
		C64.728,65.26,65.431,64.557,66.295,64.557 M66.295,62.206c-2.164,0-3.919,1.754-3.919,3.919c0,2.164,1.754,3.919,3.919,3.919
		s3.919-1.754,3.919-3.919C70.214,63.96,68.46,62.206,66.295,62.206L66.295,62.206z"/>
	<path class="st0" d="M66.131,2.419c35.187,0,63.711,28.524,63.711,63.711c0,35.187-28.525,63.711-63.711,63.711
		c-35.187,0-63.711-28.525-63.711-63.711C2.419,30.944,30.944,2.419,66.131,2.419 M66.131,0C29.666,0,0,29.666,0,66.131
		s29.666,66.131,66.131,66.131s66.131-29.666,66.131-66.131S102.595,0,66.131,0L66.131,0z"/>
	<circle class="st1" cx="66.131" cy="66.131" r="58.47"/>
	<g>
		<path class="st2" d="M70.88,46.582c-3.574-3.574-8.327-5.543-13.382-5.543s-9.807,1.969-13.382,5.543
			c-7.378,7.379-7.378,19.384,0,26.763c3.574,3.574,8.327,5.543,13.382,5.543s9.807-1.968,13.382-5.543
			c3.574-3.574,5.543-8.327,5.543-13.382S74.454,50.156,70.88,46.582z M45.64,48.106c3.168-3.168,7.379-4.912,11.858-4.912
			c4.479,0,8.69,1.744,11.857,4.912c2.5,2.5,4.112,5.65,4.681,9.068l-5.874,5.745c-0.556-0.314-1.198-0.494-1.881-0.494
			c-1.33,0-2.503,0.68-3.193,1.709l-8.634-2.709c0.001-0.025,0.002-0.05,0.002-0.075c0-2.118-1.723-3.841-3.841-3.841
			c-2.118,0-3.841,1.723-3.841,3.841c0,0.692,0.185,1.342,0.507,1.903l-4.53,4.696C39.315,61.594,40.276,53.47,45.64,48.106z
			 M67.967,66.266c0,0.929-0.756,1.685-1.685,1.685c-0.929,0-1.685-0.756-1.685-1.685c0-0.929,0.756-1.685,1.685-1.685
			C67.211,64.58,67.967,65.336,67.967,66.266z M52.301,61.35c0,0.929-0.756,1.685-1.685,1.685c-0.93,0-1.685-0.756-1.685-1.685
			c0-0.929,0.756-1.685,1.685-1.685C51.545,59.665,52.301,60.421,52.301,61.35z M69.356,71.821
			c-3.167,3.167-7.378,4.912-11.857,4.912s-8.69-1.744-11.858-4.912c-0.629-0.629-1.197-1.297-1.705-1.994l4.898-5.077
			c0.533,0.281,1.14,0.44,1.783,0.44c1.33,0,2.503-0.68,3.193-1.709l8.634,2.709c-0.001,0.025-0.002,0.05-0.002,0.075
			c0,2.118,1.723,3.841,3.84,3.841s3.841-1.723,3.841-3.841c0-0.653-0.164-1.267-0.452-1.806l4.598-4.496
			C74.267,64.443,72.523,68.654,69.356,71.821z"/>
		<path class="st2" d="M61.937,47.284L61.937,47.284c0.207-0.595-0.139-1.241-0.749-1.4c-4.25-1.108-8.795-0.239-12.321,2.355
			c-0.508,0.374-0.59,1.102-0.176,1.578h0c0.367,0.423,0.997,0.494,1.448,0.162c3.005-2.214,6.885-2.955,10.512-2.007
			C61.194,48.113,61.753,47.813,61.937,47.284z"/>
		<path class="st2" d="M66.07,48.196c-0.009-0.006-0.018-0.013-0.026-0.019c-0.51-0.37-1.228-0.225-1.555,0.312l0,0
			c-0.292,0.479-0.167,1.101,0.287,1.431c0.009,0.006,0.018,0.013,0.026,0.019c0.453,0.331,1.084,0.258,1.45-0.167v0
			C66.663,49.294,66.579,48.567,66.07,48.196z"/>
		<path class="st2" d="M52.484,72.429L52.484,72.429c-0.234,0.584,0.079,1.244,0.68,1.431c1.405,0.437,2.86,0.658,4.324,0.658
			c0.626,0,1.253-0.04,1.879-0.121c0.626-0.081,1.054-0.675,0.924-1.293l0,0c-0.115-0.545-0.627-0.919-1.179-0.847
			c-1.792,0.235-3.6,0.079-5.32-0.458C53.26,71.632,52.691,71.912,52.484,72.429z"/>
		<path class="st2" d="M84.495,77.278l-1.565,1.565l-3.882-4.15c4.595-6.717,5.701-15.119,3.317-22.648l3.08-3.012
			c0.542,0.293,1.161,0.459,1.819,0.459c2.118,0,3.841-1.723,3.841-3.84c0-0.627-0.152-1.219-0.42-1.743l6.612-6.466v3.342h2.155
			v-6.981h-6.981v2.155h3.259l-6.525,6.38c-0.57-0.336-1.234-0.529-1.942-0.529c-2.118,0-3.841,1.723-3.841,3.84
			c0,0.678,0.177,1.314,0.487,1.868l-2.361,2.308c-1.271-3.026-3.134-5.86-5.595-8.321c-10.177-10.177-26.736-10.177-36.913,0
			c-9.066,9.066-10.056,23.196-2.97,33.367l-1.815,1.881c-0.533-0.281-1.14-0.44-1.783-0.44c-2.118,0-3.84,1.723-3.84,3.84
			c0,2.118,1.723,3.84,3.84,3.84c2.118,0,3.841-1.723,3.841-3.84c0-0.693-0.185-1.342-0.507-1.904l1.586-1.643
			c0.516,0.623,1.065,1.228,1.648,1.812c5.089,5.088,11.773,7.633,18.457,7.633c5.131,0,10.261-1.501,14.67-4.5l3.892,4.159
			l-1.618,1.618l18.847,18.781l10.053-10.053L84.495,77.278z M87.265,43.966c0.929,0,1.685,0.756,1.685,1.685
			c0,0.929-0.756,1.685-1.685,1.685c-0.93,0-1.685-0.756-1.685-1.685C85.579,44.722,86.335,43.966,87.265,43.966z M32.474,81.84
			c-0.929,0-1.685-0.756-1.685-1.685c0-0.929,0.756-1.685,1.685-1.685c0.93,0,1.685,0.756,1.685,1.685
			C34.16,81.084,33.403,81.84,32.474,81.84z M40.566,76.896c-9.337-9.337-9.337-24.528,0-33.865
			c4.668-4.668,10.8-7.002,16.933-7.002c6.132,0,12.264,2.334,16.932,7.002c9.337,9.337,9.337,24.529,0,33.865
			C65.094,86.233,49.902,86.233,40.566,76.896z M73.911,80.26c0.705-0.571,1.388-1.184,2.044-1.84
			c0.634-0.634,1.228-1.292,1.783-1.973l3.668,3.92l-3.82,3.82L73.911,80.26z M93.287,103.066L77.493,87.328l7.005-7.005
			l15.794,15.738L93.287,103.066z"/>
	</g>
	<path class="st0" d="M50.252,60.09c0.864,0,1.567,0.703,1.567,1.567s-0.703,1.567-1.567,1.567s-1.567-0.703-1.567-1.567
		S49.388,60.09,50.252,60.09 M50.252,57.738c-2.164,0-3.919,1.754-3.919,3.919c0,2.164,1.754,3.919,3.919,3.919
		c2.164,0,3.919-1.754,3.919-3.919C54.171,59.493,52.416,57.738,50.252,57.738L50.252,57.738z"/>
	<path class="st0" d="M66.382,64.928c0.864,0,1.567,0.703,1.567,1.567s-0.703,1.567-1.567,1.567s-1.567-0.703-1.567-1.567
		S65.517,64.928,66.382,64.928 M66.382,62.577c-2.164,0-3.919,1.754-3.919,3.919s1.754,3.919,3.919,3.919
		c2.164,0,3.919-1.754,3.919-3.919S68.546,62.577,66.382,62.577L66.382,62.577z"/>
</g>
</svg>