<!-- Generator: Adobe Illustrator 23.0.3, SVG Export Plug-In  -->
<svg version="1.1" xmlns="http://www.w3.org/2000/svg" xmlns:xlink="http://www.w3.org/1999/xlink" x="0px" y="0px"
	 width="132.261px" height="132.261px" viewBox="0 0 132.261 132.261" style="enable-background:new 0 0 132.261 132.261;"
	 xml:space="preserve">
<style type="text/css">
	.st0{fill:#3DDC97;}
	.st1{fill:#5941A9;}
	.st2{fill:#7A67BA;}
	.st3{fill:#FFFFFF;}
</style>
<defs>
</defs>
<g>
	<g>
		<path class="st0" d="M66.131,2.419c35.187,0,63.711,28.524,63.711,63.711c0,35.187-28.525,63.711-63.711,63.711
			c-35.187,0-63.711-28.525-63.711-63.711C2.419,30.944,30.944,2.419,66.131,2.419 M66.131,0C29.666,0,0,29.666,0,66.131
			s29.666,66.131,66.131,66.131s66.131-29.666,66.131-66.131S102.595,0,66.131,0L66.131,0z"/>
		<circle class="st1" cx="66.131" cy="66.131" r="58.47"/>
	</g>
	<g>
		<g>
			<g>
				<g>
					<path class="st0" d="M91.785,81.833c-0.443,0-0.801,0.359-0.801,0.801v2.083c0,0.442,0.359,0.801,0.801,0.801
						c0.443,0,0.801-0.359,0.801-0.801v-2.083C92.587,82.192,92.228,81.833,91.785,81.833z"/>
				</g>
			</g>
			<g>
				<g>
					<path class="st0" d="M91.785,87.442c-0.443,0-0.801,0.359-0.801,0.801v2.083c0,0.442,0.359,0.801,0.801,0.801
						c0.443,0,0.801-0.359,0.801-0.801v-2.083C92.587,87.8,92.228,87.442,91.785,87.442z"/>
				</g>
			</g>
			<g>
				<g>
					<path class="st0" d="M95.631,85.679h-2.083c-0.443,0-0.801,0.359-0.801,0.801c0,0.442,0.359,0.801,0.801,0.801h2.083
						c0.443,0,0.801-0.359,0.801-0.801S96.074,85.679,95.631,85.679z"/>
				</g>
			</g>
			<g>
				<g>
					<path class="st0" d="M90.023,85.679h-2.083c-0.443,0-0.801,0.359-0.801,0.801c0,0.442,0.359,0.801,0.801,0.801h2.083
						c0.443,0,0.801-0.359,0.801-0.801S90.465,85.679,90.023,85.679z"/>
				</g>
			</g>
		</g>
		<g>
			<g>
				<path class="st0" d="M40.878,73.036l-1.024-0.208c-0.82-0.166-1.457-0.803-1.623-1.623l-0.208-1.024
					c-0.09-0.443-0.468-0.752-0.92-0.752c-0.452,0-0.83,0.309-0.92,0.752l-0.208,1.024c-0.166,0.82-0.803,1.457-1.623,1.623
					l-1.024,0.208c-0.443,0.09-0.753,0.468-0.753,0.92s0.309,0.831,0.753,0.92l1.024,0.208c0.82,0.166,1.457,0.803,1.623,1.623
					l0.208,1.024c0.09,0.443,0.468,0.752,0.92,0.752c0.452,0,0.83-0.309,0.92-0.752l0.208-1.024c0.166-0.82,0.803-1.457,1.623-1.623
					l1.024-0.208c0.443-0.09,0.753-0.468,0.753-0.92S41.321,73.126,40.878,73.036z M39.66,74.131
					c-1.204,0.244-2.139,1.179-2.383,2.383l-0.175,0.861l-0.174-0.861c-0.244-1.204-1.179-2.139-2.383-2.383l-0.861-0.175
					l0.861-0.174c1.204-0.244,2.139-1.179,2.383-2.383l0.175-0.861l0.174,0.861c0.244,1.204,1.179,2.139,2.383,2.383l0.861,0.175
					L39.66,74.131z"/>
			</g>
		</g>
		<path class="st2" d="M105.559,88.549c0.617,0,1.119,0.502,1.119,1.119c0,0.617-0.502,1.119-1.119,1.119s-1.119-0.502-1.119-1.119
			C104.44,89.051,104.942,88.549,105.559,88.549 M105.559,86.87c-1.545,0-2.797,1.252-2.797,2.797c0,1.545,1.252,2.797,2.797,2.797
			s2.797-1.252,2.797-2.797C108.356,88.123,107.104,86.87,105.559,86.87L105.559,86.87z"/>
		<path class="st2" d="M45.1,91.427c0.617,0,1.119,0.502,1.119,1.119s-0.502,1.119-1.119,1.119s-1.119-0.502-1.119-1.119
			S44.483,91.427,45.1,91.427 M45.1,89.749c-1.545,0-2.797,1.252-2.797,2.797s1.252,2.797,2.797,2.797s2.797-1.252,2.797-2.797
			S46.645,89.749,45.1,89.749L45.1,89.749z"/>
		<path class="st2" d="M90.628,99.858c0.617,0,1.119,0.502,1.119,1.119s-0.502,1.119-1.119,1.119c-0.617,0-1.119-0.502-1.119-1.119
			S90.011,99.858,90.628,99.858 M90.628,98.18c-1.545,0-2.797,1.252-2.797,2.797c0,1.545,1.252,2.797,2.797,2.797
			c1.545,0,2.797-1.252,2.797-2.797C93.425,99.432,92.173,98.18,90.628,98.18L90.628,98.18z"/>
		<g>
			<path class="st3" d="M66.905,21.061c-2.223,0.022-4.013,1.848-3.991,4.071l0.094,9.522l0.043,4.336l0.276,27.893
				c-1.782,0.431-3.101,2.047-3.083,3.958l0.008,0.808c0.011,1.077,0.44,2.085,1.209,2.839c0.016,0.016,0.032,0.03,0.049,0.045
				c-0.22,0.072-0.442,0.148-0.664,0.229c-5.738,2.096-6.914,5.435-6.89,7.868c0.021,2.155,0.536,4.708,1.081,7.41
				c1.345,6.668,2.869,14.226-2.039,19.231l0,0c-0.321,0.328-0.414,0.817-0.234,1.24c0.18,0.423,0.597,0.695,1.056,0.691
				l5.675-0.056c0.012,0,0.025,0,0.037,0l5.646-0.056c0.005,0,0.009,0.001,0.014,0c0.004,0,0.009-0.001,0.013-0.001l6.799-0.067
				c0.573-0.006,1.052-0.438,1.117-1.007l0.534-4.69c1.138,2.786,2.505,4.964,2.602,5.118c0.21,0.332,0.578,0.532,0.971,0.528
				l4.541-0.045c0.307-0.003,0.593-0.13,0.8-0.341c0.102-0.104,0.186-0.23,0.242-0.371c0.172-0.426,0.069-0.913-0.259-1.235
				c-4.175-4.092-3.443-13.755-2.49-19.741c0.126-0.148,0.229-0.317,0.265-0.523c0.385-2.157,0.759-4.424,0.74-6.353
				c-0.024-2.432-1.266-5.747-7.044-7.729c-0.224-0.077-0.448-0.149-0.67-0.217c0.016-0.016,0.033-0.031,0.048-0.047
				c0.723-0.737,1.165-1.75,1.154-2.861l-0.008-0.808c-0.019-1.91-1.371-3.499-3.161-3.895l-0.413-41.751
				C70.953,22.829,69.127,21.039,66.905,21.061z M78.798,82.383c0.017,1.733-0.339,3.881-0.705,5.932
				c-0.044,0.25,0.014,0.486,0.119,0.697c-0.92,5.805-2.021,15.173,1.118,19.665l-1.474,0.014c-0.909-1.559-3.437-6.213-3.473-9.835
				c-0.006-0.6-0.478-1.092-1.077-1.123c-0.599-0.031-1.119,0.41-1.187,1.006l-1.14,10.021l-4.674,0.046l-0.032-3.282
				c-0.006-0.627-0.52-1.131-1.147-1.124c-0.627,0.006-1.13,0.52-1.124,1.147l0.032,3.282l-2.737,0.027
				c0.12-0.325,0.245-0.695,0.368-1.117c0.736-2.522,1.091-5.624,1.055-9.22c-0.006-0.627-0.52-1.131-1.147-1.124
				c-0.627,0.006-1.13,0.52-1.124,1.147c0.06,6.063-1.094,9.216-1.624,10.339l-2.618,0.026c3.798-5.706,2.291-13.181,1.054-19.315
				c-0.523-2.594-1.017-5.043-1.036-6.984c-0.023-2.308,1.558-4.136,4.702-5.44c-0.895,1.297-1.547,3.051-1.524,5.409
				c0.006,0.627,0.52,1.13,1.147,1.124c0.627-0.006,1.131-0.52,1.124-1.147c-0.043-4.389,2.889-6.043,4.636-6.638l0.037,3.717
				c0.006,0.627,0.52,1.131,1.147,1.124c0.313-0.003,0.596-0.133,0.8-0.341c0.203-0.208,0.328-0.493,0.325-0.806L68.583,75.9
				c0.516,0.166,1.136,0.418,1.753,0.799c1.974,1.218,2.988,3.149,3.014,5.738c0.006,0.627,0.52,1.131,1.147,1.124
				c0.313-0.003,0.596-0.133,0.8-0.34c0.203-0.208,0.328-0.493,0.325-0.806c-0.023-2.357-0.71-4.099-1.63-5.377
				C77.158,78.279,78.775,80.075,78.798,82.383z M72.278,70.721l0.008,0.808c0.009,0.97-0.772,1.768-1.743,1.777L64.3,73.368
				c-0.97,0.009-1.768-0.772-1.777-1.743l-0.008-0.808c-0.005-0.485,0.188-0.927,0.504-1.249c0.315-0.322,0.754-0.524,1.239-0.528
				l0.226-0.002l5.79-0.057l0.226-0.002C71.471,68.969,72.268,69.75,72.278,70.721z M68.704,25.075l0.412,41.646l-3.519,0.035
				l-0.275-27.789l-0.043-4.336l-0.094-9.522c-0.01-0.97,0.772-1.767,1.742-1.777C67.897,23.323,68.694,24.104,68.704,25.075z"/>
		</g>
		<g>
			<g>
				<path class="st0" d="M99.403,58.71l-0.547-0.111c-0.438-0.089-0.779-0.429-0.867-0.867l-0.111-0.547
					c-0.048-0.237-0.25-0.402-0.492-0.402c-0.242,0-0.444,0.165-0.492,0.402l-0.111,0.547c-0.089,0.438-0.429,0.778-0.867,0.867
					l-0.547,0.111c-0.237,0.048-0.402,0.25-0.402,0.492c0,0.242,0.165,0.444,0.402,0.492l0.547,0.111
					c0.438,0.089,0.779,0.429,0.867,0.867l0.111,0.547c0.048,0.237,0.25,0.402,0.492,0.402c0.242,0,0.444-0.165,0.492-0.402
					l0.111-0.547c0.089-0.438,0.429-0.778,0.867-0.867l0.547-0.111c0.237-0.048,0.402-0.25,0.402-0.492
					C99.805,58.961,99.639,58.758,99.403,58.71z M98.752,59.295c-0.643,0.13-1.143,0.63-1.274,1.274l-0.093,0.46l-0.093-0.46
					c-0.13-0.643-0.63-1.143-1.274-1.274l-0.46-0.093l0.46-0.093c0.643-0.13,1.143-0.63,1.274-1.274l0.093-0.46l0.093,0.46
					c0.13,0.643,0.63,1.143,1.274,1.274l0.46,0.093L98.752,59.295z"/>
			</g>
		</g>
		<g>
			<g>
				<g>
					<path class="st2" d="M79.139,40.521c-0.362,0-0.656,0.294-0.656,0.656v1.705c0,0.362,0.294,0.656,0.656,0.656
						c0.362,0,0.656-0.294,0.656-0.656v-1.705C79.795,40.815,79.501,40.521,79.139,40.521z"/>
				</g>
			</g>
			<g>
				<g>
					<path class="st2" d="M79.139,45.112c-0.362,0-0.656,0.294-0.656,0.656v1.705c0,0.362,0.294,0.656,0.656,0.656
						c0.362,0,0.656-0.294,0.656-0.656v-1.705C79.795,45.406,79.501,45.112,79.139,45.112z"/>
				</g>
			</g>
			<g>
				<g>
					<path class="st2" d="M82.287,43.669h-1.705c-0.362,0-0.656,0.294-0.656,0.656c0,0.362,0.294,0.656,0.656,0.656h1.705
						c0.362,0,0.656-0.294,0.656-0.656C82.943,43.963,82.649,43.669,82.287,43.669z"/>
				</g>
			</g>
			<g>
				<g>
					<path class="st2" d="M77.696,43.669h-1.705c-0.362,0-0.656,0.294-0.656,0.656c0,0.362,0.294,0.656,0.656,0.656h1.705
						c0.362,0,0.656-0.294,0.656-0.656C78.352,43.963,78.058,43.669,77.696,43.669z"/>
				</g>
			</g>
		</g>
		<g>
			<g>
				<path class="st0" d="M40.385,104.238l-0.547-0.111c-0.438-0.089-0.778-0.429-0.867-0.867l-0.111-0.547
					c-0.048-0.237-0.25-0.402-0.492-0.402c-0.242,0-0.444,0.165-0.492,0.402l-0.111,0.547c-0.089,0.438-0.429,0.778-0.867,0.867
					l-0.547,0.111c-0.237,0.048-0.402,0.25-0.402,0.492c0,0.242,0.165,0.444,0.402,0.492l0.547,0.111
					c0.438,0.089,0.778,0.429,0.867,0.867l0.111,0.547c0.048,0.237,0.25,0.402,0.492,0.402c0.242,0,0.444-0.165,0.492-0.402
					l0.111-0.547c0.089-0.438,0.429-0.778,0.867-0.867l0.547-0.111c0.237-0.048,0.402-0.25,0.402-0.492
					S40.622,104.286,40.385,104.238z M39.734,104.823c-0.643,0.13-1.143,0.63-1.274,1.274l-0.093,0.46l-0.093-0.46
					c-0.13-0.643-0.63-1.143-1.274-1.274l-0.46-0.093l0.46-0.093c0.643-0.13,1.143-0.63,1.274-1.274l0.093-0.46l0.093,0.46
					c0.13,0.643,0.63,1.143,1.274,1.274l0.46,0.093L39.734,104.823z"/>
			</g>
		</g>
		<g>
			<g>
				<g>
					<path class="st2" d="M27.709,85.206c-0.362,0-0.656,0.294-0.656,0.656v1.705c0,0.362,0.294,0.656,0.656,0.656
						c0.362,0,0.656-0.294,0.656-0.656v-1.705C28.365,85.499,28.071,85.206,27.709,85.206z"/>
				</g>
			</g>
			<g>
				<g>
					<path class="st2" d="M27.709,89.797c-0.362,0-0.656,0.294-0.656,0.656v1.705c0,0.362,0.294,0.656,0.656,0.656
						c0.362,0,0.656-0.294,0.656-0.656v-1.705C28.365,90.09,28.071,89.797,27.709,89.797z"/>
				</g>
			</g>
			<g>
				<g>
					<path class="st2" d="M30.857,88.354h-1.705c-0.362,0-0.656,0.294-0.656,0.656c0,0.362,0.294,0.656,0.656,0.656h1.705
						c0.362,0,0.656-0.294,0.656-0.656S31.219,88.354,30.857,88.354z"/>
				</g>
			</g>
			<g>
				<g>
					<path class="st2" d="M26.266,88.354h-1.705c-0.362,0-0.656,0.294-0.656,0.656c0,0.362,0.294,0.656,0.656,0.656h1.705
						c0.362,0,0.656-0.294,0.656-0.656S26.628,88.354,26.266,88.354z"/>
				</g>
			</g>
		</g>
	</g>
</g>
</svg>