<!-- Generator: Adobe Illustrator 23.0.3, SVG Export Plug-In  -->
<svg version="1.1" xmlns="http://www.w3.org/2000/svg" xmlns:xlink="http://www.w3.org/1999/xlink" x="0px" y="0px"
	 width="132.261px" height="132.261px" viewBox="0 0 132.261 132.261" style="enable-background:new 0 0 132.261 132.261;"
	 xml:space="preserve">
<style type="text/css">
	.st0{fill:#3DDC97;}
	.st1{fill:#5941A9;}
	.st2{fill:#7A67BA;}
	.st3{fill:#FFFFFF;}
</style>
<defs>
</defs>
<g>
	<g>
		<path class="st0" d="M66.131,2.419c35.187,0,63.711,28.524,63.711,63.711c0,35.187-28.525,63.711-63.711,63.711
			c-35.187,0-63.711-28.525-63.711-63.711C2.419,30.944,30.944,2.419,66.131,2.419 M66.131,0C29.666,0,0,29.666,0,66.131
			s29.666,66.131,66.131,66.131s66.131-29.666,66.131-66.131S102.595,0,66.131,0L66.131,0z"/>
		<circle class="st1" cx="66.131" cy="66.131" r="58.47"/>
	</g>
	<g>
		<g>
			<path class="st0" d="M31.479,48.632c-2.38,0-4.316,1.936-4.316,4.316c0,2.38,1.936,4.316,4.316,4.316
				c2.38,0,4.316-1.936,4.316-4.316S33.859,48.632,31.479,48.632z M31.479,54.726c-0.98,0-1.777-0.797-1.777-1.777
				c0-0.98,0.797-1.777,1.777-1.777c0.98,0,1.777,0.797,1.777,1.777C33.256,53.928,32.459,54.726,31.479,54.726z"/>
		</g>
	</g>
	<g>
		<g>
			<path class="st2" d="M38.542,31.633c-2.38-0.035-4.344,1.873-4.379,4.253c-0.035,2.38,1.873,4.344,4.253,4.379
				c2.38,0.035,4.344-1.873,4.379-4.252S40.922,31.667,38.542,31.633z M38.453,37.725c-0.98-0.014-1.765-0.823-1.751-1.803
				s0.823-1.765,1.803-1.751c0.98,0.014,1.765,0.823,1.751,1.803S39.433,37.74,38.453,37.725z"/>
		</g>
	</g>
	<g>
		<g>
			<path class="st2" d="M86.479,27.632c-2.38,0-4.316,1.936-4.316,4.316s1.936,4.316,4.316,4.316c2.38,0,4.316-1.936,4.316-4.316
				S88.859,27.632,86.479,27.632z M86.479,33.726c-0.98,0-1.777-0.797-1.777-1.777c0-0.98,0.797-1.777,1.777-1.777
				c0.98,0,1.777,0.797,1.777,1.777C88.256,32.928,87.459,33.726,86.479,33.726z"/>
		</g>
	</g>
	<g>
		<g>
			<path class="st2" d="M96.479,44.632c-2.38,0-4.316,1.936-4.316,4.316c0,2.38,1.936,4.316,4.316,4.316
				c2.38,0,4.316-1.936,4.316-4.316S98.859,44.632,96.479,44.632z M96.479,50.726c-0.98,0-1.777-0.797-1.777-1.777
				c0-0.98,0.797-1.777,1.777-1.777c0.98,0,1.777,0.797,1.777,1.777C98.256,49.928,97.459,50.726,96.479,50.726z"/>
		</g>
	</g>
	<g>
		<g>
			<path class="st0" d="M43.633,45.051c-0.236-0.237-0.564-0.372-0.898-0.372c-0.334,0-0.661,0.135-0.898,0.372
				c-0.236,0.236-0.372,0.564-0.372,0.898c0,0.334,0.136,0.661,0.372,0.898c0.236,0.236,0.564,0.372,0.898,0.372
				c0.334,0,0.661-0.136,0.898-0.372s0.372-0.564,0.372-0.898C44.005,45.615,43.869,45.287,43.633,45.051z"/>
		</g>
	</g>
	<g>
		<g>
			<path class="st0" d="M99.633,35.051c-0.236-0.237-0.564-0.372-0.898-0.372c-0.334,0-0.661,0.135-0.898,0.372
				c-0.236,0.236-0.372,0.564-0.372,0.898c0,0.334,0.136,0.661,0.372,0.898s0.564,0.372,0.898,0.372
				c0.334,0,0.661-0.136,0.898-0.372s0.372-0.564,0.372-0.898C100.005,35.615,99.869,35.287,99.633,35.051z"/>
		</g>
	</g>
	<g>
		<g>
			<path class="st0" d="M50.633,31.051c-0.236-0.237-0.564-0.372-0.898-0.372c-0.334,0-0.661,0.135-0.898,0.372
				c-0.236,0.236-0.372,0.564-0.372,0.898c0,0.334,0.136,0.661,0.372,0.898c0.236,0.236,0.564,0.372,0.898,0.372
				c0.334,0,0.661-0.136,0.898-0.372s0.372-0.564,0.372-0.898S50.869,31.287,50.633,31.051z"/>
		</g>
	</g>
	<g>
		<g>
			<path class="st0" d="M100.633,61.051c-0.236-0.237-0.564-0.372-0.898-0.372c-0.334,0-0.661,0.135-0.898,0.372
				c-0.236,0.236-0.372,0.564-0.372,0.898c0,0.334,0.136,0.661,0.372,0.898s0.564,0.372,0.898,0.372
				c0.334,0,0.661-0.136,0.898-0.372s0.372-0.564,0.372-0.898C101.005,61.615,100.869,61.287,100.633,61.051z"/>
		</g>
	</g>
	<g>
		<g>
			<g>
				<path class="st3" d="M97.907,68.454c-0.368-0.491-0.992-1.292-1.869-2.322c-1.448-1.7-3.808-4.275-6.829-6.886
					c-4.805-4.155-12.055-9.033-20.314-9.912l6.115-6.115h7.099c0.701,0,1.27-0.568,1.27-1.27c0-0.701-0.568-1.27-1.27-1.27h-7.625
					c-0.337,0-0.66,0.134-0.898,0.372l-8.159,8.159c-8.985,0.322-16.911,5.567-22.041,9.988c-3.041,2.621-5.394,5.19-6.832,6.883
					c-0.893,1.052-1.512,1.856-1.873,2.345c-0.743,1.005-0.883,1.276-0.883,1.705c0,0.45,0.157,0.702,0.889,1.677
					c0.368,0.491,0.992,1.293,1.869,2.322c1.448,1.7,3.808,4.275,6.829,6.886c4.805,4.154,12.053,9.031,20.31,9.911l-6.115,6.115
					H42.237c-0.543-1.762-2.187-3.047-4.125-3.047c-2.38,0-4.316,1.936-4.316,4.316c0,2.38,1.936,4.316,4.316,4.316
					c1.938,0,3.582-1.284,4.125-3.047h15.869c0.337,0,0.66-0.134,0.898-0.372l8.158-8.158c8.987-0.321,16.914-5.566,22.045-9.988
					c3.042-2.621,5.394-5.19,6.832-6.883c0.893-1.052,1.512-1.856,1.873-2.345c0.743-1.005,0.883-1.276,0.883-1.705
					C98.795,69.68,98.638,69.429,97.907,68.454z M38.112,100.09c-0.98,0-1.777-0.797-1.777-1.777c0-0.98,0.797-1.777,1.777-1.777
					c0.98,0,1.777,0.797,1.777,1.777C39.889,99.293,39.092,100.09,38.112,100.09z M87.061,79.558
					c-4.86,4.093-12.408,8.971-20.764,8.971c-8.359,0-15.926-4.921-20.803-9.049c-4.58-3.877-7.796-7.863-8.904-9.364
					c1.072-1.476,4.268-5.476,8.943-9.412c4.86-4.093,12.408-8.972,20.764-8.972c8.359,0,15.926,4.921,20.803,9.049
					c4.58,3.877,7.796,7.863,8.904,9.364C94.931,71.621,91.736,75.621,87.061,79.558z"/>
			</g>
		</g>
		<g>
			<g>
				<path class="st3" d="M78.287,58.141c-6.609-6.609-17.362-6.609-23.972,0c-2.63,2.63-4.291,5.963-4.802,9.638
					c-0.495,3.554,0.166,7.242,1.859,10.385c0.332,0.617,1.102,0.848,1.72,0.516c0.617-0.333,0.848-1.103,0.515-1.72
					c-2.994-5.556-1.964-12.556,2.503-17.023c5.619-5.619,14.762-5.619,20.381,0c5.619,5.619,5.619,14.762,0,20.381
					c-4.467,4.467-11.468,5.497-17.023,2.503c-0.617-0.332-1.387-0.102-1.72,0.515c-0.333,0.617-0.102,1.387,0.515,1.72
					c2.462,1.327,5.259,2.019,8.064,2.019c0.775,0,1.551-0.053,2.321-0.16c3.675-0.511,7.008-2.172,9.638-4.802
					C84.896,75.503,84.896,64.75,78.287,58.141z"/>
			</g>
		</g>
		<g>
			<g>
				<path class="st3" d="M56.112,80.315c-0.496-0.496-1.299-0.496-1.795,0l-0.01,0.01c-0.496,0.496-0.496,1.3,0,1.795
					c0.248,0.248,0.573,0.372,0.898,0.372c0.325,0,0.65-0.124,0.898-0.372l0.01-0.01C56.607,81.615,56.607,80.811,56.112,80.315z"/>
			</g>
		</g>
		<g>
			<g>
				<path class="st3" d="M73.406,68.861c-0.701,0-1.27,0.568-1.27,1.27c0,3.22-2.62,5.84-5.84,5.84c-3.22,0-5.84-2.62-5.84-5.84
					c0-3.22,2.62-5.84,5.84-5.84c0.701,0,1.27-0.568,1.27-1.27c0-0.701-0.568-1.27-1.27-1.27c-4.62,0-8.379,3.759-8.379,8.379
					s3.759,8.379,8.379,8.379s8.379-3.759,8.379-8.379C74.675,69.43,74.107,68.861,73.406,68.861z"/>
			</g>
		</g>
		<g>
			<g>
				<path class="st3" d="M87.633,41.051c-0.236-0.237-0.564-0.372-0.898-0.372c-0.334,0-0.661,0.135-0.898,0.372
					c-0.236,0.236-0.372,0.564-0.372,0.898c0,0.334,0.136,0.661,0.372,0.898s0.564,0.372,0.898,0.372
					c0.334,0,0.661-0.136,0.898-0.372s0.372-0.564,0.372-0.898C88.005,41.615,87.869,41.287,87.633,41.051z"/>
			</g>
		</g>
		<g>
			<g>
				<path class="st2" d="M97.526,90.761h-9.098c-0.701,0-1.27,0.568-1.27,1.27s0.568,1.27,1.27,1.27h9.098
					c0.701,0,1.27-0.568,1.27-1.27S98.227,90.761,97.526,90.761z"/>
			</g>
		</g>
		<g>
			<g>
				<path class="st3" d="M71.502,96.854H67.83c-0.701,0-1.27,0.568-1.27,1.27c0,0.701,0.568,1.27,1.27,1.27h3.672
					c0.701,0,1.27-0.568,1.27-1.27C72.771,97.423,72.203,96.854,71.502,96.854z"/>
			</g>
		</g>
		<g>
			<g>
				<path class="st3" d="M83.181,96.854h-6.347c-0.701,0-1.27,0.568-1.27,1.27c0,0.701,0.568,1.27,1.27,1.27h6.347
					c0.701,0,1.27-0.568,1.27-1.27C84.45,97.423,83.882,96.854,83.181,96.854z"/>
			</g>
		</g>
		<g>
			<g>
				<path class="st3" d="M97.526,96.854h-9.098c-0.701,0-1.27,0.568-1.27,1.27c0,0.701,0.568,1.27,1.27,1.27h9.098
					c0.701,0,1.27-0.568,1.27-1.27C98.795,97.423,98.227,96.854,97.526,96.854z"/>
			</g>
		</g>
		<g>
			<g>
				<path class="st0" d="M48.404,88.665H35.065c-0.701,0-1.27,0.568-1.27,1.27s0.568,1.27,1.27,1.27h13.34
					c0.701,0,1.27-0.568,1.27-1.27S49.106,88.665,48.404,88.665z"/>
			</g>
		</g>
		<g>
			<g>
				<path class="st3" d="M41.923,83.587h-6.858c-0.701,0-1.27,0.568-1.27,1.27s0.568,1.27,1.27,1.27h6.858
					c0.701,0,1.27-0.568,1.27-1.27S42.624,83.587,41.923,83.587z"/>
			</g>
		</g>
		<g>
			<g>
				<path class="st0" d="M80.633,91.051c-0.236-0.237-0.564-0.372-0.898-0.372c-0.334,0-0.661,0.135-0.898,0.372
					c-0.236,0.236-0.372,0.564-0.372,0.898s0.136,0.661,0.372,0.898c0.236,0.236,0.564,0.372,0.898,0.372
					c0.334,0,0.661-0.136,0.898-0.372c0.236-0.236,0.372-0.564,0.372-0.898C81.005,91.615,80.869,91.287,80.633,91.051z"/>
			</g>
		</g>
	</g>
</g>
</svg>