<!-- Generator: Adobe Illustrator 23.0.3, SVG Export Plug-In  -->
<svg version="1.1" xmlns="http://www.w3.org/2000/svg" xmlns:xlink="http://www.w3.org/1999/xlink" x="0px" y="0px"
	 width="132.261px" height="132.261px" viewBox="0 0 132.261 132.261" style="enable-background:new 0 0 132.261 132.261;"
	 xml:space="preserve">
<style type="text/css">
	.st0{fill:#3DDC97;}
	.st1{fill:#5941A9;}
	.st2{fill:#FFFFFF;}
	.st3{fill:#7A67BA;}
</style>
<defs>
</defs>
<g>
	<path class="st0" d="M66.131,2.419c35.187,0,63.711,28.524,63.711,63.711c0,35.187-28.525,63.711-63.711,63.711
		c-35.187,0-63.711-28.525-63.711-63.711C2.419,30.944,30.944,2.419,66.131,2.419 M66.131,0C29.666,0,0,29.666,0,66.131
		s29.666,66.131,66.131,66.131s66.131-29.666,66.131-66.131S102.595,0,66.131,0L66.131,0z"/>
	<circle class="st1" cx="66.131" cy="66.131" r="58.47"/>
	<g>
		<path class="st2" d="M43.776,37.598L43.776,37.598c0.686,0,1.242,0.556,1.242,1.242v0c0,0.686-0.556,1.242-1.242,1.242l0,0
			c-0.686,0-1.242-0.556-1.242-1.242v0C42.534,38.154,43.09,37.598,43.776,37.598z"/>
		<path class="st0" d="M48.744,37.598L48.744,37.598c0.686,0,1.242,0.556,1.242,1.242v0c0,0.686-0.556,1.242-1.242,1.242l0,0
			c-0.686,0-1.242-0.556-1.242-1.242v0C47.502,38.154,48.058,37.598,48.744,37.598z"/>
		<path class="st2" d="M53.711,37.598L53.711,37.598c0.686,0,1.242,0.556,1.242,1.242v0c0,0.686-0.556,1.242-1.242,1.242h0
			c-0.686,0-1.242-0.556-1.242-1.242v0C52.469,38.154,53.025,37.598,53.711,37.598z"/>
		<path class="st2" d="M58.679,37.598h29.806c0.686,0,1.242,0.556,1.242,1.242v0c0,0.686-0.556,1.242-1.242,1.242H58.679
			c-0.686,0-1.242-0.556-1.242-1.242v0C57.437,38.154,57.993,37.598,58.679,37.598z"/>
		<path class="st0" d="M64.889,78.582h2.484v6.21h-2.484V78.582z"/>
		<path class="st2" d="M69.856,73.614h2.484v11.177h-2.484V73.614z"/>
		<path class="st0" d="M74.824,68.647h2.484v16.145h-2.484V68.647z"/>
		<path class="st2" d="M79.792,76.098h2.484v8.694h-2.484V76.098z"/>
		<path class="st0" d="M84.76,63.679h2.484v21.113H84.76V63.679z"/>
		<path class="st0" d="M82.986,57.371c-1.382,0-2.01-1.266-2.468-2.191c-0.288-0.581-0.614-1.238-0.933-1.238
			c-0.316,0-0.642,0.658-0.929,1.238c-0.458,0.925-1.085,2.191-2.466,2.191c-1.38,0-2.007-1.267-2.465-2.192
			c-0.287-0.58-0.612-1.237-0.928-1.237c-0.316,0-0.641,0.658-0.928,1.237c-0.458,0.925-1.085,2.192-2.465,2.192
			c-1.381,0-2.008-1.267-2.466-2.192c-0.287-0.58-0.612-1.237-0.928-1.237s-0.642,0.658-0.929,1.238
			c-0.458,0.925-1.085,2.191-2.465,2.191c-1.381,0-2.008-1.267-2.466-2.192c-0.287-0.58-0.612-1.237-0.928-1.237
			c-0.316,0-0.641,0.658-0.928,1.238c-0.458,0.925-1.084,2.191-2.464,2.191s-2.007-1.267-2.464-2.192
			c-0.287-0.58-0.612-1.237-0.928-1.237s-0.64,0.657-0.928,1.237c-0.458,0.925-1.085,2.192-2.465,2.192
			c-1.38,0-2.007-1.267-2.464-2.192c-0.286-0.58-0.612-1.237-0.927-1.237c-0.474,0-0.857-0.384-0.857-0.857
			c0-0.473,0.383-0.857,0.857-0.857c1.38,0,2.007,1.267,2.464,2.192c0.286,0.58,0.612,1.237,0.927,1.237
			c0.316,0,0.641-0.658,0.928-1.238c0.458-0.925,1.084-2.191,2.464-2.191s2.007,1.267,2.464,2.192
			c0.287,0.58,0.612,1.237,0.928,1.237s0.64-0.657,0.928-1.237c0.458-0.925,1.085-2.192,2.465-2.192s2.007,1.267,2.465,2.191
			c0.287,0.58,0.613,1.238,0.929,1.238c0.316,0,0.641-0.657,0.928-1.237c0.458-0.925,1.085-2.192,2.466-2.192
			c1.38,0,2.007,1.267,2.465,2.191c0.287,0.58,0.613,1.238,0.929,1.238s0.641-0.658,0.928-1.237
			c0.458-0.925,1.085-2.192,2.465-2.192c1.38,0,2.007,1.267,2.465,2.192c0.287,0.58,0.612,1.237,0.928,1.237
			s0.642-0.658,0.929-1.238c0.458-0.925,1.085-2.191,2.466-2.191c1.382,0,2.01,1.266,2.468,2.191
			c0.288,0.581,0.614,1.238,0.933,1.238s0.645-0.658,0.933-1.238c0.458-0.925,1.086-2.191,2.468-2.191
			c0.474,0,0.857,0.384,0.857,0.857c0,0.473-0.383,0.857-0.857,0.857c-0.318,0-0.645,0.658-0.933,1.238
			C84.996,56.104,84.368,57.371,82.986,57.371z"/>
		<path class="st0" d="M45.484,70.877l6.858,4.286h8.572c0,0-1.714,9.429-9.429,8.572s-7.715-10.286-7.715-10.286L45.484,70.877z"/>
		<path class="st2" d="M52.469,64.921c-5.478,0-9.935,4.457-9.935,9.935s4.457,9.935,9.935,9.935s9.935-4.457,9.935-9.935
			S57.948,64.921,52.469,64.921z M59.809,73.614h-6.098v-6.098C56.825,68.043,59.282,70.501,59.809,73.614z M51.227,67.516v5.019
			l-4.174-2.782C48.144,68.598,49.594,67.792,51.227,67.516z M52.469,82.308c-4.11,0-7.452-3.342-7.452-7.452
			c0-1.083,0.237-2.11,0.654-3.039l6.108,4.072l0.013-0.019c0.197,0.132,0.421,0.227,0.677,0.227h7.34
			C59.214,79.617,56.154,82.308,52.469,82.308z"/>
		<polygon class="st3" points="57.437,93.164 57.437,99.404 51.069,101.975 47.64,107.119 48.498,108.833 84.5,108.833 
			83.643,104.547 80.214,101.118 75.071,101.118 75.071,93.164 		"/>
		<path class="st2" d="M100.905,50.018h-6.21V33.873c0-0.685-0.555-1.242-1.242-1.242H38.808c-0.687,0-1.242,0.557-1.242,1.242
			v16.145h-6.21c-2.054,0-3.726,1.672-3.726,3.726v37.258c0,2.054,1.672,3.726,3.726,3.726h24.839v4.968h-1.242
			c-4.792,0-8.694,3.901-8.694,8.694c0,0.687,0.555,1.242,1.242,1.242H84.76c0.687,0,1.242-0.555,1.242-1.242
			c0-4.792-3.901-8.694-8.694-8.694h-1.242v-4.968h24.839c2.054,0,3.726-1.672,3.726-3.726V53.744
			C104.631,51.69,102.959,50.018,100.905,50.018z M40.05,45.05h52.161v42.226H40.05V45.05z M92.211,35.114v7.452H40.05v-7.452
			H92.211z M83.392,107.147H48.869c0.577-2.83,3.085-4.968,6.084-4.968h22.355C80.307,102.179,82.816,104.317,83.392,107.147z
			 M73.582,99.695H58.679v-4.968h14.903V99.695z M102.147,91.002c0,0.685-0.557,1.242-1.242,1.242H31.356
			c-0.685,0-1.242-0.557-1.242-1.242V53.744c0-0.684,0.557-1.242,1.242-1.242h6.21v36.016c0,0.687,0.555,1.242,1.242,1.242h54.645
			c0.687,0,1.242-0.555,1.242-1.242V52.502h6.21c0.685,0,1.242,0.558,1.242,1.242V91.002z"/>
	</g>
</g>
</svg>