<!-- Generator: Adobe Illustrator 23.0.3, SVG Export Plug-In  -->
<svg version="1.1" xmlns="http://www.w3.org/2000/svg" xmlns:xlink="http://www.w3.org/1999/xlink" x="0px" y="0px"
	 width="319.623px" height="35.263px" viewBox="0 0 319.623 35.263" style="enable-background:new 0 0 319.623 35.263;"
	 xml:space="preserve">
<style type="text/css">
	.st0{fill:#FFFFFF;}
</style>
<defs>
</defs>
<g>
	<polygon class="st0" points="180.923,7.988 187.145,7.988 187.145,10.859 184.654,10.859 184.654,13.581 186.985,13.581 
		186.985,16.311 184.654,16.311 184.654,19.467 187.393,19.467 187.393,22.339 180.923,22.339 	"/>
	<path class="st0" d="M196.372,12.331h-3.465v-1.064c0-0.496-0.044-0.812-0.132-0.948c-0.089-0.136-0.237-0.203-0.443-0.203
		c-0.225,0-0.396,0.091-0.51,0.274c-0.116,0.183-0.173,0.461-0.173,0.834c0,0.48,0.065,0.84,0.194,1.082
		c0.124,0.242,0.475,0.535,1.055,0.878c1.66,0.986,2.707,1.795,3.138,2.428c0.432,0.632,0.647,1.652,0.647,3.057
		c0,1.022-0.119,1.777-0.359,2.261c-0.239,0.485-0.702,0.891-1.387,1.219c-0.686,0.328-1.484,0.492-2.394,0.492
		c-0.999,0-1.851-0.19-2.558-0.567c-0.706-0.377-1.169-0.86-1.387-1.445c-0.219-0.585-0.328-1.416-0.328-2.491v-0.94h3.466v1.747
		c0,0.538,0.049,0.883,0.146,1.037c0.098,0.153,0.271,0.23,0.519,0.23c0.248,0,0.433-0.098,0.554-0.293
		c0.121-0.195,0.182-0.485,0.182-0.87c0-0.845-0.115-1.397-0.345-1.657c-0.236-0.26-0.819-0.694-1.746-1.304
		c-0.928-0.614-1.543-1.06-1.844-1.337c-0.301-0.278-0.551-0.663-0.749-1.153c-0.198-0.49-0.297-1.117-0.297-1.879
		c0-1.098,0.14-1.902,0.421-2.41c0.281-0.509,0.734-0.905,1.361-1.193c0.626-0.287,1.383-0.429,2.269-0.429
		c0.969,0,1.795,0.157,2.477,0.469c0.683,0.313,1.134,0.708,1.356,1.184c0.222,0.475,0.332,1.283,0.332,2.424V12.331z"/>
	<path class="st0" d="M206.565,14.237h-3.731v-2.495c0-0.725-0.04-1.177-0.119-1.357c-0.08-0.18-0.256-0.27-0.528-0.27
		c-0.307,0-0.502,0.11-0.585,0.328c-0.082,0.219-0.124,0.692-0.124,1.418v6.666c0,0.698,0.042,1.152,0.124,1.366
		c0.083,0.213,0.269,0.319,0.559,0.319c0.278,0,0.459-0.106,0.545-0.32c0.086-0.213,0.128-0.714,0.128-1.502v-1.803h3.731v0.559
		c0,1.485-0.105,2.539-0.314,3.16c-0.21,0.622-0.673,1.166-1.392,1.633c-0.718,0.467-1.602,0.701-2.654,0.701
		c-1.094,0-1.995-0.198-2.704-0.594c-0.709-0.396-1.179-0.944-1.409-1.645c-0.23-0.701-0.345-1.753-0.345-3.16v-4.193
		c0-1.034,0.035-1.809,0.106-2.326c0.071-0.518,0.282-1.015,0.634-1.494c0.351-0.478,0.838-0.855,1.462-1.13
		c0.623-0.275,1.339-0.412,2.15-0.412c1.099,0,2.007,0.212,2.722,0.637c0.714,0.425,1.184,0.955,1.408,1.588
		c0.224,0.635,0.337,1.621,0.337,2.961V14.237z"/>
	<path class="st0" d="M216.386,7.988v9.591c0,1.087-0.036,1.851-0.107,2.291c-0.07,0.44-0.28,0.892-0.628,1.356
		c-0.35,0.464-0.809,0.815-1.379,1.054c-0.57,0.24-1.242,0.359-2.017,0.359c-0.857,0-1.614-0.142-2.269-0.425
		c-0.656-0.284-1.146-0.654-1.472-1.108c-0.326-0.455-0.518-0.936-0.576-1.441c-0.06-0.506-0.089-1.568-0.089-3.186V7.988h3.732
		v10.76c0,0.627,0.034,1.027,0.101,1.201c0.068,0.175,0.206,0.262,0.413,0.262c0.236,0,0.388-0.096,0.456-0.288
		c0.068-0.193,0.102-0.646,0.102-1.361V7.988H216.386z"/>
	<polygon class="st0" points="217.832,7.988 224.054,7.988 224.054,10.859 221.563,10.859 221.563,13.581 223.894,13.581 
		223.894,16.311 221.563,16.311 221.563,19.467 224.302,19.467 224.302,22.339 217.832,22.339 	"/>
	<polygon class="st0" points="229.107,7.988 229.107,19.467 231.375,19.467 231.375,22.339 225.375,22.339 225.375,7.988 	"/>
	<path class="st0" d="M239.182,7.988l2.135,14.351h-3.814l-0.201-2.58h-1.335l-0.224,2.58h-3.858l1.904-14.351H239.182z
		 M237.204,17.215c-0.189-1.626-0.378-3.635-0.568-6.028c-0.38,2.748-0.619,4.757-0.716,6.028H237.204z"/>
	<path class="st0" d="M245.721,8.289h2.792c1.802,0,3.021,0.083,3.656,0.248c0.635,0.165,1.118,0.437,1.449,0.815
		c0.331,0.378,0.538,0.799,0.621,1.263c0.082,0.464,0.124,1.376,0.124,2.735v5.026c0,1.287-0.061,2.149-0.182,2.584
		c-0.121,0.434-0.332,0.774-0.634,1.019c-0.301,0.246-0.673,0.417-1.117,0.514c-0.443,0.098-1.111,0.146-2.003,0.146h-4.707V8.289z
		 M249.454,10.744v9.442c0.538,0,0.868-0.108,0.993-0.325c0.124-0.216,0.186-0.802,0.186-1.759v-5.575
		c0-0.65-0.021-1.067-0.062-1.25c-0.042-0.184-0.136-0.318-0.284-0.404C250.138,10.787,249.861,10.744,249.454,10.744"/>
	<polygon class="st0" points="255.755,8.289 261.978,8.289 261.978,11.161 259.487,11.161 259.487,13.882 261.818,13.882 
		261.818,16.613 259.487,16.613 259.487,19.768 262.226,19.768 262.226,22.64 255.755,22.64 	"/>
	<path class="st0" d="M267.038,7.988h2.792c1.802,0,3.021,0.082,3.656,0.248c0.635,0.165,1.118,0.438,1.449,0.815
		c0.331,0.378,0.538,0.8,0.62,1.264c0.083,0.463,0.125,1.376,0.125,2.735v5.025c0,1.288-0.061,2.15-0.182,2.584
		c-0.121,0.434-0.332,0.774-0.634,1.019c-0.301,0.246-0.674,0.417-1.117,0.514c-0.443,0.098-1.111,0.146-2.002,0.146h-4.707V7.988z
		 M270.769,10.443v9.441c0.538,0,0.869-0.109,0.993-0.324c0.125-0.216,0.186-0.802,0.186-1.759v-5.576
		c0-0.65-0.021-1.066-0.061-1.249c-0.042-0.184-0.137-0.319-0.284-0.403C271.455,10.486,271.177,10.443,270.769,10.443"/>
	<path class="st0" d="M283.522,7.988l2.134,14.351h-3.813l-0.201-2.58h-1.335l-0.224,2.58h-3.858l1.904-14.351H283.522z
		 M281.544,17.215c-0.189-1.626-0.379-3.634-0.568-6.028c-0.38,2.748-0.619,4.757-0.716,6.028H281.544z"/>
	<polygon class="st0" points="292.805,7.988 292.805,10.859 290.588,10.859 290.588,22.339 286.858,22.339 286.858,10.859 
		284.65,10.859 284.65,7.988 	"/>
	<path class="st0" d="M302.182,16.39c0,1.442-0.034,2.464-0.102,3.063c-0.068,0.6-0.28,1.148-0.638,1.644
		c-0.357,0.497-0.841,0.878-1.449,1.144c-0.609,0.267-1.318,0.399-2.127,0.399c-0.769,0-1.459-0.126-2.07-0.377
		c-0.612-0.251-1.104-0.628-1.476-1.13c-0.372-0.501-0.594-1.048-0.665-1.64c-0.071-0.59-0.106-1.625-0.106-3.102v-2.455
		c0-1.441,0.034-2.463,0.102-3.062c0.068-0.6,0.28-1.148,0.638-1.644c0.357-0.497,0.841-0.878,1.449-1.143
		c0.609-0.267,1.318-0.399,2.128-0.399c0.768,0,1.458,0.126,2.069,0.376c0.612,0.252,1.105,0.628,1.477,1.131
		c0.371,0.502,0.593,1.048,0.664,1.639c0.071,0.591,0.106,1.626,0.106,3.102V16.39z M298.452,11.675c0-0.667-0.037-1.094-0.111-1.28
		c-0.074-0.186-0.227-0.28-0.457-0.28c-0.195,0-0.345,0.075-0.448,0.227c-0.103,0.15-0.155,0.595-0.155,1.333v6.701
		c0,0.834,0.034,1.348,0.102,1.543c0.068,0.195,0.225,0.293,0.474,0.293c0.254,0,0.417-0.113,0.488-0.337
		c0.071-0.226,0.106-0.76,0.106-1.605V11.675z"/>
	<path class="st0" d="M311.481,12.331h-3.466v-1.064c0-0.496-0.043-0.812-0.132-0.948c-0.088-0.136-0.236-0.203-0.443-0.203
		c-0.225,0-0.395,0.091-0.511,0.274c-0.114,0.183-0.172,0.461-0.172,0.834c0,0.48,0.065,0.84,0.195,1.082
		c0.124,0.242,0.475,0.535,1.054,0.878c1.661,0.986,2.707,1.795,3.139,2.428c0.431,0.632,0.647,1.652,0.647,3.057
		c0,1.022-0.12,1.777-0.359,2.261c-0.239,0.485-0.701,0.891-1.387,1.219c-0.686,0.328-1.483,0.492-2.393,0.492
		c-0.999,0-1.852-0.19-2.557-0.567c-0.706-0.377-1.169-0.86-1.388-1.445c-0.219-0.585-0.328-1.416-0.328-2.491v-0.94h3.466v1.747
		c0,0.538,0.048,0.883,0.146,1.037c0.097,0.153,0.27,0.23,0.518,0.23c0.248,0,0.432-0.098,0.553-0.293
		c0.121-0.195,0.183-0.485,0.183-0.87c0-0.845-0.115-1.397-0.345-1.657c-0.237-0.26-0.819-0.695-1.747-1.304
		c-0.928-0.614-1.543-1.06-1.844-1.337c-0.302-0.278-0.551-0.663-0.749-1.153c-0.198-0.49-0.297-1.117-0.297-1.879
		c0-1.098,0.14-1.902,0.422-2.411c0.28-0.507,0.734-0.905,1.36-1.192c0.626-0.287,1.383-0.429,2.27-0.429
		c0.969,0,1.794,0.157,2.477,0.469c0.682,0.313,1.135,0.708,1.356,1.183c0.222,0.476,0.332,1.284,0.332,2.425V12.331z"/>
	<line class="st0" x1="174.23" y1="6.29" x2="174.23" y2="34.423"/>
	<path class="st0" d="M174.424,6.358c-0.023-0.103-0.092,0.055-0.041-0.068L174.424,6.358z"/>
	<path class="st0" d="M174.365,34.08c-0.275-0.332,0.003-0.77-0.173-1.134l0.115-0.086c-0.214-0.353-0.087-0.909,0.079-1.339
		l0.042,0.026l-0.091-0.268l0.08,0.008l-0.103-0.193l0.138-0.075l-0.097-0.05c-0.23-0.139,0.016-0.335-0.102-0.524l0.061,0.013
		c-0.141-0.302-0.114-0.681-0.165-1.019l0.134,0.006l-0.147-0.212l-0.038-0.261l0.023,0.009c-0.11-0.079,0.064-0.116-0.068-0.18
		l0.083-0.05c-0.149-0.034,0.076-0.113,0.001-0.178l-0.03,0.002l0.014-0.15l0.016-0.005c-0.038-0.132,0.044-0.21-0.072-0.207
		c0.093-0.047,0.042,0.129,0.177,0.055c-0.119-0.437-0.096-0.889-0.098-1.329l0.104-0.093l-0.08-0.206l0.065-0.052l-0.075-0.176
		l0.112,0.036l-0.106-0.264l0.068,0.032l-0.043-0.262l0.068,0.032c0.08-0.137-0.14-0.041-0.092-0.159l0.074,0.024
		c-0.122-0.11-0.081-0.289-0.123-0.399l0.028,0.004c-0.016-0.119,0.022-0.245-0.03-0.377c0.029-0.048,0.164,0.016,0.138-0.111
		c-0.133,0.004-0.055-0.216-0.206-0.141c0.022-0.108,0.072-0.28,0.027-0.352l0.175,0.037l0.081-0.068l0.05,0.048l-0.036-0.217
		c-0.082-0.084-0.235-0.161-0.252-0.297l0.17,0.008l-0.256-0.19l0.071-0.075l-0.087-0.044c0.016-0.017-0.034-0.188,0.099-0.207
		l0.075,0.023l-0.049-0.171l0.017-0.002l-0.128-0.102l0.04,0.042l-0.099-0.219l0.094,0.036c-0.103-0.112-0.137-0.231-0.18-0.356
		l0.081,0.065c0.087-0.16-0.124-0.331,0.004-0.464l-0.072,0.01l0.065-0.124l-0.034-0.115l0.032,0.031
		c-0.045-0.072-0.126-0.36-0.049-0.527l-0.125-0.14l0.081,0.015l0.064-0.135c-0.1-0.081,0.085,0.316,0.008,0.205
		c0.069-0.029-0.132-0.155-0.019-0.131l-0.019-0.225h0.109c-0.015-0.109-0.04-0.03-0.068-0.119l-0.034-0.055l-0.079-0.057
		c0.067-0.014-0.041-0.159,0.093-0.148l0.106,0.016l-0.158-0.115l0.048-0.016c-0.161-0.008,0.014-0.113-0.111-0.169l0.106-0.3
		l-0.073-0.233l0.055,0.047l-0.021-0.119l0.151-0.17l-0.188-0.057c0.159-0.069-0.102-0.214,0.042-0.301l0.118,0.048
		c0.158-0.069-0.116-0.14-0.041-0.252l-0.132,0.027c0.081-0.049-0.076-0.164,0.058-0.152c-0.048-0.037,0.043-0.132-0.085-0.119
		c0.108-0.183-0.066-0.446,0.164-0.559l-0.066-0.078l0.003,0.077l-0.056-0.031l0.145-0.048c0.079-0.126-0.218-0.131-0.168-0.292
		l0.064-0.053l-0.091-0.089l0.211-0.062l-0.079-0.149l0.113-0.068l-0.076-0.072l0.022,0.026l0.004-0.107l-0.094,0.11l-0.077-0.111
		l0.072-0.135l-0.076-0.073l0.072-0.043l-0.003,0.068l0.055-0.1l-0.119-0.086l0.088,0.051l0.046-0.093l-0.08-0.004l0.037-0.01
		l-0.121-0.164l0.065-0.144l0.007,0.009l-0.038-0.173l0.018,0.002l-0.054-0.139l0.203-0.109l-0.199-0.089
		c0.055-0.138-0.077-0.295,0.048-0.422l-0.072-0.048c0.032-0.203-0.095-0.428,0.063-0.589l0.126,0.003
		c-0.073-0.048,0.074-0.058-0.049-0.075l-0.137,0.057c-0.039-0.12-0.039-0.305,0.029-0.371l-0.078-0.019
		c0.116,0.009,0.133-0.08,0.093-0.148l-0.071-0.01l0.073-0.044l-0.081-0.095l0.076-0.02l-0.096-0.243l0.103-0.063l-0.103-0.029
		c0.061-0.13,0.07-0.213,0.158-0.254c-0.216-0.222-0.225-0.546-0.21-0.805l0.054,0.009l-0.055-0.085l0.171,0.001l-0.115-0.192
		l-0.044,0.04l-0.051-0.153l0.162,0.008l-0.051-0.061c0.122-0.074,0.219,0.169,0.37,0.091l-0.016-0.055
		c0.11-0.054,0.124,0.148,0.162,0.007l-0.251-0.059c-0.029-0.126-0.25-0.059-0.242-0.196l0.101,0.084l-0.018-0.187l-0.164-0.031
		l0.11-0.053l-0.148-0.029c-0.138-0.035,0.038-0.102-0.068-0.156l0.272-0.007c-0.094,0.017-0.126-0.133-0.265-0.076l0.158-0.016
		c0.057-0.061-0.171-0.147,0.015-0.167l-0.096-0.021l0.106-0.077c0.002-0.053-0.129-0.172,0.015-0.167l-0.107-0.092
		c-0.061,0.076,0.072,0.087-0.062,0.13c0.11-0.054-0.015-0.11-0.051-0.153l0.055-0.008l-0.07-0.102l0.084-0.01l-0.085-0.028
		l0.124-0.128l0.066,0.079l0.04-0.102l-0.23-0.071l0.007-0.083l0.093,0.074l0.126-0.128l-0.181-0.048l0.102-0.062l-0.131-0.064
		l0.2-0.187l0.129,0.08l0.002-0.053c0.103,0.068,0.078-0.035,0.188,0.004l-0.049-0.114c-0.175,0.106-0.239-0.119-0.398-0.088
		c-0.044-0.144,0.389-0.09,0.139-0.241l-0.117,0.045l-0.094-0.167c0.066,0.079,0.162-0.084,0.257,0.029l-0.026,0.081l0.161-0.084
		l-0.101-0.122l-0.082,0.049c-0.032-0.112,0.107-0.131-0.055-0.177l-0.144,0.087l-0.038-0.081l0.061,0.016
		c0.043-0.132-0.11-0.039-0.093-0.166l0.119-0.06c0.104,0.03-0.046,0.185,0.123,0.163l-0.035-0.189l0.034,0.058
		c0.005-0.029,0.228-0.059,0.098-0.177l-0.123-0.017c-0.019-0.133-0.083-0.173-0.093-0.259c0.123,0.018,0.012-0.151,0.138-0.056
		c-0.072,0.043-0.065,0.235,0.052,0.283c0.145-0.048-0.02,0.104,0.127,0.133l0.241-0.119l-0.048-0.076l-0.178,0.029
		c0.024-0.119-0.025-0.235-0.112-0.3l0.141,0.02c-0.027-0.142-0.015-0.293,0.012-0.428c-0.144,0.087-0.033-0.151-0.153-0.091
		l-0.2,0.094l0.093-0.017c-0.078-0.058,0.126-0.089,0.003-0.145c0.047,0.129,0.176,0.024,0.288,0.048l0.08-0.088l-0.137-0.311
		c0.107-0.13,0.002-0.329-0.002-0.445l0.207-0.086c-0.003-0.077-0.138,0.058-0.08-0.057l0.025,0.011
		c-0.029-0.035,0.087-0.21-0.096-0.243l0.138,0.036l-0.034-0.059l0.116,0.009l-0.019-0.224l-0.081,0.048
		c-0.065-0.131,0.016-0.219-0.012-0.346l0.08,0.004l-0.048-0.076l0.063-0.091l0.196,0.197l-0.176-0.025l0.03,0.165l-0.038-0.082
		c0.112-0.014,0.107,0.054,0.182,0.087l-0.006-0.061l0.066,0.17l-0.101,0.009l0.101,0.176c-0.113,0.068,0.073,0.179,0.042,0.289
		l-0.219-0.169l-0.047,0.147l0.232,0.147l-0.074,0.005l0.126,0.186c-0.035,0.179-0.035,0.364-0.045,0.499l-0.073,0.005
		c0.157,0.076,0.058,0.254,0.126,0.356c-0.07,0.174,0.07,0.377-0.056,0.467c0.056,0.307,0.112,0.576,0.085,0.893l-0.106-0.054
		l-0.045,0.094l0.175,0.117c-0.082,0.142,0.009,0.324,0.083,0.449l-0.074,0.004c0.138,0.127,0.016,0.279-0.006,0.437l-0.091,0.093
		c0.119,0.086,0.11,0.131,0.184,0.256l-0.076,0.334c0.167,0.346,0.061,0.699,0.161,1.058l-0.087,0.026
		c0.184,0.348,0.017,0.776,0.112,1.073l-0.147-0.029l0.143,0.189c-0.045,0.094,0.071,0.233-0.05,0.293l0.088,0.197
		c-0.055,0.19-0.042,0.261-0.016,0.442l0.01-0.045l-0.105,0.023c0.042,0.067-0.04,0.248,0.137,0.18
		c-0.102,0.192,0.082,0.449-0.055,0.636l0.089,0.051c0.003,0.169-0.096,0.346-0.014,0.481l-0.087,0.026l0.089,0.051
		c0.09,0.274-0.092,0.554-0.069,0.802c0.093,0.441,0.046,0.903,0.061,1.327l-0.035-0.005c0.134,0.142-0.139,0.333,0.064,0.446
		l-0.083,0.104c0.094,0.113-0.09,0.316,0.03,0.48l-0.019-0.042c-0.077,0.165,0.029,0.311-0.042,0.485l-0.061-0.055
		c-0.068,0.067,0.148,0.159-0.022,0.196l0.08,0.004c-0.067,0.381,0.042,0.788,0.081,1.184c-0.101,0.285-0.286,0.018-0.158,0.242
		l0.029,0.016l-0.1,0.196l0.122,0.042c-0.068,0.174-0.162,0.209-0.082,0.346l-0.055-0.01c0.155,0.16,0.072,0.347,0.251,0.483
		c0.033,0.886,0.132,1.736,0.153,2.601c-0.035,0.854,0.046,1.691-0.049,2.559c-0.145,0.203-0.14,0.218-0.082,0.441l-0.05-0.008
		c0.118,0.01,0.011,0.157,0.124,0.178c-0.022,0.321,0.01,0.616,0.011,0.947l-0.101-0.016l0.075,0.064l-0.033,0.011l0.114,0.044
		c0.102,0.829-0.135,1.646-0.106,2.458c-0.049,0.193-0.004,0.467,0.02,0.677c-0.158,0.622-0.285,1.181-0.175,1.812
		C174.741,34.423,174.436,34.341,174.365,34.08"/>
	<path class="st0" d="M174.436,6.482l-0.17,0.037L174.436,6.482z"/>
	<polygon class="st0" points="173.827,8.41 173.793,8.444 173.77,8.379 	"/>
	<path class="st0" d="M173.792,8.904l-0.101-0.175L173.792,8.904z"/>
	<path class="st0" d="M173.575,9.363l-0.067-0.025L173.575,9.363z"/>
	<path class="st0" d="M173.695,9.395l-0.06,0.076L173.695,9.395z"/>
	<path class="st0" d="M173.541,10.394l-0.01,0.098L173.541,10.394z"/>
	<polygon class="st0" points="173.621,10.857 173.623,10.896 173.555,10.871 	"/>
	<polygon class="st0" points="173.833,19.296 173.807,19.246 173.859,19.253 	"/>
	<path class="st0" d="M173.836,22.994l-0.057,0.043L173.836,22.994z"/>
	<polygon class="st0" points="174.099,24.988 174.097,24.973 174.205,24.978 	"/>
	<path class="st0" d="M169.935,7.379l0.019,0.049L169.935,7.379z"/>
	<path class="st0" d="M178.354,7.289c-0.313,0.068-0.258-0.28-0.509-0.292l0.055-0.109c-0.275,0.018-0.37-0.269-0.394-0.538
		l0.04-0.02l-0.157-0.035l0.061-0.051h-0.141l0.076-0.121l-0.088,0.048c-0.215,0.108-0.101-0.132-0.252-0.119l0.049-0.037
		c-0.204-0.014-0.312-0.168-0.465-0.255l0.101-0.09l-0.179,0.024l-0.116-0.068l0.02-0.013c-0.107,0.047,0.007-0.086-0.111-0.018
		l0.043-0.074c-0.12,0.089,0.017-0.093-0.06-0.065l-0.021,0.021l-0.041-0.063l0.01-0.013l-0.123-0.026
		c0.052-0.081,0.074,0.017,0.149-0.101c-0.235-0.076-0.37-0.255-0.52-0.413l0.045-0.105l-0.128-0.019l0.029-0.063l-0.114-0.011
		l0.093-0.064l-0.166-0.023l0.061-0.035l-0.12-0.065l0.06-0.034l-0.12,0.005l0.061-0.042c-0.126,0.043-0.156-0.049-0.223-0.061
		l0.022-0.017l-0.15-0.116l0.064-0.134c-0.097,0.093-0.113-0.04-0.199,0.091l-0.099-0.146l0.14-0.106l0.036-0.08l0.054-0.016
		l-0.1-0.054l-0.284,0.065l0.126-0.113l-0.251,0.106l0.026-0.074l-0.078,0.042l0.003-0.143l0.062-0.042l-0.094-0.028l0.013-0.013
		l-0.129,0.051l0.044-0.012l-0.146-0.011l0.08-0.051c-0.113,0.03-0.177,0.01-0.251-0.005l0.08-0.032
		c0.01-0.118-0.202-0.036-0.153-0.171l-0.049,0.053l0.006-0.089l-0.063-0.019l0.034-0.01c-0.057,0.004-0.215-0.043-0.214-0.157
		l-0.139,0.035l0.066-0.05l0.001-0.092l0.074,0.068l-0.058-0.034l-0.089-0.068l0.08-0.074l-0.09,0.003l-0.043,0.003l-0.077,0.033
		l0.018-0.116l0.082-0.067l-0.154,0.066l0.029-0.038c-0.12,0.107-0.029-0.05-0.138,0.014l-0.024-0.18l-0.132-0.035l0.055-0.021
		l-0.055-0.029l0.053-0.164l-0.156,0.107c0.093-0.133-0.147-0.007-0.071-0.137l0.101-0.063c0.093-0.133-0.132,0.029-0.114-0.062
		l-0.087,0.1l-0.017-0.041l0.672-0.08l-0.054,0.009c0.032,0.039-0.07,0.036,0.044,0.093c-0.139,0.026-0.051,0.224-0.279,0.16
		l0.037,0.066l0.017-0.035l0.042,0.042l-0.138-0.051l0.074,0.209l-0.069-0.009l0.058,0.083l-0.198-0.077l0.031,0.103l-0.114-0.027
		l0.048,0.069l-0.013-0.022l-0.029,0.044h0.109l0.04,0.086l-0.095,0.023l0.048,0.068l-0.073-0.016l0.02-0.028l-0.073,0.015
		l0.082,0.095l-0.065-0.065l-0.062,0.017l0.069,0.042l-0.035-0.015l0.066,0.13l-0.092,0.03l-0.003-0.008l-0.01,0.094l-0.015-0.01
		l0.013,0.087l-0.203-0.054l0.151,0.137c-0.081,0.033-0.004,0.164-0.145,0.158l0.051,0.056c-0.077,0.071-0.022,0.23-0.198,0.222
		l-0.109-0.064l0.023,0.056l0.134,0.043l-0.116,0.146l0.063,0.046l-0.117,0.018l0.06,0.039l-0.074-0.017l0.047,0.081l-0.071-0.029
		l0.025,0.152l-0.105-0.024l0.081,0.063l-0.199,0.031c0.135,0.203,0.063,0.346-0.013,0.449l-0.043-0.029l0.027,0.063l-0.148-0.085
		l0.054,0.14l0.048,0.004l0.007,0.091l-0.139-0.083l0.029,0.052c-0.125-0.029-0.149-0.181-0.3-0.222v0.032
		c-0.109-0.031-0.072-0.125-0.139-0.083l0.203,0.149l0.163,0.203l-0.068-0.086l-0.03,0.089l0.136,0.094L171.939,5.2l0.123,0.085
		c0.111,0.084-0.058,0.026,0.022,0.101l-0.239-0.131c0.086,0.038,0.078,0.119,0.212,0.163l-0.14-0.07
		c-0.065-0.003,0.112,0.146-0.054,0.064l0.078,0.055l-0.111-0.019c-0.015,0.023,0.07,0.138-0.054,0.065l0.071,0.093
		c0.072-0.003-0.042-0.073,0.086-0.025c-0.108-0.031-0.014,0.054,0.007,0.091l-0.049-0.024l0.035,0.078l-0.075-0.036l0.067,0.054
		l-0.139-0.006l-0.038-0.066l-0.059,0.024l0.183,0.144l-0.027,0.033l-0.063-0.078l-0.139-0.008l0.145,0.11l-0.105-0.023l0.099,0.093
		l-0.22-0.018l-0.093-0.098l-0.014,0.022l-0.164-0.094L171.3,5.85c0.177,0.041,0.179,0.169,0.325,0.234
		c0.003,0.084-0.359-0.152-0.178,0.036l0.113,0.039l0.042,0.118l-0.217-0.139l0.042-0.022l-0.16-0.043l0.058,0.102l0.084,0.019
		c0,0.064-0.125,0.003,0.005,0.104l0.146,0.033l0.013,0.055l-0.048-0.036l0.041,0.117l-0.119-0.033
		c-0.082-0.064,0.085-0.057-0.067-0.131L171.363,6.4l-0.015-0.042c-0.012,0.01-0.213-0.087-0.129,0.028l0.103,0.068l0.018,0.157
		l-0.133-0.042l0.023-0.148c-0.139-0.051,0.042-0.035-0.079-0.119l-0.238-0.068l0.023,0.056l0.162,0.075l0.024,0.184l-0.118-0.078
		l-0.115,0.178c0.146,0.033-0.007,0.081,0.112,0.114l0.197,0.057l-0.086-0.038l-0.037,0.061l-0.239-0.163l-0.092-0.002l0.043,0.201
		c-0.125,0.004-0.081,0.14-0.106,0.192l-0.201-0.065l0.055,0.064l-0.019-0.017c0.016,0.029-0.127,0.048,0.025,0.151l-0.112-0.082
		l0.015,0.042l-0.099-0.061l-0.038,0.106l0.083,0.018l-0.074,0.155l-0.068-0.041l0.023,0.056l-0.077,0.008l-0.123-0.182l0.147,0.098
		l0.014-0.086l0.013,0.054l-0.137-0.127l-0.01,0.03l-0.016-0.106l0.09,0.046l-0.046-0.125c0.115,0.026-0.02-0.113,0.035-0.145
		l0.15,0.181l0.076-0.041l-0.166-0.177l0.065,0.034l-0.064-0.142l0.161-0.192l0.065,0.033c-0.118-0.11,0.011-0.137-0.024-0.215
		c0.104-0.041,0.031-0.197,0.163-0.174c0.026-0.159,0.042-0.302,0.144-0.426l0.08,0.075l0.062-0.017l-0.125-0.137l0.038-0.234
		l0.065,0.035c-0.088-0.122,0.053-0.128,0.111-0.185l0.102,0.004l-0.098-0.201l0.147-0.106c-0.061-0.23,0.118-0.33,0.118-0.533
		l0.08,0.031c-0.074-0.241,0.175-0.343,0.165-0.517l0.121,0.085l-0.079-0.151c0.062-0.018-0.005-0.135,0.114-0.101l-0.029-0.127
		l0.121-0.183l-0.019,0.014l0.097,0.042c-0.02-0.049,0.094-0.087-0.074-0.145c0.134-0.033,0.037-0.234,0.202-0.247l-0.066-0.066
		l0.129-0.2l0.082,0.031l-0.066-0.066c-0.011-0.162,0.216-0.193,0.255-0.312c0.028-0.235,0.18-0.411,0.27-0.601l0.029,0.019
		c-0.083-0.127,0.201-0.075,0.052-0.224l0.098-0.003l-0.009-0.029l-0.005-0.388l0.932,0.277c0.064,0.019,0.027,0.172,0.154,0.151
		l-0.028-0.002c-0.001,0.113,0.126,0.093,0.132,0.204l-0.063,0.022c-0.027,0.071,0.163-0.044,0.05,0.086l0.061-0.054
		c0.08,0.183,0.297,0.256,0.459,0.373c0.022,0.172-0.203,0.202-0.035,0.196l0.027-0.014l-0.008,0.139l0.103-0.068
		c0.009,0.109-0.048,0.186,0.056,0.182l-0.043,0.034c0.167-0.048,0.17,0.076,0.346,0.003c0.323,0.298,0.682,0.537,0.989,0.835
		c0.264,0.332,0.605,0.578,0.828,0.957c-0.036,0.171-0.029,0.174,0.089,0.215l-0.04,0.032l0.151-0.02
		c0.092,0.131,0.216,0.216,0.327,0.334l-0.08,0.063l0.077-0.029l-0.021,0.027l0.099-0.062c0.355,0.23,0.456,0.686,0.751,0.96
		l0.243,0.231c0.094,0.332,0.19,0.621,0.484,0.774C178.745,7.155,178.494,7.334,178.354,7.289"/>
	<path class="st0" d="M169.955,7.32l0.158,0.068L169.955,7.32z"/>
	<polygon class="st0" points="170.955,6.791 170.992,6.793 170.997,6.832 	"/>
	<path class="st0" d="M171.105,6.596l0.045,0.125L171.105,6.596z"/>
	<path class="st0" d="M171.407,6.505l0.052,0.043L171.407,6.505z"/>
	<path class="st0" d="M171.31,6.432l0.071-0.003L171.31,6.432z"/>
	<path class="st0" d="M171.685,6.078l0.034-0.037L171.685,6.078z"/>
	<polygon class="st0" points="171.73,5.839 171.737,5.823 171.79,5.866 	"/>
	<polygon class="st0" points="172.979,2.313 172.942,2.313 172.983,2.28 	"/>
	<path class="st0" d="M174.228,3.646L174.201,3.7L174.228,3.646z"/>
	<polygon class="st0" points="175.093,4.187 175.087,4.183 175.167,4.11 	"/>
	<line class="st0" x1="313.918" y1="28.267" x2="168.114" y2="28.267"/>
	<path class="st0" d="M313.568,28.461c0.535-0.023-0.288-0.093,0.35-0.041C313.846,28.463,313.742,28.495,313.568,28.461"/>
	<path class="st0" d="M169.891,28.402c1.723-0.275,3.992,0.003,5.879-0.173c0.222-0.011-0.057,0.151,0.441,0.115
		c1.83-0.214,4.712-0.087,6.94,0.079l-0.135,0.042c0.424,0.031,0.943-0.111,1.393-0.091l-0.041,0.08
		c0.113-0.086,0.813-0.04,1.004-0.103c0.177,0.033,0.16,0.1,0.39,0.138l0.257-0.097c0.716-0.23,1.738,0.016,2.715-0.103
		l-0.066,0.062c1.567-0.141,3.529-0.114,5.282-0.165l-0.032,0.134c0.087-0.101,0.628-0.127,1.098-0.147
		c0.212,0.105,0.806-0.096,1.356-0.038l-0.047,0.023c0.407-0.11,0.603,0.064,0.934-0.068l0.259,0.082
		c0.178-0.148,0.59,0.077,0.925,0.002l-0.011-0.03c0.318-0.035,0.483,0.039,0.777,0.014l0.028,0.016
		c0.689-0.038,1.09,0.044,1.073-0.072c0.242,0.093-0.667,0.042-0.288,0.177c2.268-0.119,4.606-0.096,6.888-0.098
		c0.259,0.046,0.424,0.061,0.482,0.104c0.229-0.023,0.859-0.021,1.066-0.08c-0.076,0.003,0.148,0.06,0.268,0.065
		c0.415,0.044,0.454-0.126,0.91-0.075c-0.182,0.031-0.243,0.068-0.183,0.112c0.389-0.09,0.909-0.076,1.369-0.106l-0.165,0.068
		c0.504-0.102,0.918,0.022,1.357-0.043l-0.164,0.067c0.71,0.081,0.21-0.139,0.822-0.092c-0.147,0.022-0.095,0.048-0.121,0.075
		c0.573-0.122,1.498-0.081,2.068-0.123l-0.025,0.028c0.622-0.016,1.272,0.023,1.956-0.03c0.249,0.029-0.081,0.163,0.577,0.138
		c-0.025-0.134,1.117-0.055,0.729-0.206c0.562,0.022,1.452,0.072,1.827,0.027c-0.253,0.05,0.274,0.164-0.194,0.175l0.353,0.081
		c-0.053,0.055-0.364-0.019-0.251,0.05c0.235-0.005,0.917-0.059,1.125-0.036c0.435-0.082,0.833-0.235,1.536-0.252
		c-0.331,0.052,0.187,0.147-0.037,0.17l0.98-0.256c0.234-0.006,0.051,0.106,0.389,0.071l0.233-0.087
		c0.088,0.016,0.972-0.034,1.074,0.099c0.104,0.051-0.381,0.028-0.122,0.075c0.431-0.002,0.451-0.048,0.882-0.049l0.01,0.017
		c0.284,0.021,0.839-0.055,0.53-0.128c-0.198-0.004,0.075,0.079-0.218,0.04c0.2-0.076,0.702-0.098,1.134-0.099
		c-0.148,0.021-0.13,0.056-0.189,0.093c0.58-0.104,1.195-0.137,1.843-0.18l-0.338,0.081c0.83,0.087,1.715-0.124,2.406,0.004
		c-0.113,0.01-0.061-0.09-0.053-0.072c0.4,0.008,0.381,0.099,0.641,0.065c0.027,0.053,0.328-0.017,0.596-0.033
		c0.138-0.039,0.069,0.025-0.164,0.031c0.374-0.045,1.87-0.126,2.734-0.049c-0.017-0.036,0.531-0.129,0.728-0.126l-0.077,0.082
		c0.182,0.049,0.665-0.007,0.699,0.064c0.424-0.1-1.634,0.085-1.06,0.008c0.149,0.068,0.799-0.132,0.675-0.019
		c0.4-0.003,0.786-0.096,1.166-0.019c-0.11-0.013-0.323,0.115-0.001,0.109c0.567-0.015,0.161-0.04,0.622-0.068l0.288-0.034
		c0.018-0.08,0.507,0.011,0.296-0.079c0.07,0.067,0.824-0.041,0.766,0.093l-0.079,0.106c0.245-0.009,0.401-0.112,0.594-0.158
		l0.084,0.048c0.04-0.161,0.585,0.014,0.877-0.111c0.514,0.056,1.306,0.005,1.549,0.106c0.396-0.049,0.756-0.107,1.206-0.073
		l-0.237,0.055c0.283,0.048,0.352,0.005,0.611-0.021c-0.058,0.023,0.566,0.094,0.88,0.151c0.392-0.048,0.258-0.135,0.298-0.187
		c0.358,0.158,1.109-0.103,1.559,0.041c-0.137,0.023-0.574,0.078-0.248,0.118c0.359,0.158,0.725-0.116,1.303-0.041l-0.142-0.132
		c0.258,0.081,0.852-0.076,0.793,0.058c0.194-0.048,0.683,0.043,0.619-0.085c0.951,0.108,2.313-0.066,2.896,0.164
		c0.136-0.022,0.476,0,0.407-0.066c-0.227-0.071-0.317,0.051-0.401,0.003c0.122-0.004,0.149-0.039,0.162-0.056
		c0.295,0.029,0.528,0.038,0.249,0.145c0.657,0.079,0.678-0.218,1.515-0.168c-0.038,0.052,0.026,0.073,0.271,0.064l0.464-0.091
		c0.541,0.021,0.307,0.121,0.321,0.211c0.289-0.016,0.642-0.011,0.775-0.079l0.351,0.113c-0.256-0.081,0.238-0.054,0.374-0.076
		l-0.136,0.023c0.053,0.038,0.388,0.015,0.557,0.003c-0.041-0.055-0.383-0.079-0.569-0.094c0.148-0.04,0.378-0.03,0.574-0.078
		c-0.065,0.089,0.472,0.063,0.701,0.073c0.263,0.019,0.297-0.079,0.374-0.076c0.007,0.046,0.43,0.008,0.225,0.072
		c-0.09,0.015-0.205-0.044-0.354-0.003c0.173,0.034,0.153,0.113,0.515,0.055c0.271-0.044-0.07-0.175,0.445-0.119
		c-0.136,0.022-0.16,0.057-0.266,0.088l0.483,0.046l0.021-0.08l0.049,0.038c0.145-0.084,0.738-0.026,0.847-0.121
		c0.244-0.009,0.513,0.056,0.746,0.065l-0.045,0.007c0.284,0.048,0.662,0.016,0.901-0.038l-0.013,0.018
		c0.156,0.006,0.522-0.006,0.718-0.054c0.391,0.061,0.131,0.303,0.564,0.203c0.398-0.003,0.623-0.148,0.464-0.199
		c0.715,0.055,1.527-0.077,2.19,0.048c0.103-0.033,0.038-0.054,0.25-0.073c1.049,0.032,2.217-0.095,3.053,0.063
		c-0.305,0.034-0.021,0.08-0.015,0.126c0.252-0.072,0.303,0.075,0.392-0.048c-0.024-0.072,0-0.107-0.295-0.137
		c0.627-0.039,1.58-0.039,1.927,0.029c-0.174-0.034-0.039-0.056,0.098-0.078c-0.045,0.116,0.417,0.133,0.766,0.093l0.049-0.071
		l0.228,0.073c0.134-0.022,0.148-0.148,0.494-0.08l0.103,0.076c0.361-0.058,0.871-0.156,1.263-0.096l0.321,0.102
		c0.168-0.01,0.45-0.073,0.155-0.102c0.67,0.061,1.101,0.07,1.313,0.158c1.154-0.216,2.828-0.225,4.169-0.21l-0.04,0.053
		c0.36,0.05,0.187-0.092,0.438-0.055c-0.116,0.05,0.274,0.11-0.008,0.171c0.515,0.055,0.664-0.092,0.999-0.116l-0.205-0.043
		l0.794-0.051c0.129,0.042,0.029,0.119-0.042,0.162l0.315-0.052c0.386,0.123-0.878,0.22-0.474,0.371l0.291-0.016
		c0.277,0.11-0.768,0.124-0.039,0.161c0.316-0.051,0.586-0.203,0.304-0.25c0.659-0.029,0.306-0.25,1.013-0.242
		c0.193,0.061-0.567,0.015-0.43,0.101c0.333,0.084,0.668-0.048,0.965-0.017c-0.33-0.04-0.051-0.146,0.162-0.165
		c0.36,0.049-0.234,0.099,0.276,0.11c0.084-0.061,0.553-0.106,0.147-0.148c0.184-0.138,0.53,0.038,0.809-0.068
		c0.165,0.096-0.525,0.223,0.035,0.272c-0.088-0.093,0.691-0.127,0.395-0.265c0.22,0.027,0.243,0.1,0.083,0.157
		c0.313,0.058,0.76-0.17,0.864,0.016l0.107-0.096c0.099,0.031,0.239,0.055,0.4,0.106c0.275,0.002,0.89-0.13,0.865,0.015
		c0.088-0.015,0.719-0.009,0.476-0.108c-0.392-0.06-0.451,0.073-0.67-0.061c0.278,0.11,0.566-0.015,0.792-0.051l0.037,0.055
		c0.135-0.022,0.446-0.009,0.53-0.07l0.058,0.084l0.142-0.085c0.548-0.042,0.129,0.149,0.662,0.124l-0.405,0.066
		c0.089-0.014,0.271,0.065,0.526,0.039l0.371-0.229c0.301-0.035,0.135,0.087,0.431,0.007l-0.388,0.093
		c-0.059,0.025,0.261,0.127,0.663,0.126c0.257-0.027,0.655-0.139,0.251-0.181c0.201-0.002,0.483,0.046,0.324,0.102
		c0.456-0.026-0.061-0.083,0.333-0.131c0.161,0.051,0.663,0.125,0.965,0.2l-0.41,0.129l0.273,0.002
		c-0.353,0.104,0.18,0.078-0.02,0.188c0.187,0.016,0.413-0.021,0.594-0.049c-0.547-0.175,0.611-0.238,0.453-0.398
		c0.749-0.044,0.468,0.389,1.248,0.139c-0.127-0.042,0.24-0.163-0.231-0.117c0.465,0.017,0.316-0.16,0.865-0.094
		c-0.406,0.066,0.436,0.162-0.151,0.257l-0.417-0.026c0.191,0.061-0.04,0.161,0.436,0.161c0.291-0.016,0.689-0.018,0.631-0.101
		c-0.012-0.091-0.443,0.01-0.257-0.082c0.579-0.031,0.675,0.107,0.915-0.055c-0.366,0.013-0.457-0.081-0.45-0.144l0.425-0.038
		l-0.083,0.061c0.683,0.043,0.202-0.11,0.863-0.093l0.31,0.119c-0.158,0.103-0.962-0.046-0.844,0.123
		c0.429,0.006,0.572-0.08,0.977-0.035l-0.302,0.034c0.154,0.005,0.306,0.228,0.918,0.098c0.317-0.051,0.084-0.06,0.092-0.123
		c0.69-0.019,0.896-0.083,1.341-0.093c-0.092,0.123,0.785,0.012,0.294,0.138c-0.225-0.072-1.223-0.065-1.468,0.052
		c0.252,0.146-0.541-0.02-0.689,0.127c0.553,0.004,0.526,0.146,0.615,0.241c0.154,0.007,0.303-0.033,0.395-0.048l-0.147-0.178
		c0.616,0.024,1.211-0.025,1.551-0.112c0.206,0.044,0.141,0.132-0.103,0.141c0.734-0.027,1.518-0.015,2.216,0.012
		c-0.451-0.144,0.778-0.033,0.47-0.153c-0.374-0.033-0.694-0.135-0.488-0.2c0.234,0.01-0.008,0.063,0.09,0.093
		c0.298-0.078,0.462,0.126,0.754,0.003c-0.67,0.046-0.13,0.175-0.254,0.287c0.484-0.063-0.021,0.08,0.459,0.08
		c0.481-0.063,1.073-0.113,1.61-0.137c0.673,0.107,1.704,0.002,2.305-0.003c0.315,0.057,0.102,0.185,0.442,0.208
		c0.401-0.003-0.297-0.138,0.296-0.08l-0.057,0.025c0.18-0.029,1.088,0.087,1.263-0.096l-0.184,0.138
		c0.112,0.013,0.214-0.018,0.306-0.034c0.004,0.045,0.133,0.086-0.047,0.116c0.365,0.095,0.768-0.016,1.166-0.019l-0.256-0.081
		c0.681-0.065,1.137,0.016,1.795-0.012l-0.02,0.08l0.392-0.048c-0.096,0.078,0.263,0.127,0.471,0.063l-1.019,0.196
		c-0.283-0.048,0.309-0.097,0.132-0.176c-0.151-0.069-0.76-0.047-0.859,0.03c0.234,0.009,0.244-0.009,0.426-0.038
		c0.076,0.112-0.278,0.107-0.453,0.182c0.122-0.004,0.296,0.029,0.322-0.006c-0.24,0.055-0.482,0.063-0.882,0.066
		c0.271-0.044-0.147-0.069-0.045-0.101c-0.032,0.099-0.414,0.128-0.908,0.101c-0.353-0.113-0.929,0.073-1.501,0.042
		c0.232-0.1,0.53-0.179,0.878-0.22c-0.36-0.049-0.401,0.003-0.761-0.046c-0.175,0.074-0.298,0.187-0.768,0.232l-0.025-0.074
		c-0.425,0.037-0.425,0.146-0.966,0.126c-0.927-0.035-1.881-0.035-2.59-0.045l-0.026-0.073c-0.394,0.156-1.312,0.058-1.842,0.126
		c-0.902-0.07-1.958,0.07-2.42-0.056c-1.591,0.056-2.983,0.112-4.631,0.085l0.278-0.106c-0.296,0.078-0.192-0.061-0.482-0.045
		c0.333,0.085-0.402,0.11-0.606,0.175c-0.733-0.082-1.676,0.009-2.327,0.083l-0.025-0.074c-0.658,0.137-1.443,0.016-2.263-0.006
		c-0.093-0.03-0.242-0.099-0.486-0.091c-0.444,0.119-0.677,0.11-1.329,0.183c-0.476,0-1.248-0.029-1.733-0.075
		c-1.79,0.167-3.619,0.061-5.481,0.16l-0.134-0.086c-1.804,0.184-4.024,0.017-5.564,0.112l0.149-0.147
		c-0.483-0.045-1.101,0.039-0.977,0.143c-0.485-0.045-1.208,0.071-1.517-0.05c-0.494-0.027-0.605,0.068-1.017,0.088
		c-0.99-0.055-1.359-0.042-2.293-0.016l0.232,0.009c0.102-0.033,0.112-0.095-0.121-0.105c-0.349,0.042-1.282-0.04-0.935,0.136
		c-0.996-0.101-2.325,0.083-3.295-0.054l-0.266,0.089c-0.875,0.003-1.795-0.096-2.493-0.014c-0.139-0.024,0.222-0.082-0.135-0.087
		c-0.21,0.019-0.004,0.063-0.264,0.09c-1.418,0.09-2.871-0.092-4.159-0.069c-2.291,0.093-4.682,0.046-6.878,0.061l0.025-0.035
		c-0.735,0.134-1.724-0.139-2.311,0.064c-0.174-0.034-0.664-0.016-0.535-0.084c-0.585,0.095-1.639-0.089-2.486,0.031l0.212-0.019
		c-0.854-0.077-1.609,0.029-2.511-0.042l0.285-0.061c-0.349-0.068-0.826,0.148-1.016-0.022c-0.201,0.002-0.143,0.085-0.021,0.08
		c-1.975-0.067-4.083,0.042-6.139,0.08c-1.474-0.101-0.091-0.286-1.253-0.158l-0.084,0.029c-0.449,0.048-0.701-0.19-1.013-0.1
		c0.129,0.104-0.208,0.059-0.217,0.122c-0.9-0.068-1.081-0.162-1.792-0.082l0.054-0.055c-0.834,0.155-1.799,0.072-2.503,0.251
		c-4.595,0.033-9.001,0.132-13.481,0.153c-4.429-0.035-8.766,0.046-13.264-0.049c-1.054-0.145-1.133-0.14-2.29-0.082l0.042-0.05
		c-0.058,0.118-0.815,0.011-0.925,0.124c-1.663-0.022-3.194,0.01-4.906,0.011c0.271-0.012,0.407-0.109,0.085-0.101l-0.336,0.075
		l-0.055-0.033c-0.22,0.017-0.46,0.076-0.232,0.114c-4.298,0.102-8.526-0.135-12.736-0.106c-0.999-0.049-2.422-0.004-3.509,0.02
		c-3.218-0.158-6.12-0.285-9.39-0.175C168.114,28.778,168.541,28.473,169.891,28.402"/>
	<path class="st0" d="M312.925,28.473c-0.114-0.059-0.489-0.092-0.19-0.17L312.925,28.473z"/>
	<path class="st0" d="M302.929,27.864l-0.174-0.034c0.123-0.004,0.239-0.054,0.338-0.023
		C302.966,27.811,302.986,27.84,302.929,27.864"/>
	<path class="st0" d="M300.373,27.829c0.038-0.052,0.585-0.094,0.907-0.1L300.373,27.829z"/>
	<path class="st0" d="M297.992,27.612c-0.206-0.045-0.149-0.069,0.127-0.068L297.992,27.612z"/>
	<path class="st0" d="M297.822,27.732c-0.197,0.002-0.296-0.029-0.392-0.06L297.822,27.732z"/>
	<path class="st0" d="M292.653,27.578c-0.124,0.004-0.393,0.048-0.509-0.01C292.274,27.609,292.749,27.501,292.653,27.578"/>
	<path class="st0" d="M290.25,27.658l-0.199,0.002c-0.143-0.024,0.008-0.062,0.128-0.068L290.25,27.658z"/>
	<polygon class="st0" points="246.514,27.87 246.774,27.844 246.736,27.896 	"/>
	<path class="st0" d="M227.348,27.873c-0.259,0.033-0.179-0.049-0.223-0.057C227.36,27.809,227.039,27.88,227.348,27.873"/>
	<polygon class="st0" points="217.015,28.136 217.094,28.134 217.068,28.242 	"/>
	<path class="st0" d="M312.384,23.744l-0.059,0.01L312.384,23.744z"/>
	<path class="st0" d="M311.253,34.831c-0.011-0.349,0.385-0.317,0.454-0.603l0.116,0.053c0.038-0.311,0.397-0.444,0.716-0.496
		l0.015,0.044l0.075-0.181l0.047,0.063l0.03-0.159l0.126,0.075l-0.037-0.096c-0.079-0.234,0.177-0.126,0.194-0.296l0.034,0.053
		c0.061-0.233,0.266-0.371,0.401-0.551l0.083,0.106l0.011-0.201l0.106-0.139l0.01,0.022c-0.031-0.117,0.099,0,0.046-0.127
		l0.078,0.042c-0.078-0.127,0.106,0.012,0.089-0.073l-0.02-0.023l0.083-0.052l0.013,0.01l0.057-0.141
		c0.083,0.052-0.037,0.086,0.086,0.159c0.141-0.274,0.381-0.442,0.598-0.627l0.113,0.042l0.051-0.147l0.068,0.029l0.039-0.131
		l0.054,0.1l0.063-0.19l0.028,0.065c-0.017-0.119,0.103-0.057,0.103-0.142l0.027,0.065c0.12,0.006-0.069-0.124,0.02-0.137
		l0.036,0.067c-0.023-0.139,0.092-0.182,0.119-0.26l0.016,0.024l0.169-0.18l0.144,0.06c-0.088-0.101,0.072-0.132-0.062-0.217
		l0.192-0.126l0.094,0.15l0.087,0.034l0.008,0.06l0.085-0.119l-0.015-0.317l0.106,0.133l-0.071-0.275l0.082,0.023l-0.033-0.085
		l0.166-0.01l0.036,0.068l0.054-0.109l0.012,0.013l-0.031-0.141l0.005,0.048l0.045-0.166l0.042,0.087
		c-0.01-0.126,0.028-0.201,0.061-0.286l0.02,0.089c0.135,0,0.086-0.232,0.233-0.19l-0.05-0.051l0.103-0.001l0.035-0.074l0.005,0.037
		c0.007-0.064,0.099-0.247,0.23-0.257l-0.01-0.154l0.046,0.069l0.107-0.007c-0.023-0.112-0.102,0.196-0.096,0.091l0.052-0.069
		l0.1-0.107l0.069,0.083l0.016-0.1l0.007-0.049l-0.023-0.085l0.132,0.01l0.061,0.087l-0.044-0.168l0.039,0.029
		c-0.1-0.126,0.064-0.036,0.013-0.155l0.216-0.043l0.069-0.152l0.011,0.061l0.046-0.065l0.181,0.045l-0.092-0.168
		c0.137,0.094,0.042-0.167,0.177-0.093l0.052,0.11c0.135,0.093-0.005-0.147,0.099-0.135l-0.098-0.09l0.113-0.019l0.005-0.114
		l0.2-0.119c0.013,0.234,0.025,0.456,0.037,0.679l-0.041-0.179l-0.078,0.027l0.042,0.025l-0.048,0.036l0.055-0.139
		c-0.025-0.111-0.191,0.135-0.251,0.036l0.008-0.073l-0.099,0.043l0.083-0.197l-0.124,0.011l0.026-0.118l-0.081,0.037l0.026-0.01
		l-0.055-0.041l0.007,0.118l-0.103,0.024l-0.033-0.108l-0.081,0.037l0.016-0.075l0.035,0.028l-0.023-0.082l-0.112,0.068l0.077-0.055
		l-0.025-0.072l-0.047,0.065l0.016-0.035l-0.155,0.042l-0.042-0.106l0.008-0.003l-0.114-0.031l0.011-0.014l-0.105-0.004l0.054-0.208
		l-0.159,0.133c-0.044-0.094-0.201-0.042-0.201-0.192l-0.066,0.043c-0.092-0.1-0.283-0.074-0.283-0.264l0.071-0.104l-0.068,0.013
		l-0.045,0.135l-0.185-0.158l-0.053,0.058l-0.029-0.13l-0.044,0.055l0.016-0.076l-0.096,0.033l0.031-0.07l-0.184-0.007l0.023-0.108
		l-0.073,0.074l-0.048-0.222c-0.242,0.1-0.42-0.008-0.551-0.113l0.034-0.042l-0.076,0.016l0.095-0.142l-0.168,0.027l-0.003,0.051
		l-0.111-0.013l0.094-0.131l-0.061,0.021c0.029-0.129,0.213-0.122,0.254-0.276l-0.039-0.006c0.032-0.111,0.149-0.05,0.094-0.132
		l-0.171,0.188l-0.239,0.131l0.1-0.054l-0.11-0.053l-0.108,0.126l0.032-0.111l-0.097,0.113l-0.122,0.001l0.147-0.229
		c-0.042,0.085-0.143,0.058-0.188,0.193l0.078-0.136c-0.001-0.07-0.173,0.089-0.081-0.072l-0.064,0.071l0.016-0.115
		c-0.027-0.021-0.164,0.046-0.081-0.073l-0.109,0.057c0.007,0.077,0.087-0.029,0.035,0.098c0.031-0.111-0.068-0.027-0.111-0.012
		l0.027-0.049l-0.094,0.022l0.041-0.074l-0.061,0.061l-0.001-0.149l0.079-0.027l-0.033-0.069l-0.166,0.166l-0.041-0.036l0.092-0.051
		l0.001-0.151L314.3,26.07l0.023-0.107l-0.107,0.086l0.01-0.233l0.115-0.08l-0.028-0.02l0.106-0.155l-0.089-0.001
		c-0.04,0.183-0.196,0.157-0.267,0.3c-0.103-0.016,0.166-0.356-0.054-0.202l-0.041,0.113l-0.142,0.018
		c0.078-0.026,0.043-0.164,0.158-0.203l0.029,0.05l0.043-0.164l-0.121,0.041l-0.019,0.087c-0.078-0.014-0.011-0.136-0.126-0.017
		l-0.033,0.151l-0.065,0.003l0.042-0.045l-0.142,0.018l0.035-0.121c0.073-0.075,0.074,0.105,0.155-0.043l-0.121-0.038l0.05-0.007
		c-0.013-0.016,0.094-0.212-0.042-0.145l-0.077,0.095l-0.191-0.015c0.077-0.096-0.075-0.064,0.045-0.135l0.182,0.058
		c0.055-0.139,0.045,0.055,0.142-0.058l0.069-0.242l-0.068,0.012l-0.083,0.158l-0.223-0.015l0.089-0.11l-0.224-0.164
		c-0.033,0.151-0.1-0.026-0.134,0.095l-0.06,0.2l0.043-0.084l-0.078-0.055l0.186-0.222l-0.003-0.099l-0.243,0.003
		c-0.01-0.136-0.176-0.119-0.241-0.158l0.068-0.203l-0.074,0.046l0.02-0.017c-0.035,0.012-0.066-0.148-0.185-0.007l0.095-0.102
		l-0.05,0.007l0.069-0.093l-0.132-0.065l-0.018,0.086l-0.194-0.114l0.047-0.065l-0.068,0.013l-0.014-0.086l0.215-0.093l-0.111,0.138
		l0.106,0.035l-0.065,0.002l0.147-0.12l-0.036-0.017l0.128,0.007l-0.051,0.087l0.151-0.021c-0.027,0.119,0.137,0.003,0.178,0.069
		l-0.212,0.122l0.053,0.092l0.209-0.14l-0.038,0.062l0.171-0.037l0.244,0.216l-0.038,0.063c0.128-0.103,0.17,0.042,0.263,0.022
		c0.055,0.12,0.242,0.077,0.221,0.214c0.196,0.064,0.372,0.114,0.528,0.251l-0.087,0.069l0.025,0.071l0.16-0.104
		c0.03,0.119,0.179,0.109,0.288,0.092l-0.038,0.063c0.145-0.068,0.159,0.086,0.232,0.162l0.001,0.109
		c0.112-0.068,0.131-0.044,0.24-0.061l0.138,0.183c0.279-0.015,0.409,0.2,0.66,0.246l-0.034,0.08
		c0.29-0.028,0.428,0.265,0.641,0.293l-0.097,0.113l0.181-0.052c0.026,0.072,0.165,0.025,0.13,0.147l0.155-0.003
		c0.073,0.114,0.118,0.129,0.23,0.171l-0.019-0.023l-0.045,0.095c0.059-0.01,0.111,0.121,0.172-0.048
		c0.048,0.153,0.288,0.092,0.313,0.274l0.077-0.057c0.092,0.06,0.133,0.205,0.252,0.184l-0.035,0.082L318.044,27
		c0.197,0.023,0.248,0.275,0.395,0.345c0.29,0.081,0.512,0.287,0.751,0.425l-0.023,0.028l0.043-0.008l0.414,0.032l-0.361,0.939
		c-0.035,0.093-0.241,0.01-0.175,0.19l-0.106-0.022c0.005,0.119-0.215,0.062-0.218,0.222l0.008-0.031
		c-0.132,0.009-0.136,0.151-0.268,0.169l-0.012-0.069c-0.077-0.024,0.016,0.18-0.112,0.065l0.05,0.063
		c-0.233,0.107-0.365,0.36-0.538,0.554c-0.206,0.04-0.192-0.212-0.222-0.022l0.01,0.029l-0.161,0.004l0.057,0.111
		c-0.13,0.021-0.208-0.037-0.225,0.08l-0.03-0.047c0.02,0.186-0.126,0.199-0.079,0.393c-0.42,0.394-0.78,0.822-1.196,1.197
		c-0.447,0.329-0.812,0.738-1.305,1.025c-0.193-0.026-0.198-0.016-0.272,0.121l-0.029-0.042l-0.009,0.17
		c-0.174,0.116-0.3,0.264-0.464,0.401l-0.056-0.084l0.016,0.085l-0.026-0.022l0.051,0.107c-0.347,0.423-0.905,0.579-1.291,0.939
		c-0.128,0.042-0.235,0.19-0.325,0.296c-0.409,0.137-0.77,0.271-1.013,0.618C311.324,35.263,311.169,34.993,311.253,34.831"/>
	<path class="st0" d="M312.457,23.779l-0.074,0.155L312.457,23.779z"/>
	<polygon class="st0" points="313.161,24.978 313.16,25.019 313.112,25.014 	"/>
	<path class="st0" d="M313.407,25.185l-0.15,0.021L313.407,25.185z"/>
	<path class="st0" d="M313.535,25.53l-0.051,0.047L313.535,25.53z"/>
	<path class="st0" d="M313.619,25.442l0.007,0.077L313.619,25.442z"/>
	<path class="st0" d="M314.072,25.928l0.047,0.044L314.072,25.928z"/>
	<polygon class="st0" points="314.366,26.028 314.388,26.04 314.337,26.088 	"/>
	<polygon class="st0" points="315.606,30.852 315.613,30.844 315.68,30.93 	"/>
</g>
<g>
	<g>
		<g>
			<g>
				<path class="st0" d="M57.475,14.908c-0.242-1.579-1.546-2.561-3.253-2.561c-1.818,0-3.157,0.854-3.157,2.336
					c0,1.465,1.788,1.916,3.351,2.336c1.513,0.401,3.849,0.981,3.849,3.301c0,1.821-1.579,3.173-3.978,3.173
					c-2.448,0-3.899-1.483-4.059-3.286l0.596-0.161c0.097,1.546,1.321,2.867,3.463,2.867c2.045,0,3.348-1.095,3.348-2.594
					c0-2.03-2.27-2.415-3.847-2.851c-1.273-0.355-3.35-0.853-3.35-2.786c0-1.755,1.61-2.917,3.784-2.917
					c1.998,0,3.544,1.145,3.85,2.981L57.475,14.908z"/>
				<path class="st0" d="M66.559,11.767c3.237,0,5.862,2.465,5.862,5.864c0,3.398-2.625,5.863-5.862,5.863
					c-3.238,0-5.845-2.465-5.845-5.863C60.714,14.233,63.321,11.767,66.559,11.767z M66.559,22.899c2.899,0,5.235-2.159,5.235-5.268
					c0-3.158-2.336-5.267-5.235-5.267c-2.915,0-5.217,2.109-5.217,5.267C61.342,20.74,63.643,22.899,66.559,22.899z"/>
				<path class="st0" d="M85.516,14.861c-0.888-1.546-2.562-2.496-4.494-2.496c-2.917,0-5.219,2.109-5.219,5.267
					c0,3.109,2.302,5.251,5.219,5.251c2.045,0,3.801-1.096,4.67-2.819l0.612,0.177c-0.949,1.997-2.932,3.254-5.282,3.254
					c-3.239,0-5.847-2.465-5.847-5.863c0-3.398,2.609-5.864,5.847-5.864c2.205,0,4.107,1.145,5.122,2.934L85.516,14.861z"/>
				<path class="st0" d="M89.139,23.267V11.993h0.612v11.274H89.139z"/>
				<path class="st0" d="M101.121,19.725h-6.2l-1.579,3.542h-0.661l5.074-11.274h0.532l5.074,11.274h-0.66L101.121,19.725z
					 M100.864,19.162l-2.319-5.203c-0.241-0.547-0.5-1.225-0.516-1.225h-0.016c-0.017,0-0.275,0.677-0.516,1.225l-2.319,5.203
					H100.864z"/>
				<path class="st0" d="M113.314,22.672v0.595h-7.023V11.993h0.614v10.679H113.314z"/>
				<path class="st0" d="M123.814,11.993v1.241h-3.785v10.033h-1.303V13.234h-3.769v-1.241H123.814z"/>
				<path class="st0" d="M126.632,23.267V11.993h1.322v11.274H126.632z"/>
				<path class="st0" d="M140.66,15.07c-0.773-1.241-2.207-2.013-3.785-2.013c-2.577,0-4.494,1.851-4.494,4.574
					c0,2.722,1.965,4.558,4.494,4.558c1.724,0,3.239-0.919,3.979-2.336l1.305,0.355c-0.936,1.997-2.931,3.286-5.284,3.286
					c-3.237,0-5.846-2.465-5.846-5.863c0-3.398,2.61-5.864,5.846-5.864c2.207,0,4.106,1.162,5.122,2.966L140.66,15.07z"/>
			</g>
		</g>
	</g>
	<path class="st0" d="M7.07,8.743c2.561-2.096,5.354-3.606,8.66-4.146c3.124-0.509,6.31-0.16,9.262,0.946
		c5.592,2.092,10.009,7.056,10.534,13.143l3.916-0.001c0.388-6.907-3.474-12.91-9.327-16.22C24.024-0.98,16.176-0.782,10.2,2.856
		C4.449,6.356,1.081,12.126,0,18.7l1.904-0.002c0.741-3.951,2.452-7.222,5.193-9.987C7.016,8.797,7.084,8.727,7.07,8.743z
		 M11.692,13.182c-0.09,0.101-0.015,0.022-0.031,0.04c2.451-1.73,5.121-2.515,8.138-2.212c2.595,0.26,4.857,1.357,6.899,2.915
		c1.415,1.333,2.493,2.786,2.816,4.765h3.394c0.093-0.982,0.095-1.994-0.093-2.993c0.047,0.245,0.087,0.461-0.001-0.011
		c-0.11-0.571-0.055-0.28-0.003-0.007c-1.254-6.527-7.933-10.585-14.368-9.594C12.163,7.052,7.277,12.52,6.333,18.698l1.943-0.002
		C8.807,16.474,10.006,14.69,11.692,13.182z M26.628,13.858c0.002,0.001,0.005,0.003,0.008,0.007
		C26.6,13.832,26.617,13.847,26.628,13.858z M19.611,28.751C18.629,28.544,20.59,28.962,19.611,28.751L19.611,28.751z M31.6,23.024
		l-3.195,0.828c-2.163,3.302-6.787,4.409-10.275,2.665l-2.288,0.592c1.136,0.784,2.415,1.356,3.769,1.641
		C24.456,29.796,29.314,27.342,31.6,23.024z M27.989,32.088c-5.778,2.867-13.393,1.506-17.49-3.591l-1.572,0.409
		c4.671,6.244,13.631,8.046,20.544,4.703c4.95-2.395,8.63-7.138,9.678-12.542l-3.757,0.974
		C34.694,26.414,31.953,30.123,27.989,32.088z M26.181,16.897c-0.022-0.056-0.03-0.07-0.03-0.067
		c-1.238-3.08-4.769-4.736-7.992-3.955c-2.832,0.687-4.898,3.051-5.582,5.821l2.602-0.002c0.297-0.411,0.683-0.732,1.068-1.056
		c-0.018,0.02,0.063-0.066-0.035,0.043c1.126-0.708,2.414-0.994,3.739-0.858c1.25,0.13,2.986,0.636,3.548,1.868l2.881-0.002
		c0.013-0.593-0.037-1.144-0.183-1.716C26.205,16.998,26.207,16.993,26.181,16.897z M44.947,18.684c-1.287-0.002-5.487,0-5.487,0
		l-0.278,2.374c0,0,4.501-1.169,5.872-1.525C46.427,19.18,46.232,18.684,44.947,18.684z"/>
</g>
</svg>