<!-- Generator: Adobe Illustrator 23.0.3, SVG Export Plug-In  -->
<svg version="1.1" xmlns="http://www.w3.org/2000/svg" xmlns:xlink="http://www.w3.org/1999/xlink" x="0px" y="0px"
	 width="132.261px" height="132.261px" viewBox="0 0 132.261 132.261" style="enable-background:new 0 0 132.261 132.261;"
	 xml:space="preserve">
<style type="text/css">
	.st0{fill:#3DDC97;}
	.st1{fill:#5941A9;}
	.st2{fill:#FFFFFF;}
</style>
<defs>
</defs>
<g>
	<path class="st0" d="M66.131,2.419c35.187,0,63.711,28.524,63.711,63.711c0,35.187-28.525,63.711-63.711,63.711
		c-35.187,0-63.711-28.525-63.711-63.711C2.419,30.944,30.944,2.419,66.131,2.419 M66.131,0C29.666,0,0,29.666,0,66.131
		s29.666,66.131,66.131,66.131s66.131-29.666,66.131-66.131S102.595,0,66.131,0L66.131,0z"/>
	<circle class="st1" cx="66.131" cy="66.131" r="58.47"/>
	<circle class="st0" cx="80.694" cy="50.483" r="6"/>
	<polygon class="st0" points="52.694,71.483 60.194,78.983 55.694,84.483 49.694,87.483 44.694,88.483 45.694,80.483 47.694,76.483 
			"/>
	<g>
		<g>
			<g>
				<path class="st2" d="M67.985,64.278c-0.573-0.573-1.5-0.573-2.073,0c-0.571,0.571-0.571,1.499,0,2.071
					c0.573,0.571,1.5,0.571,2.073,0C68.557,65.776,68.557,64.849,67.985,64.278z"/>
			</g>
		</g>
		<g>
			<g>
				<path class="st2" d="M86.628,45.633c-2.862-2.862-7.496-2.862-10.358,0c-2.855,2.855-2.855,7.501,0,10.358
					c2.856,2.854,7.502,2.855,10.358,0C89.49,53.129,89.491,48.496,86.628,45.633z M84.557,53.92c-1.713,1.713-4.501,1.713-6.215,0
					c-1.713-1.714-1.713-4.502,0-6.215c1.717-1.717,4.497-1.718,6.215,0C86.274,49.422,86.274,52.202,84.557,53.92z"/>
			</g>
		</g>
		<g>
			<g>
				<path class="st2" d="M103.201,29.06c-0.288-0.288-0.68-0.443-1.088-0.428c-0.331,0.012-8.217,0.329-17.591,3.642
					c-7.512,2.652-13.773,6.449-18.609,11.286c-1.084,1.084-2.138,2.233-3.148,3.427c-4.782-2.815-8.615-1.932-11.037-0.636
					c-5.578,2.985-9.031,11.091-9.031,16.889c0,0.592,0.357,1.127,0.905,1.353c0.181,0.075,0.372,0.112,0.56,0.112
					c0.381,0,0.756-0.149,1.036-0.429c2.942-2.942,6.57-2.758,7.756-2.602l0.513,0.513c-1.01,2.402-1.823,4.791-2.419,7.115
					c-0.215,0.841-0.143,1.731,0.177,2.544c-1.41,0.65-2.771,1.604-3.956,2.789c-3.771,3.771-4.536,12.96-4.567,13.35
					c-0.034,0.427,0.121,0.848,0.424,1.151c0.276,0.276,0.649,0.429,1.036,0.429c0.038,0,0.077-0.001,0.115-0.005
					c0.389-0.031,9.579-0.796,13.35-4.567c1.184-1.184,2.138-2.545,2.788-3.955c0.862,0.339,1.748,0.381,2.546,0.176
					c2.322-0.596,4.711-1.409,7.113-2.419l0.513,0.513c0.156,1.185,0.34,4.814-2.602,7.756c-0.419,0.419-0.544,1.049-0.317,1.596
					c0.227,0.547,0.761,0.904,1.353,0.904c5.798,0,13.903-3.453,16.889-9.031c1.297-2.422,2.179-6.255-0.636-11.037
					c1.193-1.009,2.343-2.063,3.427-3.148c4.837-4.837,8.634-11.098,11.286-18.609c3.313-9.375,3.63-17.261,3.642-17.592
					C103.644,29.742,103.488,29.348,103.201,29.06z M45.971,60.09c0.91-4.404,3.553-9.236,7.139-11.155
					c2.396-1.282,5.016-1.157,7.8,0.368c-2.373,3.12-4.435,6.482-6.154,10.032c-0.022-0.013-0.285-0.345-0.775-0.455
					C53.779,58.834,49.903,58,45.971,60.09z M55.555,82.922c-2.014,2.014-6.739,3.076-9.725,3.51
					c0.434-2.986,1.496-7.711,3.51-9.725c1.128-1.128,2.436-1.983,3.75-2.465l4.929,4.929
					C57.538,80.486,56.683,81.794,55.555,82.922z M62.233,78.377c-0.424,0.109-0.915-0.051-1.28-0.415
					c-1.895-1.895-2.636-2.636-2.869-2.869c-0.427-0.427-1.473-1.473-3.783-3.783c-0.365-0.366-0.525-0.857-0.416-1.28
					c0.469-1.827,1.083-3.702,1.829-5.595l12.113,12.113C65.934,77.295,64.059,77.908,62.233,78.377z M83.327,79.152
					c-1.919,3.586-6.751,6.229-11.155,7.139c1.404-2.642,1.714-6.005,1.201-8.045c-0.119-0.474-0.428-0.712-0.445-0.74
					c3.55-1.719,6.911-3.782,10.032-6.154C84.483,74.136,84.609,76.756,83.327,79.152z M86.629,64.278
					c-1.32,1.32-2.741,2.595-4.225,3.79c-3.566,2.871-7.49,5.303-11.677,7.239L56.955,61.534c1.936-4.187,4.368-8.112,7.239-11.677
					c1.196-1.484,2.471-2.906,3.79-4.225c4.34-4.34,9.94-7.793,16.651-10.28l12.274,12.274
					C94.423,54.337,90.969,59.938,86.629,64.278z M97.963,44.537L87.724,34.299c5.578-1.733,10.431-2.381,12.853-2.615
					C100.344,34.107,99.695,38.96,97.963,44.537z"/>
			</g>
		</g>
		<g>
			<g>
				<path class="st2" d="M63.841,89.136c-0.572-0.572-1.5-0.572-2.072,0l-4.143,4.144c-0.572,0.572-0.572,1.5,0,2.072
					c0.572,0.572,1.5,0.572,2.072,0l4.143-4.144C64.413,90.635,64.413,89.707,63.841,89.136z"/>
			</g>
		</g>
		<g>
			<g>
				<path class="st2" d="M43.126,68.42c-0.572-0.572-1.499-0.572-2.072,0l-4.144,4.143c-0.572,0.572-0.572,1.499,0,2.072
					c0.572,0.572,1.499,0.572,2.072,0l4.144-4.143C43.698,69.92,43.698,68.992,43.126,68.42z"/>
			</g>
		</g>
		<g>
			<g>
				<path class="st2" d="M53.484,91.208c-0.572-0.572-1.499-0.572-2.072,0l-9.923,9.921c-0.572,0.572-0.572,1.5,0,2.072
					c0.572,0.572,1.499,0.572,2.072,0l9.923-9.921C54.056,92.708,54.056,91.78,53.484,91.208z"/>
			</g>
		</g>
		<g>
			<g>
				<path class="st2" d="M41.765,91.208c-0.572-0.572-1.5-0.572-2.072,0l-9.923,9.921c-0.572,0.572-0.572,1.5,0,2.072
					c0.572,0.572,1.499,0.572,2.072,0l9.923-9.921C42.337,92.708,42.337,91.78,41.765,91.208z"/>
			</g>
		</g>
		<g>
			<g>
				<path class="st2" d="M41.053,78.778c-0.572-0.572-1.5-0.572-2.072,0L29.06,88.7c-0.572,0.572-0.572,1.5,0,2.072
					c0.572,0.572,1.5,0.572,2.072,0l9.921-9.923C41.625,80.277,41.625,79.35,41.053,78.778z"/>
			</g>
		</g>
		<g>
			<g>
				<path class="st2" d="M74.199,58.062c-0.572-0.572-1.499-0.572-2.072,0l-2.071,2.071c-0.572,0.572-0.572,1.5,0,2.072
					c0.572,0.572,1.5,0.572,2.072,0l2.071-2.071C74.771,59.562,74.771,58.634,74.199,58.062z"/>
			</g>
		</g>
	</g>
</g>
</svg>