<!-- Generator: Adobe Illustrator 23.0.3, SVG Export Plug-In  -->
<svg version="1.1" xmlns="http://www.w3.org/2000/svg" xmlns:xlink="http://www.w3.org/1999/xlink" x="0px" y="0px" width="280px"
	 height="107.25px" viewBox="0 0 280 107.25" style="enable-background:new 0 0 280 107.25;" xml:space="preserve">
<style type="text/css">
	.st0{fill:#5B36B7;}
	.st1{fill:#3DDC97;}
	.st2{fill:#FFFFFF;}
	.st3{fill:none;stroke:#3DDC97;stroke-width:0.5;stroke-miterlimit:10;}
</style>
<defs>
</defs>
<g>
	<g>
		<path class="st0" d="M29.308,22.596c-1.396-1.134-2.791-1.973-4.187-2.519c-1.396-0.545-2.748-0.818-4.056-0.818
			c-1.658,0-3.009,0.392-4.056,1.178c-1.047,0.785-1.57,1.811-1.57,3.075c0,0.873,0.262,1.593,0.785,2.159
			c0.523,0.568,1.21,1.058,2.061,1.472c0.85,0.415,1.809,0.775,2.878,1.08c1.068,0.306,2.126,0.633,3.173,0.981
			c4.187,1.396,7.25,3.261,9.192,5.594c1.94,2.334,2.911,5.376,2.911,9.127c0,2.53-0.425,4.82-1.276,6.87
			c-0.851,2.051-2.093,3.806-3.729,5.267c-1.636,1.462-3.642,2.596-6.019,3.403c-2.378,0.806-5.07,1.21-8.08,1.21
			c-6.238,0-12.016-1.853-17.337-5.561l5.495-10.338c1.919,1.701,3.816,2.967,5.692,3.795c1.875,0.829,3.729,1.243,5.561,1.243
			c2.093,0,3.652-0.48,4.678-1.44c1.024-0.959,1.537-2.05,1.537-3.271c0-0.741-0.131-1.384-0.393-1.93
			c-0.262-0.545-0.698-1.047-1.308-1.505c-0.611-0.458-1.407-0.883-2.388-1.276c-0.981-0.393-2.17-0.828-3.565-1.309
			c-1.658-0.523-3.282-1.101-4.874-1.734c-1.593-0.632-3.009-1.472-4.252-2.519c-1.243-1.047-2.247-2.366-3.009-3.958
			c-0.764-1.592-1.145-3.609-1.145-6.052c0-2.442,0.403-4.655,1.21-6.641c0.806-1.984,1.94-3.685,3.402-5.103
			c1.461-1.417,3.249-2.519,5.364-3.304c2.115-0.785,4.481-1.178,7.098-1.178c2.442,0,4.994,0.338,7.654,1.014
			c2.66,0.677,5.211,1.668,7.654,2.977L29.308,22.596z"/>
		<path class="st0" d="M55.346,59.301L63.72,9.968h12.692l9.879,26.302l9.813-26.302h12.692l8.374,49.333h-12.757l-4.252-28.396
			L88.514,59.301h-5.103L72.355,30.905l-4.252,28.396H55.346z"/>
		<path class="st0" d="M168.589,50.73h-18.318l-2.944,8.571h-13.673L152.43,9.968h14l18.776,49.333h-13.673L168.589,50.73z
			 M165.187,40.981l-5.757-16.422l-5.757,16.422H165.187z"/>
		<path class="st0" d="M216.738,9.968V48.44h15.374v10.861h-28.197V9.968H216.738z"/>
		<path class="st0" d="M264.626,9.968V48.44H280v10.861h-28.197V9.968H264.626z"/>
	</g>
	<path class="st0" d="M86.377,68.334c-5.233,0-9.49-4.258-9.49-9.491h0.69c0,4.853,3.948,8.801,8.8,8.801s8.8-3.948,8.8-8.801h0.69
		C95.867,64.077,91.61,68.334,86.377,68.334z"/>
	<path class="st1" d="M77.232,59.361c-0.286,0-0.518-0.232-0.518-0.518l0.002-0.182c0.005-0.283,0.236-0.509,0.517-0.509
		c0.003,0,0.006,0,0.009,0c0.286,0.005,0.514,0.241,0.509,0.527l-0.002,0.163C77.75,59.13,77.518,59.361,77.232,59.361z
		 M95.374,57.72c-0.246,0-0.464-0.176-0.509-0.427c-0.009-0.053-0.02-0.105-0.03-0.157c-0.057-0.28,0.124-0.554,0.404-0.611
		c0.277-0.057,0.553,0.124,0.61,0.404c0.012,0.06,0.024,0.121,0.035,0.182c0.05,0.281-0.137,0.55-0.419,0.601
		C95.435,57.717,95.405,57.72,95.374,57.72z M77.504,57.141c-0.041,0-0.083-0.005-0.124-0.015c-0.278-0.068-0.447-0.349-0.378-0.627
		c0.015-0.06,0.03-0.12,0.047-0.179c0.075-0.276,0.361-0.437,0.636-0.363c0.276,0.075,0.438,0.36,0.363,0.636
		c-0.014,0.051-0.028,0.103-0.04,0.155C77.948,56.983,77.737,57.141,77.504,57.141z M94.709,55.585
		c-0.196,0-0.384-0.112-0.471-0.302l-0.07-0.149c-0.123-0.258-0.013-0.567,0.245-0.69c0.258-0.123,0.567-0.013,0.69,0.245
		l0.076,0.163c0.119,0.26,0.005,0.567-0.255,0.686C94.854,55.569,94.781,55.585,94.709,55.585z M78.308,55.053
		c-0.083,0-0.166-0.02-0.244-0.062c-0.252-0.135-0.347-0.449-0.212-0.701l0.087-0.159c0.139-0.25,0.454-0.339,0.704-0.2
		c0.25,0.139,0.34,0.454,0.201,0.704l-0.079,0.144C78.671,54.954,78.492,55.053,78.308,55.053z M93.542,53.677
		c-0.153,0-0.304-0.067-0.406-0.196l-0.103-0.127c-0.181-0.221-0.149-0.547,0.071-0.729c0.221-0.181,0.547-0.149,0.729,0.071
		l0.114,0.141c0.178,0.224,0.14,0.55-0.084,0.727C93.768,53.64,93.655,53.677,93.542,53.677z M79.597,53.224
		c-0.124,0-0.249-0.044-0.348-0.135c-0.212-0.192-0.227-0.52-0.035-0.731l0.124-0.134c0.196-0.208,0.523-0.218,0.732-0.021
		c0.208,0.196,0.217,0.524,0.021,0.732l-0.111,0.12C79.878,53.167,79.737,53.224,79.597,53.224z M91.947,52.108
		c-0.11,0-0.22-0.035-0.314-0.107l-0.131-0.099c-0.23-0.17-0.278-0.494-0.108-0.724c0.17-0.23,0.494-0.278,0.724-0.108l0.144,0.109
		c0.227,0.174,0.27,0.498,0.097,0.726C92.257,52.038,92.103,52.108,91.947,52.108z M81.289,51.76c-0.166,0-0.33-0.08-0.43-0.228
		c-0.16-0.237-0.097-0.559,0.14-0.719c0.051-0.034,0.102-0.068,0.154-0.101c0.24-0.154,0.56-0.083,0.715,0.158
		c0.154,0.241,0.084,0.561-0.157,0.715c-0.045,0.029-0.089,0.058-0.133,0.088C81.49,51.732,81.389,51.76,81.289,51.76z
		 M90.02,50.971c-0.069,0-0.139-0.014-0.205-0.043l-0.152-0.064c-0.264-0.11-0.39-0.412-0.28-0.676
		c0.109-0.264,0.412-0.389,0.676-0.28l0.167,0.071c0.263,0.114,0.383,0.418,0.269,0.681C90.411,50.854,90.221,50.971,90.02,50.971z
		 M83.285,50.752c-0.212,0-0.411-0.132-0.487-0.343c-0.097-0.269,0.043-0.566,0.312-0.662l0.171-0.06
		c0.271-0.092,0.564,0.053,0.656,0.324c0.092,0.271-0.053,0.565-0.324,0.657l-0.154,0.054
		C83.402,50.742,83.343,50.752,83.285,50.752z M87.874,50.337c-0.028,0-0.056-0.002-0.085-0.007l-0.16-0.025
		c-0.283-0.041-0.479-0.304-0.438-0.587c0.041-0.283,0.303-0.48,0.586-0.438c0.06,0.009,0.121,0.018,0.18,0.028
		c0.282,0.046,0.473,0.313,0.427,0.595C88.343,50.157,88.123,50.337,87.874,50.337z M85.467,50.26c-0.263,0-0.489-0.2-0.515-0.468
		c-0.028-0.285,0.181-0.538,0.465-0.565l0.179-0.016c0.278-0.024,0.535,0.188,0.558,0.474c0.023,0.285-0.188,0.535-0.473,0.558
		l-0.164,0.015C85.501,50.259,85.484,50.26,85.467,50.26z"/>
	<path class="st0" d="M226.802,48.556l-0.65-0.231c0.334-0.942,0.503-1.932,0.503-2.941c0-4.853-3.948-8.801-8.8-8.801
		c-0.36,0-0.722,0.022-1.076,0.065l-0.084-0.685c0.382-0.047,0.772-0.07,1.16-0.07c5.233,0,9.49,4.258,9.49,9.491
		C227.345,46.472,227.162,47.54,226.802,48.556z"/>
	<path class="st2" d="M217.855,55.22c-5.423,0-9.835-4.412-9.835-9.836c0-4.966,3.712-9.163,8.634-9.763
		c0.377-0.045,0.723,0.223,0.769,0.602c0.046,0.378-0.223,0.723-0.602,0.769c-4.23,0.516-7.42,4.124-7.42,8.393
		c0,4.662,3.793,8.456,8.455,8.456c3.574,0,6.777-2.262,7.971-5.629c0.127-0.359,0.522-0.547,0.881-0.42
		c0.359,0.127,0.547,0.522,0.42,0.881C225.738,52.588,222.012,55.22,217.855,55.22z"/>
	<path class="st0" d="M264.787,19.672v-0.69c4.852,0,8.8-3.948,8.8-8.801s-3.948-8.801-8.8-8.801c-4.852,0-8.8,3.948-8.8,8.801
		h-0.69c0-5.233,4.257-9.491,9.49-9.491c5.233,0,9.49,4.258,9.49,9.491S270.019,19.672,264.787,19.672z"/>
	<g>
		<path class="st1" d="M31.163,19.154c-0.286,0-0.518-0.232-0.518-0.518c0-0.286,0.232-0.518,0.518-0.518l0.078,0
			c0.001,0,0.002,0,0.003,0c0.284,0,0.516,0.23,0.518,0.514c0.002,0.286-0.228,0.519-0.514,0.521L31.163,19.154z M33.294,18.905
			c-0.234,0-0.446-0.159-0.503-0.397c-0.067-0.278,0.104-0.558,0.382-0.625l0.16-0.04c0.275-0.071,0.559,0.095,0.63,0.372
			c0.071,0.277-0.095,0.559-0.372,0.63l-0.175,0.044C33.375,18.9,33.334,18.905,33.294,18.905z M35.389,18.121
			c-0.187,0-0.367-0.102-0.46-0.279c-0.132-0.254-0.033-0.566,0.221-0.698l0.142-0.076c0.25-0.137,0.565-0.045,0.703,0.206
			c0.137,0.251,0.045,0.565-0.206,0.703c-0.053,0.029-0.107,0.058-0.162,0.086C35.552,18.102,35.47,18.121,35.389,18.121z
			 M37.231,16.852c-0.143,0-0.285-0.059-0.387-0.174c-0.19-0.214-0.171-0.541,0.043-0.731l0.121-0.109
			c0.21-0.194,0.537-0.181,0.731,0.029s0.181,0.538-0.029,0.732l-0.135,0.122C37.476,16.809,37.353,16.852,37.231,16.852z
			 M38.71,15.174c-0.101,0-0.204-0.03-0.294-0.092c-0.235-0.162-0.294-0.485-0.132-0.72c0.03-0.044,0.06-0.089,0.09-0.134
			c0.158-0.239,0.479-0.305,0.717-0.148c0.239,0.157,0.305,0.478,0.148,0.717c-0.034,0.052-0.068,0.103-0.103,0.153
			C39.036,15.096,38.874,15.174,38.71,15.174z M39.74,13.188c-0.059,0-0.12-0.01-0.179-0.032c-0.268-0.099-0.406-0.396-0.307-0.664
			l0.056-0.156c0.095-0.27,0.39-0.411,0.66-0.316c0.27,0.095,0.411,0.39,0.316,0.66l-0.061,0.17
			C40.149,13.058,39.951,13.188,39.74,13.188z M40.255,11.009c-0.019,0-0.039-0.001-0.059-0.003
			c-0.284-0.032-0.488-0.288-0.456-0.572c0.006-0.053,0.011-0.106,0.016-0.159c0.025-0.285,0.277-0.494,0.561-0.47
			c0.285,0.025,0.495,0.276,0.47,0.561c-0.005,0.062-0.011,0.123-0.019,0.184C40.739,10.814,40.515,11.009,40.255,11.009z
			 M40.224,8.772c-0.255,0-0.477-0.188-0.512-0.448l-0.023-0.162c-0.043-0.282,0.15-0.547,0.433-0.59
			c0.28-0.045,0.547,0.15,0.59,0.433l0.026,0.18c0.038,0.283-0.16,0.544-0.443,0.583C40.271,8.77,40.248,8.772,40.224,8.772z
			 M39.656,6.608c-0.205,0-0.399-0.122-0.48-0.324l-0.063-0.153c-0.111-0.264,0.013-0.567,0.277-0.678
			c0.263-0.111,0.567,0.013,0.678,0.277l0.068,0.166c0.107,0.265-0.021,0.567-0.286,0.674C39.786,6.596,39.72,6.608,39.656,6.608z"
			/>
		<path class="st0" d="M22.405,8.632l-0.687-0.066C22.191,3.682,26.251,0,31.163,0c3.823,0,7.255,2.275,8.744,5.796l-0.636,0.269
			C37.891,2.8,34.708,0.69,31.163,0.69C26.608,0.69,22.843,4.104,22.405,8.632z"/>
		<path class="st2" d="M31.163,19.499c-5.518,0-10.008-4.49-10.008-10.009c0-0.327,0.016-0.655,0.047-0.976
			c0.046-0.474,0.468-0.819,0.943-0.775c0.474,0.046,0.821,0.468,0.775,0.943c-0.026,0.266-0.039,0.538-0.039,0.809
			c0,4.567,3.715,8.283,8.282,8.283c0.477,0,0.863,0.386,0.863,0.863C32.026,19.113,31.64,19.499,31.163,19.499z"/>
	</g>
	<path class="st1" d="M139.086,45.376c-0.022,0-0.045-0.002-0.068-0.007c-0.059-0.012-0.117-0.024-0.176-0.037
		c-0.186-0.041-0.304-0.225-0.263-0.411c0.041-0.186,0.225-0.305,0.411-0.263l0.162,0.034c0.187,0.037,0.308,0.219,0.271,0.406
		C139.391,45.263,139.247,45.376,139.086,45.376z M136.963,44.667c-0.05,0-0.101-0.011-0.149-0.034l-0.16-0.078
		c-0.171-0.085-0.24-0.293-0.154-0.463c0.085-0.17,0.293-0.24,0.463-0.154l0.151,0.074c0.172,0.083,0.244,0.289,0.161,0.461
		C137.215,44.595,137.091,44.667,136.963,44.667z M135.077,43.463c-0.077,0-0.155-0.026-0.219-0.079
		c-0.046-0.038-0.092-0.077-0.137-0.116c-0.145-0.124-0.161-0.342-0.036-0.487c0.124-0.145,0.342-0.161,0.487-0.036l0.127,0.107
		c0.147,0.121,0.168,0.339,0.047,0.486C135.275,43.42,135.176,43.463,135.077,43.463z M133.54,41.838
		c-0.106,0-0.21-0.049-0.278-0.14l-0.104-0.144c-0.111-0.155-0.074-0.371,0.081-0.481c0.156-0.111,0.371-0.074,0.481,0.081
		l0.098,0.135c0.113,0.153,0.081,0.369-0.073,0.482C133.683,41.816,133.611,41.838,133.54,41.838z M132.441,39.89
		c-0.135,0-0.264-0.08-0.319-0.213c-0.023-0.055-0.045-0.11-0.067-0.166c-0.069-0.177,0.018-0.378,0.196-0.447
		c0.177-0.07,0.378,0.018,0.447,0.196l0.061,0.153c0.073,0.176-0.011,0.378-0.187,0.451C132.53,39.881,132.485,39.89,132.441,39.89z
		 M131.851,37.733c-0.169,0-0.317-0.124-0.341-0.296l-0.024-0.177c-0.024-0.189,0.111-0.361,0.3-0.385
		c0.189-0.023,0.362,0.111,0.385,0.3l0.022,0.165c0.027,0.189-0.104,0.363-0.293,0.39C131.883,37.731,131.867,37.733,131.851,37.733
		z M131.801,35.496c-0.011,0-0.023-0.001-0.035-0.002c-0.19-0.019-0.328-0.188-0.309-0.378c0.006-0.06,0.012-0.12,0.02-0.18
		c0.024-0.189,0.195-0.323,0.385-0.3c0.189,0.023,0.324,0.196,0.3,0.385c-0.007,0.054-0.012,0.109-0.018,0.163
		C132.127,35.363,131.977,35.496,131.801,35.496z M132.294,33.313c-0.039,0-0.078-0.007-0.117-0.021
		c-0.179-0.064-0.273-0.262-0.208-0.441l0.062-0.167c0.067-0.179,0.265-0.268,0.444-0.202c0.178,0.067,0.269,0.266,0.202,0.444
		l-0.058,0.158C132.568,33.225,132.435,33.313,132.294,33.313z M133.304,31.316c-0.066,0-0.133-0.019-0.191-0.058
		c-0.158-0.106-0.201-0.32-0.095-0.479c0.033-0.05,0.068-0.1,0.102-0.149c0.109-0.156,0.325-0.193,0.481-0.084
		c0.156,0.11,0.193,0.325,0.084,0.481c-0.032,0.045-0.063,0.09-0.093,0.136C133.525,31.263,133.415,31.316,133.304,31.316z
		 M134.769,29.625c-0.094,0-0.187-0.038-0.255-0.113c-0.128-0.141-0.118-0.359,0.023-0.488l0.134-0.119
		c0.143-0.125,0.361-0.111,0.487,0.032c0.125,0.144,0.111,0.361-0.033,0.487l-0.124,0.11
		C134.936,29.595,134.852,29.625,134.769,29.625z M145.365,28.427c-0.057,0-0.116-0.014-0.169-0.044
		c-0.048-0.027-0.096-0.053-0.144-0.079c-0.168-0.09-0.232-0.299-0.142-0.467c0.09-0.168,0.298-0.232,0.467-0.142
		c0.053,0.028,0.106,0.057,0.158,0.087c0.166,0.094,0.225,0.304,0.131,0.47C145.603,28.364,145.486,28.427,145.365,28.427z
		 M136.599,28.338c-0.123,0-0.243-0.066-0.305-0.183c-0.09-0.168-0.026-0.377,0.142-0.467l0.158-0.083
		c0.17-0.086,0.377-0.019,0.464,0.151c0.087,0.17,0.019,0.378-0.151,0.464l-0.147,0.077
		C136.709,28.325,136.654,28.338,136.599,28.338z M143.294,27.581c-0.03,0-0.06-0.004-0.09-0.012l-0.161-0.042
		c-0.185-0.046-0.298-0.234-0.251-0.419c0.046-0.185,0.232-0.298,0.418-0.251l0.174,0.045c0.184,0.05,0.293,0.239,0.243,0.423
		C143.586,27.48,143.446,27.581,143.294,27.581z M138.685,27.535c-0.155,0-0.296-0.105-0.335-0.262
		c-0.046-0.185,0.067-0.372,0.252-0.418l0.174-0.041c0.184-0.042,0.371,0.073,0.414,0.259c0.043,0.186-0.073,0.371-0.259,0.414
		l-0.162,0.039C138.741,27.532,138.713,27.535,138.685,27.535z M141.079,27.267c-0.003,0-0.005,0-0.008,0
		c-0.055-0.001-0.11-0.002-0.165-0.002c-0.191,0-0.345-0.155-0.345-0.345c0-0.191,0.154-0.345,0.345-0.345
		c0.06,0,0.121,0.001,0.181,0.002c0.19,0.004,0.341,0.162,0.337,0.353C141.42,27.117,141.266,27.267,141.079,27.267z"/>
	<path class="st2" d="M140.901,46.247c-0.679,0-1.359-0.067-2.02-0.201c-0.561-0.113-0.923-0.659-0.811-1.219
		c0.113-0.561,0.658-0.925,1.219-0.811c0.527,0.106,1.069,0.16,1.611,0.16c4.472,0,8.11-3.638,8.11-8.11
		c0-2.873-1.543-5.558-4.026-7.009c-0.494-0.288-0.66-0.922-0.372-1.416c0.288-0.494,0.923-0.66,1.416-0.372
		c3.117,1.82,5.053,5.192,5.053,8.797C151.081,41.679,146.514,46.247,140.901,46.247z"/>
	<path class="st2" d="M264.787,20.017c-5.423,0-9.835-4.412-9.835-9.836c0-0.381,0.309-0.69,0.69-0.69c0.381,0,0.69,0.309,0.69,0.69
		c0,4.662,3.793,8.456,8.455,8.456c0.381,0,0.69,0.309,0.69,0.69C265.477,19.708,265.168,20.017,264.787,20.017z"/>
	<g>
		<path class="st0" d="M262.544,10.009c0-1.144,0.927-2.071,2.071-2.071c1.143,0,2.07,0.927,2.07,2.071s-0.927,2.071-2.07,2.071"/>
		<path class="st2" d="M262.544,10.009c0,1.144,0.927,2.071,2.071,2.071v-2.071H262.544z"/>
	</g>
	<path class="st0" d="M218.718,48.317c0-1.144-0.927-2.071-2.071-2.071"/>
	<path class="st2" d="M218.718,48.317c0,1.144-0.927,2.071-2.071,2.071s-2.071-0.927-2.071-2.071s0.927-2.071,2.071-2.071v2.071
		H218.718z"/>
	<polyline class="st0" points="218.718,48.317 216.647,48.317 216.647,46.247 	"/>
	<g>
		<g>
			<path class="st1" d="M84.862,74.505h7.546c1.336,0,2.589,0.269,3.76,0.807c1.171,0.538,2.194,1.253,3.07,2.147
				c0.876,0.894,1.565,1.935,2.068,3.123c0.503,1.188,0.755,2.433,0.755,3.734c0,1.284-0.247,2.52-0.742,3.708
				c-0.494,1.188-1.18,2.234-2.056,3.136c-0.876,0.902-1.899,1.622-3.07,2.16c-1.171,0.538-2.433,0.807-3.786,0.807h-7.546V74.505z
				 M89.962,89.807h1.171c0.885,0,1.674-0.139,2.368-0.417c0.694-0.277,1.279-0.659,1.756-1.145
				c0.477-0.486,0.841-1.063,1.093-1.731c0.251-0.668,0.377-1.401,0.377-2.199c0-0.781-0.13-1.51-0.39-2.186
				c-0.26-0.677-0.629-1.258-1.106-1.743c-0.477-0.486-1.063-0.868-1.756-1.145c-0.694-0.277-1.474-0.416-2.342-0.416h-1.171V89.807
				z"/>
			<path class="st1" d="M129.513,90.717h-7.286l-1.171,3.409h-5.438l7.468-19.622h5.568l7.468,19.622h-5.438L129.513,90.717z
				 M128.16,86.84l-2.29-6.532l-2.29,6.532H128.16z"/>
			<path class="st1" d="M157.954,78.825v15.302h-5.1V78.825h-4.189v-4.32h13.479v4.32H157.954z"/>
			<path class="st1" d="M188.529,90.717h-7.286l-1.171,3.409h-5.438l7.468-19.622h5.568l7.468,19.622H189.7L188.529,90.717z
				 M187.176,86.84l-2.29-6.532l-2.29,6.532H187.176z"/>
		</g>
	</g>
	<path class="st1" d="M184.554,103.364h-0.173c-0.191,0-0.345-0.155-0.345-0.345c0-0.191,0.154-0.345,0.345-0.345h0.173
		c0.191,0,0.345,0.155,0.345,0.345C184.899,103.21,184.745,103.364,184.554,103.364z M182.311,103.364h-0.173
		c-0.191,0-0.345-0.155-0.345-0.345c0-0.191,0.154-0.345,0.345-0.345h0.173c0.191,0,0.345,0.155,0.345,0.345
		C182.656,103.21,182.502,103.364,182.311,103.364z M180.068,103.364h-0.173c-0.191,0-0.345-0.155-0.345-0.345
		c0-0.191,0.154-0.345,0.345-0.345h0.173c0.191,0,0.345,0.155,0.345,0.345C180.413,103.21,180.259,103.364,180.068,103.364z
		 M177.825,103.364h-0.173c-0.191,0-0.345-0.155-0.345-0.345c0-0.191,0.154-0.345,0.345-0.345h0.173
		c0.191,0,0.345,0.155,0.345,0.345C178.17,103.21,178.016,103.364,177.825,103.364z M175.582,103.364h-0.173
		c-0.191,0-0.345-0.155-0.345-0.345c0-0.191,0.154-0.345,0.345-0.345h0.173c0.191,0,0.345,0.155,0.345,0.345
		C175.927,103.21,175.773,103.364,175.582,103.364z M173.339,103.364h-0.173c-0.191,0-0.345-0.155-0.345-0.345
		c0-0.191,0.154-0.345,0.345-0.345h0.173c0.191,0,0.345,0.155,0.345,0.345C173.684,103.21,173.53,103.364,173.339,103.364z
		 M171.096,103.364h-0.173c-0.191,0-0.345-0.155-0.345-0.345c0-0.191,0.154-0.345,0.345-0.345h0.173
		c0.191,0,0.345,0.155,0.345,0.345C171.441,103.21,171.287,103.364,171.096,103.364z M168.853,103.364h-0.173
		c-0.191,0-0.345-0.155-0.345-0.345c0-0.191,0.154-0.345,0.345-0.345h0.173c0.191,0,0.345,0.155,0.345,0.345
		C169.198,103.21,169.043,103.364,168.853,103.364z M166.61,103.364h-0.173c-0.191,0-0.345-0.155-0.345-0.345
		c0-0.191,0.154-0.345,0.345-0.345h0.173c0.191,0,0.345,0.155,0.345,0.345C166.955,103.21,166.8,103.364,166.61,103.364z
		 M164.367,103.364h-0.173c-0.191,0-0.345-0.155-0.345-0.345c0-0.191,0.154-0.345,0.345-0.345h0.173
		c0.191,0,0.345,0.155,0.345,0.345C164.712,103.21,164.557,103.364,164.367,103.364z M162.124,103.364h-0.173
		c-0.191,0-0.345-0.155-0.345-0.345c0-0.191,0.154-0.345,0.345-0.345h0.173c0.191,0,0.345,0.155,0.345,0.345
		C162.469,103.21,162.314,103.364,162.124,103.364z M159.88,103.364h-0.173c-0.191,0-0.345-0.155-0.345-0.345
		c0-0.191,0.154-0.345,0.345-0.345h0.173c0.191,0,0.345,0.155,0.345,0.345C160.226,103.21,160.071,103.364,159.88,103.364z
		 M155.394,103.364h-0.173c-0.191,0-0.345-0.155-0.345-0.345c0-0.191,0.154-0.345,0.345-0.345h0.173
		c0.191,0,0.345,0.155,0.345,0.345C155.739,103.21,155.585,103.364,155.394,103.364z M153.151,103.364h-0.173
		c-0.191,0-0.345-0.155-0.345-0.345c0-0.191,0.154-0.345,0.345-0.345h0.173c0.191,0,0.345,0.155,0.345,0.345
		C153.496,103.21,153.342,103.364,153.151,103.364z M148.665,103.364h-0.173c-0.191,0-0.345-0.155-0.345-0.345
		c0-0.191,0.154-0.345,0.345-0.345h0.173c0.191,0,0.345,0.155,0.345,0.345C149.01,103.21,148.856,103.364,148.665,103.364z
		 M146.422,103.364h-0.173c-0.191,0-0.345-0.155-0.345-0.345c0-0.191,0.154-0.345,0.345-0.345h0.173
		c0.191,0,0.345,0.155,0.345,0.345C146.767,103.21,146.613,103.364,146.422,103.364z M144.179,103.364h-0.173
		c-0.191,0-0.345-0.155-0.345-0.345c0-0.191,0.154-0.345,0.345-0.345h0.173c0.191,0,0.345,0.155,0.345,0.345
		C144.524,103.21,144.37,103.364,144.179,103.364z M141.936,103.364h-0.173c-0.191,0-0.345-0.155-0.345-0.345
		c0-0.191,0.154-0.345,0.345-0.345h0.173c0.191,0,0.345,0.155,0.345,0.345C142.281,103.21,142.127,103.364,141.936,103.364z
		 M139.693,103.364h-0.173c-0.191,0-0.345-0.155-0.345-0.345c0-0.191,0.154-0.345,0.345-0.345h0.173
		c0.191,0,0.345,0.155,0.345,0.345C140.038,103.21,139.884,103.364,139.693,103.364z M137.45,103.364h-0.173
		c-0.191,0-0.345-0.155-0.345-0.345c0-0.191,0.154-0.345,0.345-0.345h0.173c0.191,0,0.345,0.155,0.345,0.345
		C137.795,103.21,137.641,103.364,137.45,103.364z M135.207,103.364h-0.173c-0.191,0-0.345-0.155-0.345-0.345
		c0-0.191,0.154-0.345,0.345-0.345h0.173c0.191,0,0.345,0.155,0.345,0.345C135.552,103.21,135.398,103.364,135.207,103.364z
		 M132.964,103.364h-0.173c-0.191,0-0.345-0.155-0.345-0.345c0-0.191,0.154-0.345,0.345-0.345h0.173
		c0.191,0,0.345,0.155,0.345,0.345C133.309,103.21,133.154,103.364,132.964,103.364z M130.721,103.364h-0.173
		c-0.191,0-0.345-0.155-0.345-0.345c0-0.191,0.154-0.345,0.345-0.345h0.173c0.191,0,0.345,0.155,0.345,0.345
		C131.066,103.21,130.911,103.364,130.721,103.364z M128.478,103.364h-0.173c-0.191,0-0.345-0.155-0.345-0.345
		c0-0.191,0.154-0.345,0.345-0.345h0.173c0.191,0,0.345,0.155,0.345,0.345C128.823,103.21,128.668,103.364,128.478,103.364z
		 M123.991,103.364h-0.173c-0.191,0-0.345-0.155-0.345-0.345c0-0.191,0.154-0.345,0.345-0.345h0.173
		c0.191,0,0.345,0.155,0.345,0.345C124.337,103.21,124.182,103.364,123.991,103.364z M121.748,103.364h-0.173
		c-0.191,0-0.345-0.155-0.345-0.345c0-0.191,0.154-0.345,0.345-0.345h0.173c0.191,0,0.345,0.155,0.345,0.345
		C122.093,103.21,121.939,103.364,121.748,103.364z M117.262,103.364h-0.173c-0.191,0-0.345-0.155-0.345-0.345
		c0-0.191,0.154-0.345,0.345-0.345h0.173c0.191,0,0.345,0.155,0.345,0.345C117.607,103.21,117.453,103.364,117.262,103.364z
		 M115.019,103.364h-0.173c-0.191,0-0.345-0.155-0.345-0.345c0-0.191,0.154-0.345,0.345-0.345h0.173
		c0.191,0,0.345,0.155,0.345,0.345C115.364,103.21,115.21,103.364,115.019,103.364z M112.776,103.364h-0.173
		c-0.191,0-0.345-0.155-0.345-0.345c0-0.191,0.154-0.345,0.345-0.345h0.173c0.191,0,0.345,0.155,0.345,0.345
		C113.121,103.21,112.967,103.364,112.776,103.364z M110.533,103.364h-0.173c-0.191,0-0.345-0.155-0.345-0.345
		c0-0.191,0.154-0.345,0.345-0.345h0.173c0.191,0,0.345,0.155,0.345,0.345C110.878,103.21,110.724,103.364,110.533,103.364z
		 M108.29,103.364h-0.173c-0.191,0-0.345-0.155-0.345-0.345c0-0.191,0.154-0.345,0.345-0.345h0.173c0.191,0,0.345,0.155,0.345,0.345
		C108.635,103.21,108.481,103.364,108.29,103.364z M106.047,103.364h-0.173c-0.191,0-0.345-0.155-0.345-0.345
		c0-0.191,0.154-0.345,0.345-0.345h0.173c0.191,0,0.345,0.155,0.345,0.345C106.392,103.21,106.238,103.364,106.047,103.364z
		 M103.804,103.364h-0.173c-0.191,0-0.345-0.155-0.345-0.345c0-0.191,0.154-0.345,0.345-0.345h0.173
		c0.191,0,0.345,0.155,0.345,0.345C104.149,103.21,103.995,103.364,103.804,103.364z M101.561,103.364h-0.173
		c-0.191,0-0.345-0.155-0.345-0.345c0-0.191,0.154-0.345,0.345-0.345h0.173c0.191,0,0.345,0.155,0.345,0.345
		C101.906,103.21,101.752,103.364,101.561,103.364z M99.318,103.364h-0.173c-0.191,0-0.345-0.155-0.345-0.345
		c0-0.191,0.154-0.345,0.345-0.345h0.173c0.191,0,0.345,0.155,0.345,0.345C99.663,103.21,99.509,103.364,99.318,103.364z
		 M97.075,103.364h-0.173c-0.191,0-0.345-0.155-0.345-0.345c0-0.191,0.154-0.345,0.345-0.345h0.173c0.191,0,0.345,0.155,0.345,0.345
		C97.42,103.21,97.265,103.364,97.075,103.364z M92.589,103.364h-0.173c-0.191,0-0.345-0.155-0.345-0.345
		c0-0.191,0.154-0.345,0.345-0.345h0.173c0.191,0,0.345,0.155,0.345,0.345C92.934,103.21,92.779,103.364,92.589,103.364z"/>
	<g>
		<path class="st3" d="M92.392,107c-2.08,0-3.772-1.691-3.772-3.77s1.692-3.77,3.772-3.77s3.772,1.691,3.772,3.77
			S94.472,107,92.392,107z"/>
		<path class="st0" d="M92.392,105.859c-1.45,0-2.629-1.179-2.629-2.629c0-1.449,1.179-2.628,2.629-2.628s2.629,1.179,2.629,2.628
			C95.022,104.68,93.842,105.859,92.392,105.859z"/>
		<circle class="st0" cx="92.392" cy="103.23" r="2.058"/>
	</g>
	<g>
		<path class="st3" d="M123.047,107c-2.08,0-3.772-1.691-3.772-3.77s1.692-3.77,3.772-3.77c2.08,0,3.772,1.691,3.772,3.77
			S125.127,107,123.047,107z"/>
		<path class="st0" d="M123.047,105.859c-1.45,0-2.629-1.179-2.629-2.629c0-1.449,1.179-2.628,2.629-2.628
			c1.45,0,2.629,1.179,2.629,2.628C125.676,104.68,124.497,105.859,123.047,105.859z"/>
		<circle class="st0" cx="123.047" cy="103.23" r="2.058"/>
	</g>
	<g>
		<path class="st3" d="M153.702,107c-2.08,0-3.772-1.691-3.772-3.77s1.692-3.77,3.772-3.77c2.08,0,3.772,1.691,3.772,3.77
			S155.782,107,153.702,107z"/>
		<path class="st0" d="M153.702,105.859c-1.45,0-2.629-1.179-2.629-2.629c0-1.449,1.179-2.628,2.629-2.628s2.629,1.179,2.629,2.628
			C156.331,104.68,155.152,105.859,153.702,105.859z"/>
		<circle class="st0" cx="153.702" cy="103.23" r="2.058"/>
	</g>
	<g>
		<path class="st3" d="M184.357,107c-2.08,0-3.772-1.691-3.772-3.77s1.692-3.77,3.772-3.77c2.08,0,3.772,1.691,3.772,3.77
			S186.437,107,184.357,107z"/>
		<path class="st0" d="M184.357,105.859c-1.45,0-2.629-1.179-2.629-2.629c0-1.449,1.179-2.628,2.629-2.628
			c1.449,0,2.629,1.179,2.629,2.628C186.986,104.68,185.807,105.859,184.357,105.859z"/>
		<circle class="st0" cx="184.357" cy="103.23" r="2.058"/>
	</g>
	<g>
		<path class="st1" d="M216.727,48.238c-0.09,0-0.179-0.034-0.237-0.105c-0.107-0.134-0.109-0.31,0.024-0.417l0.048-0.039
			c0.133-0.107,0.328-0.085,0.436,0.048c0.107,0.134,0.085,0.329-0.048,0.436C216.888,48.212,216.807,48.238,216.727,48.238z"/>
		<path class="st1" d="M218.07,47.189c-0.091,0-0.182-0.04-0.243-0.118c-0.107-0.134-0.084-0.329,0.051-0.436l0.099-0.078
			c0.133-0.106,0.329-0.084,0.436,0.051c0.107,0.134,0.084,0.329-0.051,0.436l-0.099,0.078
			C218.206,47.167,218.138,47.189,218.07,47.189z M219.482,46.069c-0.091,0-0.182-0.04-0.243-0.118
			c-0.107-0.134-0.084-0.329,0.051-0.436l0.099-0.078c0.133-0.106,0.329-0.084,0.436,0.051c0.107,0.134,0.084,0.329-0.051,0.436
			l-0.099,0.078C219.617,46.047,219.55,46.069,219.482,46.069z M220.893,44.949c-0.091,0-0.182-0.04-0.243-0.118
			c-0.107-0.134-0.084-0.329,0.051-0.436l0.099-0.078c0.133-0.106,0.329-0.084,0.436,0.051c0.107,0.134,0.084,0.329-0.051,0.436
			l-0.099,0.078C221.029,44.928,220.961,44.949,220.893,44.949z M222.305,43.83c-0.091,0-0.181-0.04-0.242-0.117
			c-0.107-0.134-0.085-0.329,0.049-0.436l0.098-0.078c0.133-0.107,0.329-0.084,0.436,0.049c0.107,0.134,0.085,0.329-0.049,0.436
			l-0.098,0.078C222.441,43.808,222.373,43.83,222.305,43.83z M223.716,42.71c-0.091,0-0.182-0.04-0.243-0.118
			c-0.107-0.134-0.084-0.329,0.051-0.436l0.099-0.078c0.133-0.106,0.329-0.084,0.436,0.051c0.107,0.134,0.084,0.329-0.051,0.436
			l-0.099,0.078C223.851,42.688,223.783,42.71,223.716,42.71z M225.127,41.591c-0.091,0-0.182-0.04-0.243-0.118
			c-0.107-0.134-0.084-0.329,0.051-0.436l0.099-0.078c0.133-0.106,0.329-0.084,0.436,0.051c0.107,0.134,0.084,0.329-0.051,0.436
			l-0.099,0.078C225.263,41.569,225.195,41.591,225.127,41.591z M226.539,40.471c-0.091,0-0.182-0.04-0.243-0.117
			c-0.107-0.134-0.084-0.329,0.05-0.436l0.099-0.078c0.135-0.105,0.33-0.085,0.436,0.05c0.107,0.134,0.084,0.329-0.05,0.436
			l-0.099,0.078C226.674,40.449,226.606,40.471,226.539,40.471z M227.95,39.352c-0.091,0-0.182-0.04-0.243-0.117
			c-0.107-0.134-0.084-0.329,0.05-0.436l0.099-0.078c0.135-0.105,0.33-0.085,0.436,0.05c0.107,0.134,0.084,0.329-0.05,0.436
			l-0.099,0.078C228.086,39.33,228.018,39.352,227.95,39.352z M229.362,38.232c-0.091,0-0.182-0.04-0.243-0.117
			c-0.107-0.134-0.084-0.329,0.05-0.436l0.099-0.078c0.135-0.106,0.33-0.085,0.436,0.05c0.107,0.134,0.084,0.329-0.05,0.436
			l-0.099,0.078C229.497,38.21,229.43,38.232,229.362,38.232z M230.773,37.113c-0.091,0-0.182-0.04-0.243-0.118
			c-0.107-0.134-0.084-0.329,0.051-0.436l0.099-0.078c0.133-0.106,0.329-0.084,0.436,0.051c0.107,0.134,0.084,0.329-0.051,0.436
			l-0.099,0.078C230.909,37.091,230.841,37.113,230.773,37.113z M232.185,35.993c-0.091,0-0.182-0.04-0.243-0.118
			c-0.107-0.134-0.084-0.329,0.051-0.436l0.099-0.078c0.133-0.106,0.329-0.084,0.436,0.051c0.107,0.134,0.084,0.329-0.051,0.436
			l-0.099,0.078C232.32,35.971,232.253,35.993,232.185,35.993z M233.596,34.874c-0.091,0-0.181-0.04-0.242-0.117
			c-0.107-0.134-0.085-0.329,0.049-0.436l0.098-0.078c0.133-0.107,0.329-0.084,0.436,0.049c0.107,0.134,0.085,0.329-0.049,0.436
			l-0.098,0.078C233.733,34.851,233.664,34.874,233.596,34.874z M235.007,33.754c-0.091,0-0.182-0.04-0.243-0.118
			c-0.107-0.134-0.084-0.329,0.051-0.436l0.099-0.078c0.133-0.106,0.329-0.084,0.436,0.051c0.107,0.134,0.084,0.329-0.051,0.436
			l-0.099,0.078C235.143,33.732,235.075,33.754,235.007,33.754z M236.419,32.634c-0.091,0-0.182-0.04-0.243-0.118
			c-0.107-0.134-0.084-0.329,0.051-0.436l0.099-0.078c0.133-0.106,0.329-0.084,0.436,0.051c0.107,0.134,0.084,0.329-0.051,0.436
			l-0.099,0.078C236.554,32.613,236.486,32.634,236.419,32.634z M237.83,31.515c-0.091,0-0.182-0.04-0.243-0.118
			c-0.107-0.134-0.084-0.329,0.051-0.436l0.099-0.078c0.133-0.106,0.329-0.084,0.436,0.051c0.107,0.134,0.084,0.329-0.051,0.436
			l-0.099,0.078C237.966,31.493,237.898,31.515,237.83,31.515z M239.242,30.395c-0.091,0-0.182-0.04-0.243-0.118
			c-0.107-0.134-0.084-0.329,0.051-0.436l0.099-0.078c0.133-0.106,0.329-0.084,0.436,0.051c0.107,0.134,0.084,0.329-0.051,0.436
			l-0.099,0.078C239.377,30.373,239.31,30.395,239.242,30.395z M240.653,29.276c-0.091,0-0.182-0.04-0.243-0.117
			c-0.107-0.134-0.084-0.329,0.05-0.436l0.099-0.078c0.135-0.105,0.33-0.085,0.436,0.05c0.107,0.134,0.084,0.329-0.05,0.436
			l-0.099,0.078C240.789,29.254,240.721,29.276,240.653,29.276z M242.065,28.157c-0.091,0-0.182-0.04-0.243-0.117
			c-0.107-0.134-0.084-0.329,0.05-0.436l0.099-0.078c0.136-0.105,0.33-0.085,0.436,0.05c0.107,0.134,0.084,0.329-0.05,0.436
			l-0.099,0.078C242.2,28.134,242.133,28.157,242.065,28.157z M243.476,27.037c-0.09,0-0.181-0.04-0.242-0.116
			c-0.107-0.134-0.086-0.329,0.048-0.436l0.098-0.078c0.133-0.108,0.328-0.086,0.436,0.048c0.107,0.134,0.086,0.329-0.048,0.436
			l-0.098,0.078C243.613,27.015,243.544,27.037,243.476,27.037z M244.887,25.917c-0.091,0-0.182-0.04-0.243-0.117
			c-0.107-0.134-0.084-0.329,0.05-0.436l0.099-0.078c0.135-0.106,0.33-0.085,0.436,0.05c0.107,0.134,0.084,0.329-0.05,0.436
			l-0.099,0.078C245.023,25.895,244.955,25.917,244.887,25.917z M246.299,24.798c-0.091,0-0.182-0.04-0.243-0.118
			c-0.107-0.134-0.084-0.329,0.051-0.436l0.099-0.078c0.133-0.106,0.329-0.084,0.436,0.051c0.107,0.134,0.084,0.329-0.051,0.436
			l-0.099,0.078C246.434,24.776,246.366,24.798,246.299,24.798z M247.71,23.678c-0.091,0-0.182-0.04-0.243-0.118
			c-0.107-0.134-0.084-0.329,0.051-0.436l0.099-0.078c0.133-0.106,0.329-0.084,0.436,0.051c0.107,0.134,0.084,0.329-0.051,0.436
			l-0.099,0.078C247.846,23.656,247.778,23.678,247.71,23.678z M249.122,22.559c-0.091,0-0.182-0.04-0.243-0.118
			c-0.107-0.134-0.084-0.329,0.051-0.436l0.099-0.078c0.133-0.106,0.329-0.084,0.436,0.051c0.107,0.134,0.084,0.329-0.051,0.436
			l-0.099,0.078C249.257,22.537,249.189,22.559,249.122,22.559z M250.533,21.439c-0.091,0-0.182-0.04-0.243-0.118
			c-0.107-0.134-0.084-0.329,0.051-0.436l0.099-0.078c0.133-0.106,0.329-0.084,0.436,0.051c0.107,0.134,0.084,0.329-0.051,0.436
			l-0.099,0.078C250.669,21.417,250.601,21.439,250.533,21.439z M251.945,20.32c-0.091,0-0.182-0.04-0.243-0.118
			c-0.107-0.134-0.084-0.329,0.051-0.436l0.099-0.078c0.133-0.106,0.329-0.084,0.436,0.051c0.107,0.134,0.084,0.329-0.051,0.436
			l-0.099,0.078C252.08,20.298,252.013,20.32,251.945,20.32z M253.356,19.2c-0.091,0-0.181-0.04-0.242-0.117
			c-0.107-0.134-0.085-0.329,0.049-0.436l0.098-0.078c0.133-0.107,0.329-0.085,0.436,0.049c0.107,0.134,0.085,0.329-0.049,0.436
			l-0.098,0.078C253.493,19.178,253.424,19.2,253.356,19.2z M254.767,18.08c-0.091,0-0.182-0.04-0.243-0.118
			c-0.107-0.134-0.084-0.329,0.051-0.436l0.099-0.078c0.133-0.106,0.329-0.084,0.436,0.051c0.107,0.134,0.084,0.329-0.051,0.436
			l-0.099,0.078C254.903,18.059,254.835,18.08,254.767,18.08z M256.179,16.961c-0.091,0-0.182-0.04-0.243-0.117
			c-0.107-0.134-0.084-0.329,0.05-0.436l0.099-0.078c0.135-0.105,0.33-0.085,0.436,0.05c0.107,0.134,0.084,0.329-0.05,0.436
			l-0.099,0.078C256.314,16.939,256.246,16.961,256.179,16.961z M257.59,15.842c-0.091,0-0.182-0.04-0.243-0.117
			c-0.107-0.134-0.084-0.329,0.05-0.436l0.099-0.078c0.135-0.106,0.33-0.085,0.436,0.05c0.107,0.134,0.084,0.329-0.05,0.436
			l-0.099,0.078C257.726,15.819,257.658,15.842,257.59,15.842z M259.002,14.722c-0.091,0-0.182-0.04-0.243-0.117
			c-0.107-0.134-0.084-0.329,0.05-0.436l0.099-0.078c0.135-0.106,0.33-0.085,0.436,0.05c0.107,0.134,0.084,0.329-0.05,0.436
			l-0.099,0.078C259.137,14.7,259.069,14.722,259.002,14.722z M260.413,13.602c-0.091,0-0.182-0.04-0.243-0.118
			c-0.107-0.134-0.084-0.329,0.051-0.436l0.099-0.078c0.133-0.106,0.329-0.084,0.435,0.051c0.107,0.134,0.084,0.329-0.051,0.436
			l-0.099,0.078C260.549,13.581,260.481,13.602,260.413,13.602z M261.825,12.483c-0.091,0-0.182-0.04-0.243-0.118
			c-0.107-0.134-0.084-0.329,0.051-0.436l0.099-0.078c0.133-0.106,0.329-0.084,0.436,0.051c0.107,0.134,0.084,0.329-0.051,0.436
			l-0.099,0.078C261.96,12.461,261.893,12.483,261.825,12.483z M263.236,11.363c-0.091,0-0.182-0.04-0.243-0.118
			c-0.107-0.134-0.084-0.329,0.051-0.436l0.099-0.078c0.133-0.106,0.329-0.084,0.436,0.051c0.107,0.134,0.084,0.329-0.051,0.436
			l-0.099,0.078C263.372,11.341,263.304,11.363,263.236,11.363z"/>
		<path class="st1" d="M264.666,10.213c-0.09,0-0.179-0.034-0.237-0.105c-0.107-0.134-0.109-0.31,0.024-0.417l0.048-0.039
			c0.133-0.107,0.328-0.086,0.436,0.048c0.107,0.134,0.085,0.329-0.048,0.436C264.827,10.188,264.746,10.213,264.666,10.213z"/>
	</g>
</g>
</svg>